<?xml version="1.0" encoding="UTF-8"?>
<svg xmlns="http://www.w3.org/2000/svg" xmlns:xlink="http://www.w3.org/1999/xlink" viewBox="0 0 600 600">
  <defs>
    <style>
      .cls-1 {
        opacity: .39;
      }

      .cls-1, .cls-2 {
        fill: #ababab;
        mix-blend-mode: screen;
      }

      .cls-3 {
        isolation: isolate;
      }

      .cls-4 {
        stroke-linecap: round;
        stroke-linejoin: round;
      }

      .cls-4, .cls-5, .cls-6 {
        fill: #e1e222;
      }

      .cls-4, .cls-7, .cls-8, .cls-9 {
        stroke: #2e1312;
      }

      .cls-4, .cls-10 {
        stroke-width: 2px;
      }

      .cls-11 {
        fill: none;
      }

      .cls-11, .cls-5, .cls-12, .cls-13, .cls-7, .cls-8, .cls-9, .cls-10, .cls-6 {
        stroke-miterlimit: 10;
      }

      .cls-11, .cls-5, .cls-12, .cls-13, .cls-10, .cls-6 {
        stroke: #1a1212;
      }

      .cls-5, .cls-12 {
        stroke-width: 4px;
      }

      .cls-14 {
        fill: #037187;
      }

      .cls-12, .cls-15 {
        fill: #f18954;
      }

      .cls-16, .cls-9 {
        fill: #107d3f;
      }

      .cls-17 {
        fill: #00a5c5;
      }

      .cls-13 {
        fill: #4e2a70;
        stroke-width: 3px;
      }

      .cls-18 {
        fill: url(#radial-gradient);
      }

      .cls-19 {
        fill: #1a1212;
      }

      .cls-7, .cls-10 {
        fill: #ec2727;
      }

      .cls-8 {
        fill: #f6ec1d;
      }

      .cls-2 {
        opacity: .54;
      }

      .cls-20 {
        filter: url(#luminosity-noclip);
      }

      .cls-21 {
        fill: #5c5c5d;
        mix-blend-mode: multiply;
        opacity: .51;
      }

      .cls-22 {
        mask: url(#mask);
      }

      .cls-23 {
        fill: #231f20;
      }
    </style>
    <filter id="luminosity-noclip" x="178.5" y="119.5" width="266.6" height="127.5" color-interpolation-filters="sRGB" filterUnits="userSpaceOnUse">
      <feFlood flood-color="#fff" result="bg"/>
      <feBlend in="SourceGraphic" in2="bg"/>
    </filter>
    <radialGradient id="radial-gradient" cx="311.8" cy="185.85" fx="311.8" fy="185.85" r="103.7" gradientUnits="userSpaceOnUse">
      <stop offset="0" stop-color="#000"/>
      <stop offset="1" stop-color="#fff"/>
    </radialGradient>
    <mask id="mask" x="178.5" y="119.5" width="266.6" height="127.5" maskUnits="userSpaceOnUse">
      <g class="cls-20">
        <rect class="cls-18" x="178.5" y="124.71" width="266.6" height="122.29"/>
      </g>
    </mask>
  </defs>
  <g class="cls-3">
    <g id="Layer_1" data-name="Layer 1">
      <g>
        <path class="cls-15" d="m423.1,166.12c-.04.07-.1.12-.16.18l-22.46,23.93-83.81,89.32c-2.37,2.52-6.37,2.52-8.74,0l-83.81-89.32-22.46-23.93s-.02-.03-.03-.04c-15.62-16.69-3.97-43.95,18.76-44.33h183.81c22.67.38,34.33,27.49,18.89,44.2Z"/>
        <path class="cls-19" d="m424.54,164.77c-8.59,10.53-17.71,21.14-27.01,31-14.89,16.44-38.12,40.68-53.49,57.09-4.53,4.69-9.39,9.07-13.74,13.93-3,3.21-8.66,9.38-11.62,12.56,0,0-.83.9-.83.9l-.21.23c-3.22,3.41-8.47,3.02-11.41-.59-19.68-20.42-41.42-42.98-60.55-63.88,0,0-6.59-7.23-6.59-7.23-2.19-2.42-4.04-5.15-6.18-7.61-4.34-4.86-9.05-9.39-13.7-13.96-5.85-5.6-11.51-11.58-17.08-17.46-3.68-3.63-6.93-7.92-8.45-12.95-5.7-17.7,7.88-36.87,26.64-36.7,12.85.25,26.28,1.31,39.13,1.05,16.3-.06,32.6-.59,48.9-.9,26.08-.55,52.16.26,78.24.45,4.76.02,9.9.08,14.67.01,5.05-.22,10.26.36,14.89,2.61,15.53,7.18,20.98,29.05,8.4,41.44h0Zm-.87.47c11.38-15.99,2.47-39.8-17.65-41.95-32.53-.69-65.13,1.13-97.68.31-22.81-.35-45.64-1.48-68.45-.58,0,0-9.77.43-9.77.43-6.22.43-12.74-.34-18.59,2.21-11.29,4.6-17.6,18.32-13.84,29.88,1.33,4.38,4.16,8.15,7.36,11.4,5.55,5.94,11.13,12,16.37,18.2,4.27,4.94,8.48,9.92,13.06,14.57,2.33,2.29,4.93,4.31,7.2,6.65,22.34,23,45.68,48.49,67.31,72.2,1.77,2.02,5.18,1.95,6.91-.12,0,0,.84-.89.84-.89,2.97-3.14,8.75-9.18,11.8-12.4,4.58-4.65,8.64-9.77,13.03-14.59,26.08-27.59,54.49-59.58,82.1-85.31h0Z"/>
      </g>
      <polygon class="cls-4" points="377.98 171.52 399.29 191.53 390.16 201.26 371.43 221.21 348.98 200.14 368.46 180.91 377.98 171.52"/>
      <path class="cls-13" d="m423.1,166.12c-.04.07-.1.12-.16.18l-22.46,23.93-21.26-19.94,19.48-19.18c10.15-10.01,4.37-26.73-8.75-29.19-.02,0-.03-.01-.06-.01h13.82c.17,0,.33,0,.49.01,22.67.38,34.33,27.49,18.89,44.2Z"/>
      <polygon class="cls-4" points="246.64 171.52 225.34 191.53 234.47 201.26 253.2 221.21 275.65 200.14 256.17 180.91 246.64 171.52"/>
      <path class="cls-13" d="m245.39,170.29l-21.25,19.94-22.46-23.93s-.02-.03-.03-.04c-15.62-16.69-3.97-43.95,18.76-44.33.16-.01.32-.01.49-.01h13.83s-.03.01-.06.01c-13.11,2.46-18.9,19.18-8.75,29.19l19.47,19.18Z"/>
      <g>
        <path class="cls-17" d="m303.76,227.85l-90.05-88.76c-6.5-6.41-1.96-17.47,7.16-17.47h182.87c9.13,0,13.66,11.07,7.16,17.47l-90.05,88.76c-4.74,4.67-12.36,4.67-17.1,0Z"/>
        <path class="cls-19" d="m303.59,228.03c-12.2-9.96-23.38-21.04-34.65-32.02-13.13-12.76-31.75-31.3-44.37-44.55-1.22-1.45-12.63-11.75-13.42-13.37-2.86-4.06-2.49-9.8.52-13.69,4.3-5.44,9.74-4.51,15.81-4.65,0,0,15.72-.15,15.72-.15,12.34-.03,27.07-.09,39.3.23,2.62.06,5.24.57,7.86.7,5.24.16,10.48-.18,15.72-.44,15.7-.81,31.44-.55,47.15-.57,10.48.11,20.96.03,31.44.57,5.24.28,10.48.65,15.72.73,1.98.06,4.08-.11,6.05.37,3.47.76,6.35,3.43,7.65,6.72,1.33,3.33.99,7.3-1.03,10.29-.61,1.12-3.17,3.53-4.07,4.53-10.58,11.04-22.17,23.04-33.23,33.46-11.37,10.86-22.93,21.52-33.92,32.76-5.48,5.63-10.91,11.32-16.57,16.78-.98.83-3.33,3.33-4.44,4.11-1.75,1.32-3.84,2.18-5.99,2.49-4.14.6-8.69-1.16-11.08-4.48,0,0-.18.18-.18.18h0Zm.18-.18c4.89,3.47,11.11,3.21,15.23-.3,3.13-3.11,6.45-6.54,9.65-9.58,23.17-21.27,44.2-44.71,67.1-66.27,0,0,11.5-10.73,11.5-10.73l2.87-2.68c2.64-2.44,3.66-6.38,2.37-9.76-1.51-4.32-5.69-6.52-10.13-6.14-5.9.01-11.79.43-17.68.75-23.56.88-47.16.64-70.73.37-7.86-.24-15.72-1.03-23.58-.81-2.62.13-5.24.64-7.86.7-7.59.17-16.02.26-23.58.27-7.8.02-23.63-.1-31.44-.19-1.76.04-5.97-.17-7.65-.03-2.2.14-4.19,1.31-5.64,2.97-3.02,3.69-2.6,9,.97,12.21,0,0,11.09,11.14,11.09,11.14,3.62,3.79,7.74,7.08,11.53,10.69,13.37,12.92,31.85,31.17,44.74,44.17,7.46,7.38,14.62,15.04,21.41,23.06,0,0-.18.18-.18.18h0Z"/>
      </g>
      <g class="cls-22">
        <g>
          <path class="cls-14" d="m303.76,227.85l-90.05-88.76c-6.5-6.41-1.96-17.47,7.16-17.47h182.87c9.13,0,13.66,11.07,7.16,17.47l-90.05,88.76c-4.74,4.67-12.36,4.67-17.1,0Z"/>
          <path class="cls-19" d="m303.59,228.03c-12.2-9.96-23.38-21.04-34.65-32.02-13.13-12.76-31.75-31.3-44.37-44.55-1.22-1.45-12.63-11.75-13.42-13.37-2.86-4.06-2.49-9.8.52-13.69,4.3-5.44,9.74-4.51,15.81-4.65,0,0,15.72-.15,15.72-.15,12.34-.03,27.07-.09,39.3.23,2.62.06,5.24.57,7.86.7,5.24.16,10.48-.18,15.72-.44,15.7-.81,31.44-.55,47.15-.57,10.48.11,20.96.03,31.44.57,5.24.28,10.48.65,15.72.73,1.98.06,4.08-.11,6.05.37,3.47.76,6.35,3.43,7.65,6.72,1.33,3.33.99,7.3-1.03,10.29-.61,1.12-3.17,3.53-4.07,4.53-10.58,11.04-22.17,23.04-33.23,33.46-11.37,10.86-22.93,21.52-33.92,32.76-5.48,5.63-10.91,11.32-16.57,16.78-.98.83-3.33,3.33-4.44,4.11-1.75,1.32-3.84,2.18-5.99,2.49-4.14.6-8.69-1.16-11.08-4.48,0,0-.18.18-.18.18h0Zm.18-.18c4.89,3.47,11.11,3.21,15.23-.3,3.13-3.11,6.45-6.54,9.65-9.58,23.17-21.27,44.2-44.71,67.1-66.27,0,0,11.5-10.73,11.5-10.73l2.87-2.68c2.64-2.44,3.66-6.38,2.37-9.76-1.51-4.32-5.69-6.52-10.13-6.14-5.9.01-11.79.43-17.68.75-23.56.88-47.16.64-70.73.37-7.86-.24-15.72-1.03-23.58-.81-2.62.13-5.24.64-7.86.7-7.59.17-16.02.26-23.58.27-7.8.02-23.63-.1-31.44-.19-1.76.04-5.97-.17-7.65-.03-2.2.14-4.19,1.31-5.64,2.97-3.02,3.69-2.6,9,.97,12.21,0,0,11.09,11.14,11.09,11.14,3.62,3.79,7.74,7.08,11.53,10.69,13.37,12.92,31.85,31.17,44.74,44.17,7.46,7.38,14.62,15.04,21.41,23.06,0,0-.18.18-.18.18h0Z"/>
        </g>
      </g>
      <g>
        <circle class="cls-6" cx="246.24" cy="193.25" r="3.21"/>
        <circle class="cls-6" cx="241.47" cy="197.74" r="3.21"/>
        <circle class="cls-6" cx="236.69" cy="202.52" r="3.21"/>
        <circle class="cls-6" cx="251.84" cy="188.57" r="3.21"/>
        <circle class="cls-6" cx="257.08" cy="183.45" r="3.21"/>
      </g>
      <g>
        <circle class="cls-6" cx="236.05" cy="180.5" r="3.21"/>
        <circle class="cls-6" cx="231.27" cy="184.99" r="3.21"/>
        <circle class="cls-6" cx="226.5" cy="189.77" r="3.21"/>
        <circle class="cls-6" cx="241.65" cy="175.82" r="3.21"/>
        <circle class="cls-6" cx="246.88" cy="170.7" r="3.21"/>
      </g>
      <g>
        <circle class="cls-6" cx="378.39" cy="193.25" r="3.21"/>
        <circle class="cls-6" cx="383.16" cy="197.74" r="3.21"/>
        <circle class="cls-6" cx="387.94" cy="202.52" r="3.21"/>
        <circle class="cls-6" cx="372.79" cy="188.57" r="3.21"/>
        <circle class="cls-6" cx="367.55" cy="183.45" r="3.21"/>
      </g>
      <g>
        <circle class="cls-6" cx="388.58" cy="180.5" r="3.21"/>
        <circle class="cls-6" cx="393.36" cy="184.99" r="3.21"/>
        <circle class="cls-6" cx="398.13" cy="189.77" r="3.21"/>
        <circle class="cls-6" cx="382.98" cy="175.82" r="3.21"/>
        <circle class="cls-6" cx="377.75" cy="170.7" r="3.21"/>
      </g>
      <g>
        <path class="cls-15" d="m395.37,149.98c28.96-3.22,32.22-8.56,32.36-12.56.39-11.36-12.75-26.16-36.44-31.84-26.36-6.32-72.2,6.19-78.97,6.19-6.77,0-52.61-12.51-78.97-6.19-23.7,5.68-36.84,20.48-36.44,31.84.14,4,3.4,9.34,32.36,12.56,14.39,1.6,83.05.79,83.05.79,0,0,68.67.81,83.05-.79Z"/>
        <path class="cls-19" d="m395.37,149.98c6.89-2.37,28.73-5.03,30.7-11.57.62-3.49-.52-7.1-2.17-10.27-7.6-13.43-23.9-19.8-38.53-21.85-20.57-1.87-41.52,1.27-61.92,4.57-3.91.54-7.84,1.69-11.82,1.62-6.53-.76-13.04-1.94-19.56-2.64-20.19-2.46-41.5-6.67-61.44-1.45-4.89,1.38-9.7,3.16-14.26,5.4-5.59,2.86-11.3,6.56-14.17,12.33-1.62,3.14-3.27,6.65-3.34,10.16-.23,2.17.64,3.67,2.55,4.87,1.85,1.26,4.23,2.11,6.6,2.87,7.24,2.2,15.13,3.26,22.72,4.13,2.53.24,5.2.4,7.73.51,15.02.73,31.87,1.02,47.02,1.09,7.54.06,15.82-.79,23.54-.68,14.3-.04,40.43.14,54.96.21,7.6,0,15.9.03,23.52.34,0,0,3.92.1,3.92.1,1.31.03,2.61,0,3.92,0l.03.25h0Zm.03.25c-20.82,3.29-41.85,2.33-62.82,2.5-9.1-.14-22.4-.24-31.38-.17-5.24-.06-10.47-.57-15.71-.4-15.25.07-31.98.53-47.17.22-10.68-.25-21.18-1.49-31.53-4.44-11.32-3.45-14.73-8.73-9.39-20.05,1.64-3.03,4.22-5.39,6.59-7.84,6.97-7.26,15.83-12.78,25.54-15.5,15.43-4.53,31.9-2.86,47.58-.62,5.21.76,10.39,1.7,15.5,2.92,6.36,1.43,12.63,3.41,19.09,4.12,3.8,0,7.66-1.11,11.43-1.8,5.13-1.04,10.25-2.19,15.4-3.19,5.02-.96,10.48-1.95,15.56-2.63,21.38-3.12,43.21-1.82,61.13,11.69,6.3,4.91,12.38,11.4,13.79,19.65,1.45,7.25-4.05,10.39-10.04,12.38-7.64,2.4-15.65,3.17-23.61,2.89,0,0,.03.25.03.25h0Z"/>
      </g>
      <g>
        <path class="cls-16" d="m312.31,279.99c-8.2,0-36.66,19.14-36.66,42.76s36.66,47.14,36.66,47.14c0,0,36.66-23.53,36.66-47.14s-28.99-42.76-36.66-42.76Zm0,65.93c-13.09,0-23.71-10.61-23.71-23.71s10.61-23.71,23.71-23.71,23.71,10.61,23.71,23.71-10.61,23.71-23.71,23.71Z"/>
        <g>
          <path class="cls-19" d="m312.31,279.99c-4.8,1.42-8.8,4.63-12.81,7.49-12.04,8.12-23.05,20.87-22.88,36.11.69,19.37,22.32,34.35,36.76,44.63,0,0-2.14,0-2.14,0,1.88-1.24,4.38-2.9,6.32-3.99,2.18-1.27,4.33-2.62,6.21-4.29,1.69-1.86,3.4-3.7,5.2-5.46,7.87-8.58,17.41-18.85,18.6-30.87,1.2-14.33-12-27.79-22.48-36.08-3.91-2.86-7.97-6.28-12.78-7.31,0,0,0-.25,0-.25h0Zm0-.25c9.55.37,20.09,8.59,26.3,15.48,7.03,7.73,11.56,17.98,11.67,28.51,0,5.4-1.79,10.58-4.19,15.24-5.03,9.13-12.44,16.77-20.97,22.57-4.27,3.55-7.9,7.89-12.81,10.7-11.13-7.25-21.13-16.39-28.61-27.39-8.36-11.36-12.08-22.94-5.81-36.39,3.18-7.18,8.33-13.1,13.84-18.57,4.81-4.86,13.52-10.54,20.59-9.9,0,0,0-.25,0-.25h0Z"/>
          <path class="cls-19" d="m312.31,345.92c-3.88,1.19-8.35.59-11.91-1.42-2.03-1.24-3.94-3.07-5.66-4.71-7.66-7.67-9.15-19.67-3.98-29.1,1.09-1.97,2.55-4.31,3.94-6.1,4.89-5.65,12.65-8.91,20.13-7.87,2.47.45,4.63,1.81,6.96,2.63,6.51,1.46,11.89,6.86,14.18,13.06,2.34,6.32,1.57,13.14-.5,19.39-.96,3.15-2.86,6.05-5.14,8.42-4.55,4.79-11.58,7.13-18,5.95,0,0,0-.25,0-.25h0Zm0-.25c7.32-1.36,13.96-5.26,18.31-11.22,2.7-3.49,4.42-7.76,4.04-12.23-.42-6.57-3.81-12.46-8.46-16.94-1.75-1.57-3.26-2.51-5.22-4.01-2.05-.94-4.37-.7-6.54-.74-5-.24-10.09.68-14.46,3.25-1.75,1.09-3.76,2.6-5.27,4.01-7.87,8.28-6.43,22.73,1.63,30.38,2.65,2.6,6.19,3.82,9.47,5.42,2.12.9,4.27,1.57,6.48,2.33,0,0,0-.25,0-.25h0Z"/>
        </g>
      </g>
      <g>
        <path class="cls-7" d="m257.73,138.75c15.91-2.05,13.24-23.34-2.67-21.29-19.7,2.54-31.33,15.65-31.22,16.6.11.98,14.2,7.23,33.9,4.69Z"/>
        <g>
          <path class="cls-8" d="m265.96,116.66c-1.29-5.21-10.25-4.02-17.94-1.9-15.65,4.31-27.44,19.8-26.67,20.21.4.21,5.5-6.61,13.57-11.02,6.48-3.54,14.94-6.03,18.96-6.34,9.02-.69,12.31-.02,12.08-.95Z"/>
          <path class="cls-8" d="m224.04,135.38c.57-.53,14.45,6.52,33.9,3.34,0,0,1.72.77,1.87,2.11.12,1.05-.42,2.12-1.54,2.62-3.88,1.74-12.18,1.09-18.26-.83-8-2.53-16.72-6.55-15.97-7.24Z"/>
        </g>
        <ellipse class="cls-9" cx="257.57" cy="127.91" rx="10.84" ry="9.44" transform="translate(-17.66 44.54) rotate(-9.56)"/>
      </g>
      <g>
        <path class="cls-7" d="m370.11,138.75c-15.91-2.05-13.24-23.34,2.67-21.29,19.7,2.54,31.33,15.65,31.22,16.6-.11.98-14.2,7.23-33.9,4.69Z"/>
        <g>
          <path class="cls-8" d="m361.88,116.66c1.29-5.21,10.25-4.02,17.94-1.9,15.65,4.31,27.44,19.8,26.67,20.21-.4.21-5.5-6.61-13.57-11.02-6.48-3.54-14.94-6.03-18.96-6.34-9.02-.69-12.31-.02-12.08-.95Z"/>
          <path class="cls-8" d="m403.81,135.38c-.57-.53-14.45,6.52-33.9,3.34,0,0-1.72.77-1.87,2.11-.12,1.05.42,2.12,1.54,2.62,3.88,1.74,12.18,1.09,18.26-.83,8-2.53,16.72-6.55,15.97-7.24Z"/>
        </g>
        <ellipse class="cls-9" cx="370.28" cy="127.91" rx="9.44" ry="10.84" transform="translate(182.67 471.81) rotate(-80.44)"/>
      </g>
      <path class="cls-12" d="m312.31,369.96s117.82,67.56,117.82,86.14c0,22.61-.07,59.81,0,57.82h-33.73s2.52-43.12-11.21-59.04c-16.92-19.62-52.17-45.24-72.87-45.24-20.71,0-55.96,25.62-72.87,45.24-13.73,15.92-11.21,59.04-11.21,59.04h-33.73c.07,1.99,0-35.21,0-57.82,0-18.58,117.82-86.14,117.82-86.14Z"/>
      <path class="cls-5" d="m370.21,440.09c-12.99-12.9-42.1-30.96-57.9-30.45-14.27-.39-35.31,12.65-53.24,26.85l-22.17-18.98c18.94-14.85,75.41-47.56,75.41-47.56,0,0,59.46,33.16,74.31,45.94l-16.41,24.19Z"/>
      <g>
        <path class="cls-23" d="m300.43,376.52c-3.45,8.63-3.58,18.88-.39,27.6.88,2.41,2.04,4.72,3.5,6.83.36.53,1.23.03.86-.5-5.22-7.52-6.59-17.46-5.06-26.35.43-2.5,1.1-4.95,2.05-7.31.24-.6-.73-.86-.96-.27h0Z"/>
        <path class="cls-23" d="m288.48,383.65c-3.08,7.94-2.86,17.28.18,25.2.84,2.2,1.92,4.3,3.25,6.25.36.53,1.23.03.86-.5-4.71-6.87-6.32-15.83-5.08-24,.35-2.28.92-4.53,1.76-6.68.23-.6-.73-.86-.96-.27h0Z"/>
        <path class="cls-23" d="m275.65,391.45c-2.9,7.53-1.88,16.7,1.82,23.78,1.04,1.99,2.35,3.85,3.93,5.45.45.46,1.16-.25.71-.71-5.52-5.6-7.7-14.3-6.95-21.98.21-2.15.68-4.27,1.46-6.28.23-.6-.73-.86-.96-.27h0Z"/>
        <path class="cls-23" d="m263.7,399.57c-1.47,7.61.34,15.67,4.74,22.02,1.27,1.83,2.75,3.51,4.41,5.01.48.43,1.19-.28.71-.71-5.57-5.02-9-12.25-9.34-19.75-.1-2.11.05-4.23.45-6.31.12-.63-.84-.9-.96-.27h0Z"/>
        <path class="cls-23" d="m251.85,407.39c-.08,7.3,2.55,14.47,7.15,20.11,1.34,1.64,2.84,3.14,4.48,4.47.5.4,1.21-.3.71-.71-5.53-4.5-9.4-10.89-10.79-17.89-.39-1.97-.57-3.98-.55-5.99,0-.64-.99-.64-1,0h0Z"/>
        <path class="cls-23" d="m242.81,412.84c-.42,2.05-.32,4.17.02,6.22s.97,4.13,2.07,5.92c.34.55,1.2.05.86-.5-1.03-1.66-1.6-3.58-1.94-5.5s-.44-3.95-.05-5.86c.13-.63-.84-.9-.96-.27h0Z"/>
        <path class="cls-23" d="m324.27,377.9c3.37,8.26,3.52,18.03.43,26.4-.86,2.33-2.01,4.54-3.44,6.57-.37.53.49,1.03.86.5,5.31-7.5,6.71-17.44,5.2-26.36-.43-2.53-1.11-5-2.08-7.37-.24-.59-1.21-.33-.96.27h0Z"/>
        <path class="cls-23" d="m336.22,384.88c3,7.59,2.81,16.47-.13,24.05-.82,2.12-1.89,4.14-3.19,6-.37.53.5,1.03.86.5,4.81-6.87,6.43-15.84,5.22-24.06-.34-2.31-.93-4.59-1.79-6.76-.23-.59-1.2-.33-.96.27h0Z"/>
        <path class="cls-23" d="m349.05,392.53c2.81,7.14,1.86,15.85-1.73,22.54-1.01,1.88-2.25,3.62-3.77,5.13-.46.45.25,1.16.71.71,5.68-5.65,8.04-14.49,7.24-22.33-.22-2.16-.69-4.29-1.48-6.32-.23-.59-1.2-.33-.96.27h0Z"/>
        <path class="cls-23" d="m361,400.48c1.42,7.22-.41,14.85-4.65,20.82-1.22,1.73-2.66,3.3-4.24,4.7-.48.43.23,1.13.71.71,5.75-5.08,9.31-12.48,9.64-20.15.09-2.13-.08-4.26-.49-6.34-.12-.63-1.09-.36-.96.27h0Z"/>
        <path class="cls-23" d="m372.81,407.88c.08,7-2.53,13.91-7.05,19.24-1.29,1.52-2.73,2.9-4.29,4.15-.5.4.21,1.1.71.71,5.64-4.5,9.66-10.98,11.07-18.07.39-1.98.58-4,.56-6.02,0-.64-1.01-.64-1,0h0Z"/>
        <path class="cls-23" d="m381.89,413.49c.39,1.88.29,3.86-.05,5.74s-.91,3.76-1.94,5.39c-.34.55.52,1.05.86.5,1.1-1.74,1.73-3.78,2.07-5.8s.43-4.09.02-6.1c-.13-.63-1.09-.36-.96.27h0Z"/>
        <path class="cls-23" d="m311.28,371.96c.3,9.61.6,19.22.91,28.83.09,2.73.17,5.47.26,8.2.02.64,1.02.64,1,0-.3-9.61-.6-19.22-.91-28.83l-.26-8.2c-.02-.64-1.02-.64-1,0h0Z"/>
      </g>
      <path class="cls-10" d="m194.5,474.17s35.12,39.75,33.73,39.75-33.73,1-33.73,0v-39.75Z"/>
      <path class="cls-10" d="m430.13,473.87s-35.12,39.75-33.73,39.75c1.39,0,33.73,1,33.73,0v-39.75Z"/>
      <g>
        <path class="cls-11" d="m195.38,484.75h6.64c.63,0,1.01.7.67,1.22l-7.31,11.36,17.89.8c.53.02.73.7.3,1.01l-17.41,12.38c-.41.29-.16.95.34.89l27.7-3.22"/>
        <path class="cls-11" d="m429.25,484.45h-6.64c-.63,0-1.01.7-.67,1.22l7.31,11.36-17.89.8c-.53.02-.73.7-.3,1.01l17.41,12.38c.41.29.16.95-.34.89l-27.7-3.22"/>
      </g>
      <path class="cls-21" d="m224.88,133.73s7.2-5.33,19.75-8.1c10.38-2.29,23.92,1.05,23.41-.47s-5.01-12.18-24.39-4.86-20.14,12.67-18.77,13.43Z"/>
      <path class="cls-21" d="m402.33,133.73s-7.2-5.33-19.75-8.1c-10.38-2.29-23.92,1.05-23.41-.47s5.01-12.18,24.39-4.86c19.38,7.32,20.14,12.67,18.77,13.43Z"/>
      <path class="cls-1" d="m241.47,109.73s15-1.83,23.56-.61,47.54,7.8,50.45,6.57,39.59-7.41,40.82-6.99-33.78,9.29-41.58,9.06-42.5-6.04-50.14-6.5-22.81.46-23.1-1.53Z"/>
      <path class="cls-21" d="m289.57,252.5s10.44,12.16,24.15,11.32c11.71-.72,22.3-14.37,22.3-14.37,0,0-13.75,21.4-23.07,22.01s-23.38-18.96-23.38-18.96Z"/>
      <polygon class="cls-21" points="232.83 157.92 391.81 157.92 398.71 151.11 225.93 151.11 232.83 157.92"/>
      <path class="cls-1" d="m281.23,214.59s23.69,22.32,31.72,22.62,22.22-16.72,23.07-16-11.23,21.81-23.07,21.2-35.08-25.07-31.72-27.82Z"/>
      <path class="cls-21" d="m286.16,345.33s18,22.13,25.68,22.13c9.17,0,25.94-22.99,25.68-22.36s-9.37,11.76-25.21,11.81c-14.89.04-26.16-11.58-26.16-11.58Z"/>
      <path class="cls-1" d="m296.25,293.17s8.95-8.05,14.22-7.79c6.99.34,10.43,4.35,11.46,3.89s-6.87-6.88-10.55-6.88c-5.27,0-17.77,9.06-15.13,10.78Z"/>
      <path class="cls-2" d="m201.89,454.13s12.26-11.92,18.06-17.43c5.79-5.5,87.12-60.56,93-58.94s20.38,8.96,20.38,8.96c0,0-14.87-5.41-21.56-2.93s-106.67,70.81-109.88,70.35Z"/>
    </g>
  </g>
</svg>