<?xml version="1.0" encoding="UTF-8"?>
<svg xmlns="http://www.w3.org/2000/svg" viewBox="0 0 600 600">
  <defs>
    <style>
      .cls-1 {
        opacity: .33;
      }

      .cls-1, .cls-2 {
        fill: #ababab;
        mix-blend-mode: screen;
      }

      .cls-3, .cls-4 {
        fill: #aa2f2f;
      }

      .cls-5 {
        isolation: isolate;
      }

      .cls-6 {
        stroke: #491615;
        stroke-linecap: round;
        stroke-linejoin: round;
      }

      .cls-6, .cls-4, .cls-7 {
        stroke-width: 3px;
      }

      .cls-6, .cls-8 {
        fill: #231f20;
      }

      .cls-9 {
        fill: #4b1312;
      }

      .cls-4, .cls-7 {
        stroke: #4b1312;
        stroke-miterlimit: 10;
      }

      .cls-10, .cls-11 {
        mix-blend-mode: multiply;
        opacity: .51;
      }

      .cls-11, .cls-12 {
        fill: #5c5c5d;
      }

      .cls-13 {
        fill: #491615;
      }

      .cls-2 {
        opacity: .47;
      }

      .cls-14 {
        fill: #d4d4d3;
        mix-blend-mode: lighten;
        opacity: .13;
      }

      .cls-7 {
        fill: #fff;
      }
    </style>
  </defs>
  <g class="cls-5">
    <g id="Layer_1" data-name="Layer 1">
      <g>
        <path class="cls-3" d="m418.71,301.22c0,23.14-6.73,48.81-16.99,74.4-4.54,11.34-9.8,22.66-15.46,33.74-4.17,8.16-8.57,16.19-13.09,23.99-32.01,55.26-69.87,99.19-74.12,99.19-.07,0-.17-.02-.28-.06-5.16-1.78-42.43-46.1-73.63-101.16-5.3-9.37-10.44-19.04-15.2-28.88-16.51-34.04-28.65-69.94-28.65-101.21,0-28.25,10.01-60.5,24.17-91.82,33.26-73.49,89.51-141.93,93.59-141.93s59.96,67,93.94,139.59c15,32.06,25.71,65.2,25.71,94.16Z"/>
        <path class="cls-9" d="m418.71,301.22c2.53,33.67-10.5,66.3-24.78,96.14-14.63,29.98-31.51,58.83-50.55,86.23-11.23,15.93-22.96,31.64-36.64,45.61-1.94,1.8-3.74,3.78-6.18,5.06-.11.06-.26.12-.45.18-.53.27-1.7.22-2.19-.06-.82-.32-1.64-.98-2.28-1.52-3.73-3.29-6.9-7.15-10.11-10.91-14.19-17.14-26.79-35.49-39.05-54.02-8.68-13.46-18.48-28.51-26.67-42.28-11.3-19.21-20.79-39.49-28.42-60.46-7.02-19.76-12.26-40.54-12.56-61.63-.61-24.06,7.2-47.07,15.03-69.41,2.47-7.99,5.03-15.97,8.55-23.57,5.53-12.78,11.74-25.27,18.47-37.45,16.2-29.19,34.73-57.07,55.42-83.26,3.46-4.36,6.99-8.67,10.64-12.88,3.48-3.76,6.64-8.03,10.97-10.91.18-.07.19-.12.56-.21.31-.07.61-.11.93-.04.37.07.58.16.68.22.33.15.5.28.69.41,1.4,1.04,2.56,2.23,3.69,3.38,6.73,7.08,12.79,14.75,18.78,22.44,39.47,48.68,100.68,145.51,95.45,208.96h0Zm-.31,0c-4.74-62.78-43.36-128.81-78.32-180.07-9.13-13.83-18.79-27.34-29.68-39.87-3.5-4.11-8.06-9.27-11.51-12.13.15,0,.29.02.42-.02.2-.07.06,0,.09-.02-.41.22-.93.73-1.43,1.17-14.29,14.87-26,32.09-37.81,48.95-15.55,22.8-29.9,46.43-42.62,70.93-7.63,14.69-14.37,29.81-21.15,44.89-4.01,10.22-6.84,21.01-8.96,31.78-2.15,11.41-3.62,22.97-3.62,34.57.63,32.33,11.86,63.36,24.86,92.63,9.32,19.99,19.1,39.9,30.48,58.83,16.05,25.69,34.05,50.57,54.76,72.69,1.72,1.72,3.41,3.47,5.39,4.84.05.01.09.03.12.06.07.04-.04-.01-.18-.03-.12,0-.24,0-.36,0-.16.03-.15.03-.16.03-.02.01-.01,0,.03-.02,1.78-1.17,3.34-2.78,4.88-4.33,5.7-5.92,10.95-12.29,16.12-18.7,20.6-25.92,39.77-53.11,56.14-81.94,10.97-19.16,20.21-39.33,27.63-60.1,7.4-20.81,13.05-42.06,15.17-64.14,0,0-.31,0-.31,0h0Z"/>
      </g>
      <g class="cls-10">
        <path class="cls-12" d="m300.04,296.23c-.7,2.77-1.58,5.41-2.53,8-1.57,2.16-3.07,4.36-4.62,6.54l-9.19,13.11c-3.03,4.31-10.86,15.48-13.79,19.66-2.15,1.75-4.29,3.51-6.64,5.12.71-2.76,1.64-5.37,2.55-7.99,2.89-4.13,10.79-15.38,13.79-19.66l9.19-13.11c1.52-2.19,3.08-4.35,4.57-6.57,2.11-1.78,4.29-3.51,6.66-5.1h0Z"/>
      </g>
      <g class="cls-10">
        <path class="cls-12" d="m300,305.63c2.37,1.6,4.55,3.33,6.66,5.1,1.49,2.21,3.05,4.38,4.57,6.57l9.19,13.11c3.03,4.32,10.86,15.48,13.79,19.66.91,2.62,1.84,5.23,2.55,7.99-2.35-1.61-4.49-3.37-6.64-5.12-2.89-4.13-10.79-15.38-13.79-19.66,0,0-9.19-13.11-9.19-13.11-1.54-2.18-3.04-4.38-4.62-6.54-.95-2.59-1.83-5.23-2.53-8h0Z"/>
      </g>
      <path class="cls-1" d="m299.08,436.49s-.1.07-.31.21c-2.11,1.31-15.21,8.24-50.96,2.23-7.89-1.33-15.59-5.14-22.66-10.07-5.3-9.37-10.44-19.04-15.2-28.88,12.06,4.22,27.86,8.83,42.17,10.04,28.72,2.44,46.65-3.12,46.65-3.12l.22,21.28.09,8.3Z"/>
      <g>
        <path class="cls-8" d="m273.79,442.79c-7.64,0-16.33-.81-25.81-2.4-6.97-1.17-14.4-4.46-22.07-9.77-5.08-8.99-9.79-17.87-14-26.45,11.04,3.76,26.28,8.13,40.13,9.31,4.87.41,9.75.62,14.51.62,16.6,0,27.62-2.48,31.24-3.42l.29,27.72c-1.56.92-8.5,4.39-24.29,4.39Z"/>
        <path class="cls-13" d="m213.87,405.88c10.86,3.58,25.07,7.48,38.08,8.59,4.89.42,9.8.63,14.59.63,15.1,0,25.66-2.04,30.26-3.15l.19,18.71.07,7.16c-2.22,1.16-9.06,3.98-23.28,3.98-7.59,0-16.21-.8-25.64-2.39-6.77-1.14-13.99-4.33-21.48-9.48-4.61-8.15-8.9-16.22-12.79-24.05m-3.92-3.45c4.76,9.83,9.9,19.51,15.2,28.88,7.07,4.92,14.77,8.74,22.66,10.07,10.52,1.77,19.08,2.41,25.98,2.41,16.53,0,23.5-3.72,24.99-4.65.21-.14.31-.21.31-.21l-.09-8.3-.22-21.28s-12.06,3.74-32.23,3.74c-4.43,0-9.25-.18-14.42-.62-14.32-1.22-30.12-5.82-42.17-10.04h0Z"/>
      </g>
      <path class="cls-9" d="m299.27,302.1c7.4,7.8,13.83,16.33,20.02,25.06,6.11,8.79,11.94,17.74,16.74,27.36-7.41-7.79-13.83-16.32-20.02-25.06-6.11-8.8-11.94-17.75-16.74-27.36h0Z"/>
      <polygon class="cls-1" points="286.99 279.71 202.02 249.51 200.35 240.31 289.82 274.9 286.99 279.71"/>
      <polygon class="cls-1" points="310.62 279.71 395.58 249.51 397.25 240.31 307.79 274.9 310.62 279.71"/>
      <path class="cls-11" d="m366.46,315.15c23.54-8.72,25.77-47.99,25.77-47.99,0,0-9.96,33.3-25.72,39.95-19.64,8.28-41.94-8.2-41.94-8.2,0,0,15.74,25.94,41.89,16.25Z"/>
      <path class="cls-6" d="m360.32,312.95c28.33-6.83,36.94-68.59,36.94-68.59l-89.47,34.59s21.44,41.5,52.53,34Z"/>
      <path class="cls-14" d="m361.7,310.21c20.27-6.29,29.21-44.92,29.21-44.92,0,0-13.37,35.44-29.76,40.37-20.42,6.14-40.9-10.67-40.9-10.67,0,0,19.65,21.98,41.45,15.21Z"/>
      <path class="cls-11" d="m232.91,315.15c-23.54-8.72-25.77-47.99-25.77-47.99,0,0,9.96,33.3,25.72,39.95,19.64,8.28,41.94-8.2,41.94-8.2,0,0-15.74,25.94-41.89,16.25Z"/>
      <path class="cls-6" d="m238.29,312.95c-28.33-6.83-36.94-68.59-36.94-68.59l89.47,34.59s-21.44,41.5-52.53,34Z"/>
      <path class="cls-14" d="m236.07,310.21c-20.27-6.29-29.21-44.92-29.21-44.92,0,0,13.37,35.44,29.76,40.37,20.42,6.14,40.9-10.67,40.9-10.67,0,0-19.65,21.98-41.45,15.21Z"/>
      <path class="cls-9" d="m300.04,293.85c-4.81,9.61-10.64,18.56-16.74,27.36-6.18,8.74-12.61,17.27-20.02,25.06,4.8-9.62,10.63-18.57,16.74-27.36,6.19-8.74,12.62-17.27,20.02-25.06h0Z"/>
      <path class="cls-1" d="m401.71,372.68c-4.54,11.34-9.8,22.66-15.46,33.74h-87.49v-33.74h102.94Z"/>
      <g>
        <path class="cls-8" d="m299.77,408.36v-31.74h100.46c-4.1,10.11-9,20.78-14.59,31.74h-85.87Z"/>
        <path class="cls-13" d="m398.75,377.62c-3.9,9.5-8.51,19.49-13.71,29.74h-84.26v-29.74h97.97m2.97-2h-102.94v33.74h87.49c5.66-11.07,10.91-22.39,15.46-33.74h0Z"/>
      </g>
      <path class="cls-9" d="m299.05,67.47c3.04,19.38.77,38.76,1.22,58.13.06,9.69.37,19.38.52,29.07.93,29.07-2.34,58.16-.23,87.2.88,21.79.64,43.6.37,65.4-.24,7.26-1.03,14.53-.81,21.8.13,2.42.64,4.84.7,7.27l.14,7.27c.39,22.28-.17,50.22-.57,72.67,0,0-.14,14.53-.14,14.53-.16,4.84.39,9.69.49,14.53.06,16.82.25,41.47-.05,58.13-.12,9.69-.15,19.38-1.39,29.07h-.5c-1.23-9.69-1.26-19.38-1.39-29.07-.3-16.59-.11-41.23-.05-58.13.1-4.84.64-9.69.49-14.53l-.14-14.53c-.4-22.53-.97-50.33-.57-72.67,0,0,.14-7.27.14-7.27.06-2.42.57-4.84.7-7.27.22-7.27-.57-14.54-.81-21.8-.27-21.8-.51-43.61.37-65.4,2.11-29.04-1.16-58.13-.23-87.2.16-9.69.47-19.38.52-29.07.45-19.38-1.82-38.76,1.22-58.13h0Z"/>
      <path class="cls-7" d="m393,210.06l-22.74,13.77-.2.12-71.29,43.2-1.35-.8-.14-.07-6.59-3.87c-.36-.21-.72-.42-1.09-.63l-28.95-16.99c-.85-.5-1.68-1.01-2.53-1.5l-52.66-30.9c.06-.15.14-.28.2-.43.02-.06.05-.11.07-.17,3.99-8.75,8.27-17.42,12.77-25.92.04-.05.06-.1.09-.15,3.03-5.72,6.15-11.37,9.32-16.88.04-.07.09-.15.12-.22,6.83-11.87,13.86-23.22,20.76-33.68h0c.06-.09.11-.17.16-.25,9.24-14.06,18.19-26.56,25.94-36.71,13.03-17.1,22.57-27.54,24.16-27.54,1.41,0,9.65,8.77,21.2,23.4,8.08,10.23,17.78,23.34,27.88,38.32,7.15,10.56,14.49,22.06,21.62,34.14,3.34,5.66,6.63,11.43,9.83,17.31,4.71,8.64,9.22,17.49,13.41,26.42Z"/>
      <g>
        <path class="cls-4" d="m320.26,93.87s-21.24,173.29-21.48,173.29-23.88-169.15-23.88-169.15c13.03-17.1,22.57-27.54,24.16-27.54,1.41,0,9.65,8.77,21.2,23.4Z"/>
        <path class="cls-4" d="m369.76,166.33s-69.42,99.31-70.36,98.96,48.74-133.1,48.74-133.1c7.15,10.56,14.49,22.06,21.62,34.14Z"/>
        <path class="cls-4" d="m393,210.06l-22.74,13.77-.2.12s-69.81,43.04-70.41,42.36,79.94-82.67,79.94-82.67c4.71,8.64,9.22,17.49,13.41,26.42Z"/>
        <path class="cls-4" d="m298.78,266.84c-.86.32-59.75-82.35-70.88-97.98.04-.07.09-.15.12-.22,6.83-11.87,13.86-23.22,20.76-33.68,7.43,19.18,50.85,131.55,49.99,131.88Z"/>
        <path class="cls-4" d="m296.81,265.62c-.11.12-2.41-1.1-6.11-3.2-.36-.21-.72-.42-1.09-.63-6.95-3.98-18-10.48-28.95-16.99-.85-.5-1.68-1.01-2.53-1.5-16.62-9.91-32.33-19.35-32.33-19.35l-.2-.12-19.86-12.03c3.99-8.75,8.27-17.42,12.77-25.92,13.05,13.09,78.84,79.13,78.3,79.74Z"/>
      </g>
      <path class="cls-1" d="m300.28,427.68s18.96,13.66,33.36,13.66c20.34,0,38.03-9.04,38.03-9.04l-11.31,15.56-31.8,4.89-28.28-14.06v-11.01Z"/>
      <g>
        <path class="cls-8" d="m299.77,432.47c4.8,3.46,19.97,13.19,38.84,13.19,10.13,0,23.41-5.63,31.98-9.88-29.95,51-64.18,91.23-70.82,95.41v-98.72Z"/>
        <path class="cls-13" d="m300.77,434.4c6.27,4.27,20.32,12.25,37.84,12.25,9.2,0,20.88-4.52,29.44-8.54-17.11,28.76-34.02,51.57-42.89,62.99-11.81,15.2-20.44,24.55-24.39,28v-94.7m-2-3.96v102.02c.11.04.21.06.28.06,4.25,0,42.11-43.93,74.12-99.19-7.96,4.15-23.31,11.31-34.56,11.31-21.26,0-37.56-12.39-39.62-14.02-.15-.12-.22-.18-.22-.18h0Z"/>
      </g>
      <path class="cls-2" d="m299.19,79.51c-.36-1.67-22.7,26.3-18.55,32.65,3.69,5.66,21.42-19.17,18.55-32.65Z"/>
    </g>
  </g>
</svg>