<?xml version="1.0" encoding="UTF-8"?>
<svg xmlns="http://www.w3.org/2000/svg" viewBox="0 0 600 600">
  <defs>
    <style>
      .cls-1, .cls-2 {
        fill: #fff;
      }

      .cls-3 {
        fill: #26302a;
      }

      .cls-2 {
        stroke-miterlimit: 10;
      }

      .cls-2, .cls-4 {
        stroke: #231f20;
      }

      .cls-5 {
        isolation: isolate;
      }

      .cls-4 {
        fill: #f5f5f5;
        stroke-width: 4px;
      }

      .cls-4, .cls-6 {
        stroke-linecap: round;
        stroke-linejoin: round;
      }

      .cls-7 {
        fill: #a3a3a3;
        mix-blend-mode: screen;
        opacity: .51;
      }

      .cls-8, .cls-6 {
        fill: #3f4f44;
      }

      .cls-6 {
        stroke: #26302a;
        stroke-width: 5px;
      }

      .cls-9 {
        opacity: .47;
      }

      .cls-9, .cls-10, .cls-11, .cls-12 {
        fill: #7f7f7f;
        mix-blend-mode: multiply;
      }

      .cls-13 {
        fill: #5f5156;
      }

      .cls-10 {
        opacity: .31;
      }

      .cls-11 {
        opacity: .34;
      }

      .cls-14 {
        fill: #9a5859;
      }

      .cls-15 {
        fill: #e3cfd7;
      }

      .cls-12 {
        opacity: .79;
      }

      .cls-16 {
        fill: #231f20;
      }
    </style>
  </defs>
  <g class="cls-5">
    <g id="Layer_1" data-name="Layer 1">
      <path class="cls-6" d="m308.47,59.82s29.72,74.89,30.58,101.8c.77,23.98-20.88,92.53-20.88,92.53h-35.33s22.32-47.54,25.63-86.89c4.31-51.35,0-107.44,0-107.44Z"/>
      <path class="cls-12" d="m331.33,94.1s-6.21,49.55-13.69,82.1c-10.2,44.4-31.64,79.79-31.64,79.79h41.49l14.75-78.33s-4.4-84.33-10.91-83.57Z"/>
      <g>
        <path class="cls-15" d="m385.88,394.14c-.59,0-1.18.05-1.76.14v-55.29s-13.36-73.06-85.41-73.06-85.41,73.06-85.41,73.06v55.56c-.96-.25-1.93-.41-2.94-.41-9.32,0-16.87,11.33-16.87,25.31s7.55,25.31,16.87,25.31c1,0,1.98-.16,2.94-.41v26.47c0,13.35,85.41,86.95,85.41,86.95,0,0,85.41-77.14,85.41-92.3v-20.84c.58.09,1.16.14,1.76.14,9.32,0,16.87-11.33,16.87-25.31s-7.55-25.31-16.87-25.31Z"/>
        <path class="cls-13" d="m385.88,394.14l-1.72.36c-.14.03-.25-.08-.26-.22-1.93-17.82-1.99-38.35-1.62-54.95-4.91-24.18-18.95-47.49-40.57-60.13-22.26-12.77-51.38-14.37-75.19-5.03-17.47,7.11-31.51,20.95-40.71,37.29-4.82,7.89-8.86,20.36-10.49,27.53.58,18.25.49,37.37.63,55.61.04,1.71-1.7,3-3.32,2.51-4.61-1.34-9.5,1.73-12.29,6.37-5.71,9.31-5.72,22.64-.26,32.1,2.58,4.57,7.34,8.48,12.81,7.21,1.02-.33,2.08.5,2.02,1.56-.26,7.76-.67,15.55.15,23.29.17,1.49.19,3.39.53,4,.45,1.09,1.18,2.35,1.97,3.56,4.25,6.27,9.6,11.74,14.84,17.32,8.59,8.88,17.44,17.56,26.46,26.03,13.52,12.77,27.22,25.38,41.09,37.77,0,0-2.53.03-2.53.03,4.59-4.05,9.15-8.16,13.7-12.28,8.96-8.38,18.17-16.52,26.56-25.47,3.76-4.04,8.84-9.51,12.66-13.34,10.36-10.98,21.32-21.88,29.42-34.64.97-1.78,1.94-3.35,2.09-5.26-.08-.7.13-19.47.07-20.73,0-1.33,1.22-2.38,2.54-2.17,11.09,1.03,16.16-12.87,16.37-22.16.42-10.02-3.25-24.35-14.95-25.83,0,0,0-.31,0-.31h0Zm0-.31c12.89-.09,18.96,15.54,18.74,26.54.13,11.69-6.9,27.98-20.83,26.42,0,0,2.54-2.17,2.54-2.17-.01,1.18.08,19.96.07,20.73-.04,2.83-1.47,5.31-2.73,7.54-1.65,2.79-3.52,5.31-5.43,7.79-7.67,9.77-16.19,18.68-24.82,27.56-4.27,4.45-8.76,8.66-13.34,12.78-9.1,8.28-17.67,17.1-26.68,25.49-4.44,4.25-8.9,8.48-13.41,12.68-.7.66-1.78.67-2.5.06-9.52-8.05-18.97-16.15-28.24-24.48-18.42-16.84-37.31-33.39-52.78-53.12-2.25-3.24-5.03-6.53-5.22-10.78.59-5.72.92-11.45.71-17.19-.06-3.11-.14-6.21-.28-9.32l2.02,1.56c-5.05,1.65-10.65-.4-14.35-3.97-10.26-10.42-10.83-29.04-3.46-41.26,3.19-5.27,8.9-9.57,15.35-9.16.95.07,1.87.24,2.73.47l-3.32,2.56c.05-9.26.06-18.52.17-27.78.09-8.18.12-19.88.46-27.96,1.44-5.18,3.52-9.97,5.71-14.72,4.41-9.25,9.42-18.21,15.65-26.36,16.22-21.55,39.32-34.19,66.52-34.09,33.08-.31,60.1,17.41,75.52,46.28,4.92,9.17,9.12,18.76,11.32,29,.25,18.47.34,36.97-1.65,55.36,0,0-.26-.22-.26-.22l1.79.08v-.31h0Z"/>
      </g>
      <path class="cls-13" d="m380.3,426.36c1.47,4.29,3.5,8.39,8.59,6.53,5.78-1.93,8.73-9.39,8.64-15.24-.12-6.32-5.69-12.96-12.57-10.78,4.3-3.31,10.61-1.13,13.52,3.17,3.26,4.18,3.57,10.17,1.9,15.06-1.58,4.94-5.31,9.84-10.73,10.84-6.51,1.43-9.7-3.75-9.34-9.57h0Z"/>
      <path class="cls-13" d="m216.19,426.36c.36,5.81-2.83,11-9.34,9.57-5.43-.99-9.16-5.9-10.73-10.84-1.67-4.89-1.36-10.88,1.9-15.06,2.91-4.29,9.22-6.48,13.52-3.17-6.88-2.17-12.44,4.46-12.57,10.78-.09,5.86,2.86,13.32,8.64,15.24,5.09,1.86,7.12-2.24,8.59-6.53h0Z"/>
      <rect class="cls-4" x="242.45" y="448.97" width="113.01" height="41.57"/>
      <g>
        <g>
          <circle class="cls-14" cx="242.45" cy="425.63" r="12.73"/>
          <path class="cls-13" d="m255.18,425.63c.17,9.18-9.37,16.39-18.27,13.38-12.85-4.21-12.84-22.54,0-26.75,8.9-3,18.44,4.19,18.27,13.37h0Zm0,0c.15-6.7-6.15-12.38-12.73-11.49-13.57,1.92-13.56,21.04,0,22.96,6.58.9,12.88-4.77,12.73-11.47h0Z"/>
        </g>
        <g>
          <circle class="cls-14" cx="354.97" cy="425.63" r="12.73"/>
          <path class="cls-13" d="m367.7,425.63c.17,9.18-9.37,16.37-18.27,13.37-12.84-4.21-12.85-22.54,0-26.75,8.9-3.01,18.45,4.2,18.27,13.38h0Zm0,0c.15-6.7-6.15-12.37-12.73-11.47-13.56,1.92-13.57,21.04,0,22.96,6.58.89,12.88-4.79,12.73-11.49h0Z"/>
        </g>
      </g>
      <path class="cls-11" d="m315.46,423.17c0,21.58-28.93,21.58-28.93,0s15.72-61.98,15.72-61.98c0,0,13.21,40.39,13.21,61.98Z"/>
      <g>
        <path class="cls-14" d="m313.17,418.9c0,21.58-28.93,21.58-28.93,0s15.72-61.98,15.72-61.98c0,0,13.21,40.39,13.21,61.98Z"/>
        <path class="cls-13" d="m313.42,418.9c-.29,22.83-31.03,22.11-30.49-.76,0,0,.09-3.61.09-3.61l.33-3.57c1.63-14.17,5.58-27.89,9.76-41.47,1.42-4.52,2.86-9,4.5-13.48.76-2.23,4.12-2.13,4.74.13,6.93,20.18,10.8,41.43,11.07,62.76h0Zm-.5,0c-.31-10.59-3.42-20.83-6.42-30.91,0,0-8.94-30.29-8.94-30.29l4.74.13c-5.86,14.52-19.86,52.51-15.97,66.9,2.45,9.21,14.22,12.9,21.51,6.62,3.64-2.99,5.13-7.85,5.07-12.45h0Z"/>
      </g>
      <g>
        <ellipse class="cls-1" cx="254.89" cy="364.13" rx="22.95" ry="11.13"/>
        <path class="cls-16" d="m278.04,364.13c-.32,4.97-5.12,8.09-9.17,10.17-8.71,4.27-19.04,2.86-27.74-.59-13.46-4.73-13.71-15.12-.42-20.32,9.02-3.37,19.4-3.58,28.17.53,4.04,2.1,8.88,5.22,9.16,10.22h0Zm-.4,0c-.79-9.8-22.11-9.4-29.3-8.55-5.33.66-18.1,3.89-14.67,11.35,2.96,4.78,9.21,6.37,14.53,6.73,6.66.21,13.32-.41,19.82-1.76,4.03-.93,9.37-2.96,9.63-7.77h0Z"/>
      </g>
      <g>
        <ellipse class="cls-1" cx="342.52" cy="364.13" rx="22.95" ry="11.13"/>
        <path class="cls-16" d="m365.67,364.13c-.32,4.97-5.12,8.09-9.17,10.17-8.71,4.27-19.04,2.86-27.74-.59-13.46-4.73-13.71-15.12-.42-20.32,9.02-3.37,19.4-3.58,28.17.53,4.04,2.1,8.88,5.22,9.16,10.22h0Zm-.4,0c-.79-9.8-22.11-9.4-29.3-8.55-5.33.66-18.1,3.89-14.67,11.35,2.96,4.78,9.21,6.37,14.53,6.73,6.66.21,13.32-.41,19.82-1.76,4.03-.93,9.37-2.96,9.63-7.77h0Z"/>
      </g>
      <circle class="cls-16" cx="261.03" cy="364.13" r="10.64"/>
      <circle class="cls-2" cx="263.89" cy="364.13" r="4.03"/>
      <circle class="cls-16" cx="348.56" cy="364.21" r="10.64"/>
      <circle class="cls-2" cx="351.43" cy="364.21" r="4.03"/>
      <g>
        <rect class="cls-16" x="250.73" y="448.97" width="8.62" height="41.57"/>
        <rect class="cls-16" x="268.31" y="448.97" width="8.62" height="41.57"/>
        <rect class="cls-16" x="285.89" y="448.97" width="8.62" height="41.57"/>
        <rect class="cls-16" x="303.47" y="448.97" width="8.62" height="41.57"/>
        <rect class="cls-16" x="321.05" y="448.97" width="8.62" height="41.57"/>
        <rect class="cls-16" x="338.62" y="448.97" width="8.62" height="41.57"/>
      </g>
      <polygon class="cls-9" points="375.84 347.45 377.81 352.71 384.12 349.39 381.96 343.44 375.84 347.45"/>
      <path class="cls-9" d="m207.5,349.27l17.89,10.24s19.73-42.7,32.71-43.25c14.64-.61,35.44,30.1,41.91,30.1s27.19-29.5,43.55-29.35c11.91.11,30.88,43.57,30.88,43.57l15.46-10.85-34.92-55.64h-114.36l-33.11,55.18Z"/>
      <path class="cls-9" d="m365.18,364.69c0-6.14-10.27-11.13-22.95-11.13s-22.95,4.98-22.95,11.13c0,0,10.38-5.56,22.95-5.56,14.76,0,22.95,5.56,22.95,5.56Z"/>
      <path class="cls-9" d="m277.84,364.69c0-6.14-10.27-11.13-22.95-11.13s-22.95,4.98-22.95,11.13c0,0,10.38-5.56,22.95-5.56,14.76,0,22.95,5.56,22.95,5.56Z"/>
      <g>
        <path class="cls-8" d="m301.05,338.92s30.4-34.1,43.77-31.95,31.48,43.95,31.48,43.95l10.4-4.65s11.39,56.75,11.09,73.17c-.69,38.37-11.09,116.78-11.09,116.78,0,0,50.27-74.97,50.27-142.08,0-56.89-29.02-94.78-55.11-119.33-6.52-6.13-32.25-19.92-32.25-19.92,0,0,7.94-37.94,7.94-87.63,0-56.25-25.86-119.02-25.86-119.02,0,0,.38,82.39-4.31,120.56-4.31,35.07-26.08,77.18-26.08,77.18h-2.58s-21.77-42.11-26.08-77.18c-4.69-38.17-4.31-120.56-4.31-120.56,0,0-25.86,62.78-25.86,119.02,0,49.69,7.94,87.63,7.94,87.63,0,0-25.73,13.79-32.25,19.92-26.09,24.54-55.11,62.43-55.11,119.33,0,67.12,50.27,142.08,50.27,142.08,0,0-10.4-78.41-11.09-116.78-.3-16.42,11.09-73.17,11.09-73.17l10.4,4.65s18.14-41.81,31.48-43.95c13.38-2.15,43.77,31.95,43.77,31.95h2.09Z"/>
        <path class="cls-3" d="m301.28,338.65c8.28-9.84,30.31-34.56,43.72-33.28,13.29,2.38,27.71,32.97,33.15,44.75,0,0-2.66-1.03-2.66-1.03l10.4-4.65c1.01-.46,2.19,0,2.64,1,3.22,15.8,5.9,31.71,8.3,47.68,1.33,9.93,2.97,19.98,2.42,30.06-.16,5.65-.61,12.34-1.01,17.98-2.36,31.86-5.94,63.59-9.86,95.29,0,0-3.08-1.16-3.08-1.16,17.93-28.48,32.55-59.42,41.84-91.81,13.76-46.28,8.87-94.33-18.62-134.62-7.98-11.81-17.45-22.62-27.78-32.52-4.32-3.88-9.37-6.84-14.29-9.93-5.77-3.51-11.64-6.9-17.55-10.19-.6-.32-.9-1-.77-1.64,5.98-34.23,8.97-69.63,6.61-104.29-1.47-17.34-4.86-34.51-9.17-51.41-4.35-16.84-9.68-33.59-16.08-49.74,0,0,4.56-.91,4.56-.91-.05,38.05-.13,76.12-3.4,114.08-.39,3.98-.98,8.89-1.62,12.73-2.97,16.87-8.49,33.08-14.95,48.86-3.25,7.87-6.71,15.58-10.58,23.23-.44.86-1.31,1.36-2.22,1.35,0,0-2.58,0-2.58,0h-.04c-.95,0-1.77-.55-2.17-1.35-6.66-13.38-12.37-27.07-17.03-41.24-3.28-10.11-6.01-20.46-7.69-30.98-2.36-16.88-2.67-33.74-3.52-50.69-.33-8.44-.96-16.87-1.4-25.31-.89-16.88-.85-33.77-.98-50.68,0,0,4.67.93,4.67.93-1.59,3.99-3.08,8.12-4.52,12.23-12.66,36.94-22.09,75.73-20.99,114.98.35,17.45,1.49,34.9,3.61,52.23,1.05,8.65,2.32,17.34,3.95,25.82.21,1-.29,2-1.14,2.45-5.95,3.18-11.88,6.47-17.68,9.9-4.96,3.01-10.03,5.89-14.39,9.69-20.28,18.84-37.27,41.7-46.44,67.97-14.25,40.08-8.98,79.33,6.04,118.28,9.4,25.24,21.56,49.63,36.13,72.27,0,0-4.01,1.52-4.01,1.52-2.07-15.85-3.98-31.69-5.72-47.57-1.95-17.83-3.69-35.79-4.77-53.73-.3-5.98-.69-12.16-.59-18.12.14-4.13.58-8.12,1.07-12.12,2.54-19.86,6.34-39.5,10.22-59.1.24-1.25,1.64-1.97,2.8-1.44,0,0,10.39,4.69,10.39,4.69l-2.62,1.02c1.91-4.28,3.94-8.43,6.09-12.56,5.56-10.26,11.24-20.89,20.18-28.69,4.43-3.82,9.06-4.42,14.34-2.03,6.51,2.86,12.04,7.41,17.32,11.99,6.92,6.19,13.33,12.86,19.41,19.83l-.27-.12,1.96.08h.36Zm-.53.57l-.69.02c-.76-.02-1.12.15-1.37-.08-6.35-6.65-13.05-13-20.16-18.79-5.3-4.22-10.77-8.45-17.06-10.94-4.39-1.81-7.73-1.25-11.24,1.95-5,4.46-8.69,10.25-12.21,15.97-4.66,7.82-8.83,16.03-12.51,24.36-.44,1-1.61,1.45-2.61,1.01l-10.42-4.61,2.8-1.44c-3.73,19.53-7.31,39.12-9.8,58.83-1.48,9.79-.99,19.62-.38,29.45,2.25,33.74,6.13,67.44,10.39,100.98.18,1.21-.68,2.34-1.89,2.49-.86.11-1.67-.3-2.12-.98-14.75-23.05-27.02-47.59-36.43-73.28-19.39-53.82-19.87-108.9,13.16-157.54,8.18-12.08,17.82-23.11,28.36-33.15,4.54-4.09,9.86-7.19,15-10.38,5.85-3.54,11.76-6.91,17.76-10.19l-1.14,2.45c-3.42-17.35-5.47-34.86-6.85-52.47-3.21-35.13-.79-71.03,8.45-105.18,4.41-17.14,9.7-33.92,16.3-50.38.5-1.24,1.92-1.83,3.16-1.33.94.38,1.51,1.3,1.51,2.26-.19,16.85.17,33.71.02,50.57-.42,21.01.44,42.19,2.68,63.09,2.07,20.86,9.1,40.83,17.05,60.11,3.23,7.71,6.68,15.41,10.43,22.82l-2.21-1.35h2.58s-2.22,1.34-2.22,1.34c7.41-14.91,13.81-30.57,18.85-46.46,3.8-11.9,6.55-24.14,7.62-36.57,1.93-20.94,2.65-41.95,3.18-63,.4-16.86.6-33.74.6-50.6,0-1.31,1.06-2.36,2.36-2.36.99,0,1.85.62,2.2,1.49,3.29,8.27,6.13,16.58,8.81,25,5.94,18.87,10.82,38.3,13.79,57.87,5.22,32.79,2.73,66.16-1.18,98.89-1.14,8.74-2.46,17.41-4.21,26.1,0,0-.78-1.65-.75-1.63,10.55,5.67,21.19,11.24,30.91,18.31,11.66,10.14,21.89,21.92,30.79,34.6,28.72,41.6,33.73,90.29,19.38,138.21-7.63,26.26-19.11,51.27-32.6,74.99-3.39,5.93-6.9,11.75-10.7,17.49-.51.78-1.56.99-2.34.48-.56-.37-.82-1.02-.74-1.64,2.15-15.79,4.05-31.62,5.82-47.46,1.99-17.8,3.74-35.68,4.77-53.55.27-5.79.66-12.08.51-17.8-.15-3.88-.61-7.83-1.1-11.75-2.64-19.71-6.44-39.26-10.3-58.77,0,0,2.78,1.43,2.78,1.43l-10.4,4.65c-1.01.45-2.2,0-2.65-1.01-3.72-8.31-7.84-16.56-12.55-24.35-3.86-6.12-10.24-16.91-17.41-18.83-11.93-.96-34.96,22.19-43.77,30.67h0Z"/>
      </g>
      <path class="cls-10" d="m243.88,465.27s25.44-8.39,54.31-8.39,55.15,8.39,55.15,8.39v-14.19l-109.45-.48v14.68Z"/>
      <path class="cls-7" d="m186.02,332.58s11.92-28.2,30.17-47.46c14.49-15.3,38.1-26.4,38.7-22.48s-18.89,13.54-34.44,29.45c-14.75,15.09-30.31,41.87-34.44,40.5Z"/>
      <path class="cls-7" d="m252.52,133.09s-5.5,31.18-4.13,52.97,8.41,68.1,9.86,68.1c3.67,0-4.27-41.59-5.73-67.64-1.38-24.54,2.39-53.43,0-53.43Z"/>
      <path class="cls-7" d="m254.47,111.28c-2.79,2.17-4.18,15.59-1.22,13.99s1.81-3.75,2.27-6.92.43-8.21-1.05-7.07Z"/>
      <path class="cls-7" d="m317.85,106.83c4.15,3.48,4.33,22.18-.18,19.45s-2.33-5.48-2.59-9.92.57-11.37,2.77-9.53Z"/>
      <path class="cls-7" d="m307.4,254.34s20.77-39.67,25.79-64.17c4.28-20.9,3.82-57.48,3.82-57.48,2.07-1.48,8.26,38.41,3.45,60.82-6.79,31.62-29.87,64.26-33.05,60.82Z"/>
      <path class="cls-7" d="m297.46,378.67s-4.87,11.57-6.79,18.6-3.85,18.5-2.38,18.54c1.95.06,2.82-9.34,5.39-18,2.7-9.12,5.59-18.69,3.78-19.15Z"/>
      <path class="cls-7" d="m235.32,425.63s0-5.84,4.2-8.15c4.84-2.66,9.79.71,9.79.71,0,0-5.12-.15-8.71,1.22-2.37.91-5.45,6.38-5.27,6.22Z"/>
      <path class="cls-7" d="m346.97,425.63s0-5.84,4.2-8.15c4.84-2.66,9.79.71,9.79.71,0,0-5.12-.15-8.71,1.22-2.37.91-5.45,6.38-5.27,6.22Z"/>
    </g>
  </g>
</svg>