<?xml version="1.0" encoding="UTF-8"?>
<svg xmlns="http://www.w3.org/2000/svg" viewBox="0 0 600 600">
  <defs>
    <style>
      .cls-1 {
        stroke: #2e1312;
        stroke-width: 3px;
      }

      .cls-1, .cls-2, .cls-3, .cls-4 {
        stroke-miterlimit: 10;
      }

      .cls-1, .cls-5 {
        fill: #e5b1d1;
      }

      .cls-6 {
        fill: #2f1110;
      }

      .cls-7 {
        fill: #cd9ebb;
      }

      .cls-2 {
        fill: #fff;
      }

      .cls-2, .cls-4 {
        stroke: #231f20;
      }

      .cls-8 {
        isolation: isolate;
      }

      .cls-9 {
        fill: #cccccb;
      }

      .cls-9, .cls-10 {
        mix-blend-mode: screen;
        opacity: .53;
      }

      .cls-11 {
        fill: #efe923;
      }

      .cls-12 {
        opacity: .93;
      }

      .cls-13 {
        opacity: .35;
      }

      .cls-13, .cls-14, .cls-15, .cls-16 {
        fill: #231f20;
      }

      .cls-13, .cls-14, .cls-16 {
        mix-blend-mode: darken;
      }

      .cls-3 {
        fill: #67999b;
        stroke: #b3dae9;
        stroke-width: .5px;
      }

      .cls-17 {
        fill: #42c2f0;
      }

      .cls-18 {
        fill: #2e1312;
      }

      .cls-19 {
        fill: #ba8faa;
      }

      .cls-20 {
        fill: #b2dae9;
      }

      .cls-21 {
        fill: #f8a01e;
      }

      .cls-22 {
        fill: none;
      }

      .cls-10 {
        fill: #ababab;
      }

      .cls-14 {
        opacity: .16;
      }

      .cls-4 {
        fill: #1d9368;
      }

      .cls-23 {
        fill: #ef442a;
      }

      .cls-24 {
        fill: #dba9c8;
      }

      .cls-16 {
        opacity: .22;
      }
    </style>
  </defs>
  <g class="cls-8">
    <g id="Layer_1" data-name="Layer 1">
      <g>
        <polygon class="cls-17" points="391.35 220.13 420.88 214.95 421.45 249.19 383.75 249.19 383.75 223.36 391.35 220.13"/>
        <path class="cls-18" d="m391.71,219.85c4.12-3.14,9.34-2.65,14.14-3.45,5.65-1.01,11.15-2.92,16.87-3.62.36,6.42-1.16,12.86-.73,19.28,1.29,5.6,1.61,11.35,1.58,17.1,0,0,0,2.2,0,2.2l-2.11-.06-4.71-.14c-2.35-.02-4.69-.97-7.07-.95-.79-.04-1.57.54-2.36.72-1.57.16-3.14.23-4.71.29-6.29.15-12.57-.27-18.85-.68,0,0-1.41-.08-1.41-.08.05-2.57.44-5.18.07-7.73-.25-1.08-.41-2.15-.38-3.23-.1-5.75-.19-11.59.13-17.33,3.15-1.23,6.15-2.13,9.55-2.33h0Zm-.08.35c-2.24,1.93-4.59,3.51-7.24,4.67,0,0,1-1.51,1-1.51.21,4.3.19,8.61.13,12.92,0,0-.05,3.23-.05,3.23.03,2.15-.78,4.29-.49,6.46.02,1.08.08,2.15.13,3.23l-1.35-1.35c6.28-.41,12.56-.83,18.85-.68,1.57.06,3.14.13,4.71.29.79.18,1.57.76,2.36.72,2.38.02,4.72-.93,7.07-.95l4.71-.14-2.1,2.14c-.22-5.74-.1-11.5,1-17.14.25-5.72-1.25-11.4-1.33-17.1,0,0,2.18,1.8,2.18,1.8-4.87.96-9.93,1.01-14.82,1.9-5.01.97-9.42,3.09-14.75,1.52h0Z"/>
      </g>
      <g>
        <path class="cls-21" d="m413.39,157.11c-.27,6.26-5.99,18.98-5.99,18.98-1.12,2.6-148.43,30.31-154.98,30.65-6.13.32-44.24,1.9-61.35-5.06-.02.02-.03,0-.05-.02-1.15-.47-2.2-.97-3.15-1.52-4.77-2.79-7.98-8.81-8.98-16.93-1.52-12.17,1.92-29,12.37-46.49,1.95-3.27,4.16-6.58,6.63-9.88,2.75-3.69,5.83-7.38,9.26-11.02.37-.4.77-.82,1.15-1.22,2.37-2.45,4.84-4.81,7.41-7.03,23.07-20.06,53.82-30.81,83.55-30.71,2.57,0,5.14.1,7.7.27,3.49.23,6.96.62,10.38,1.17,2.55.4,5.06.88,7.56,1.45,6.68,1.55,13.15,3.72,19.31,6.53,43.03,19.61,69.44,64.55,69.17,70.83Z"/>
        <path class="cls-6" d="m413.64,157.12c-.24,6.77-2.63,13.24-4.98,19.52-.2.52-.87.91-1.27,1.07-3.02,1.2-6.14,1.85-9.23,2.64-26.63,6.33-53.97,11.42-80.89,16.41-16.53,2.27-35.18,6.41-51.65,9.49-4.26.7-10.7,2.25-15.03,2.41-10.05.49-20.1.61-30.17.07-10.18-.68-20.38-1.43-30.06-5.26,0,0,2.07-.41,2.07-.41-.18.18-.59.5-1.19.55-.58.05-.97-.15-1.15-.26-.36-.23-.38-.3-.41-.32l.63.42c-.88-.37-1.77-.78-2.63-1.26-6.57-3.29-8.41-10.65-9.59-17.28-3.79-22.38,6.47-44.52,20.01-61.78,9.17-11.53,20.38-21.71,33.37-28.69,27.37-14.54,59.24-23.49,90.17-17.19,27.39,5.06,50.46,22.94,69.39,42.57,7.49,8.05,14.32,16.86,19.16,26.78,1.47,3.31,3.28,6.83,3.21,10.53,0,0,.25.01.25.01h0Zm-.25-.01c-.93-3.5-3.18-6.45-5.03-9.51-1.97-3.01-4.01-5.98-6.12-8.89-14.59-20.44-32.75-39.12-55.87-49.67-16.17-7.7-34.33-10.68-52.15-10.52-21.5.39-43.51,5.92-61.32,18.28-8.86,6.12-17.33,12.75-24.55,20.75-9.67,10.48-17.76,22.53-22.97,35.83-5.32,14.42-11.89,38.84,6.36,46.52,0,0,.92.36.92.36l-.29.06s-.01-.05-.36-.28c-.17-.1-.55-.3-1.13-.25-.59.05-.99.36-1.16.54l2.07-.41c9.08,3.27,19.18,4.06,28.85,4.76,11.08.5,22.24.86,33.35.1,6.6-.9,19.15-3.01,25.86-4.11,9.84-1.75,19.73-3.25,29.49-5.43,4.86-1.17,9.74-2.28,14.66-3.18,22.52-4.47,51.07-9.99,73.45-14.75,3.01-.69,6.24-1.36,9.04-2.23,0,0-.04.04-.04.04.02,0-.06.05-.15.16-.07.07-.15.25-.15.27l.03-.05.1-.21c1.65-3.54,3.5-7.4,4.85-11.06.88-2.31,1.68-4.67,2.02-7.11h.25Z"/>
      </g>
      <g>
        <path class="cls-17" d="m369.27,337.14s-9.08,28.33-13.07,35.23c-3.99,6.9-7.99,14.89-7.99,14.89,0,0-26.87.36-29.42,0-2.54-.36-1.74-29.42,9.66-38.13,11.4-8.72,40.82-11.98,40.82-11.98Z"/>
        <path class="cls-18" d="m369.23,336.9c.65,4.78-1.15,9.31-2.95,13.62-3.87,8.31-4.91,17.86-10.19,25.53-2.5,3.97-5.28,7.83-7.44,12.02-4.89-.53-9.74,1.46-14.63,1.27-4.75.21-9.43.29-14.29,0-.58-.06-1.39-.05-1.96-.35-.58-.3-1.03-.86-1.26-1.39-1.33-3.32-.03-6.42.14-9.71.21-1.22-.44-2.47-.45-3.67.62-9.51,3.51-20.57,11.71-26.4,1.52-.99,3.22-1.91,4.84-2.71,1.12-.49,2.22-.97,3.24-1.68,5.84-3.08,12.53-4.4,18.92-5.74,4.72-.83,9.54-1.61,14.32-.79h0Zm.22.04c-.14.15-.47.36-.48.56l-.1.04-.43.16c-1.91.7-3.99,1.47-5.96,1.92-7.41,1.6-14.88,3.19-22.07,5.5-1.61.68-3.38.82-5.02,1.44-2.11.87-4.06,2.09-5.85,3.47-6.54,5.75-8.12,16.39-9.8,24.59-.27,1.11-1.12,2.2-1.04,3.4-.06,2.57.64,5.53,1.37,7.87-.13-.25-.61-.58-.97-.61-.08,0,0,0,0,0h.08c4.46.02,10.4,0,14.81.16,4.72-.24,9.47,1.54,14.19,1.03l-.69.43c1.98-4.11,3.55-8.42,5.56-12.54,2.06-3.88,4.05-8.01,5.86-12.02,1.9-4.11,3.61-8.32,4.7-12.74,1.24-4.51,2.5-9.18,5.83-12.66h0Z"/>
      </g>
      <g>
        <path class="cls-5" d="m395.41,502.8c-1.14-10.28-4.36-19.95-9.2-28.54-.23-.43-.48-.85-.73-1.27-5.44-9.28-12.82-17.28-21.57-23.44-7.8-5.49-16.69-9.51-26.28-11.67-2.1-6.04-3.9-12.59-3.9-17.3,0-16.29,17.8-32.62,17.8-33.16s-61.56-.29-61.56,0c0,.36,17.73,16.36,17.73,33.16,0,4.85-1.78,11.47-3.85,17.53-9.35,2.26-18.02,6.29-25.63,11.71-6.13,4.39-11.58,9.66-16.14,15.67-2.29,2.99-4.36,6.16-6.16,9.48-2.92,5.31-5.21,11-6.78,16.99-.4,1.5-.77,3.04-1.05,4.57-.95,4.79,1.65,9.73,1.65,14.79h139.43c2.39-2.19,6.55-5.73,6.23-8.53Z"/>
        <path class="cls-18" d="m395.16,502.83c-4.62-30.15-28.04-56.45-57.86-63.5,0,0-.84-.21-.84-.21-1.75-5.53-3.42-11.16-3.87-17-.52-13.84,8.78-25.58,17.43-35.43.05-.06.14-.18.07-.08l-.04.08c-.09.16-.2.46-.18.79.65,1.95,1.14,1.3,1.08,1.49l.14.04c-5.66-.16-24.34.1-30.46.1-9.91.06-19.99-.06-29.91-.04,0,0-.31,0-.31,0h-.14s-.04,0-.04,0c.03,0-.05.02.19-.04.84-.02,1.71-2.89,1.09-2.29-.24-.44-.09-.16-.16-.28-.05-.06-.02-.03-.02-.03l.07.08.21.23.92,1c3.77,4.05,7.23,8.47,9.8,13.4,2.81,4.87,5.47,9.78,6.59,15.43,1.63,7.86-1.13,15.82-3.55,23.18-24.44,5.38-45.3,23.8-53.89,47.3-1.26,3.84-2.71,7.83-2.86,11.89.06,3.98,1.81,7.97,1.86,12.38l-.75-.75c17.39-.18,52.33-.29,69.71-.34,17.43.18,34.86-.66,52.29-.38,5.81.12,11.62.38,17.43.72l-.51.2c2.08-1.74,4.28-3.29,5.84-5.51.48-.73.91-1.54.9-2.47l-.25.03h0Zm.25-.03c.3,1.87-.95,3.6-2.02,5.03-1.13,1.46-2.43,2.78-3.7,4.06l-.18.18-.33.02c-23.22,1.59-46.47.13-69.71.33-17.36-.06-52.36-.17-69.71-.34,0,0-.76,0-.76,0v-.74c.05-4.91-2.8-10.36-1.5-15.62,3.86-19.85,15.44-38.09,32.47-49.26,7.12-4.74,15.08-8.28,23.43-10.26l-1.4,1.28c2.09-6.65,4.47-13.41,3.91-20.44-.5-5.16-2.48-10.38-5.36-14.76-3.16-4.32-6.63-8.41-10.39-12.24,0,0-.96-.97-.96-.97l-.26-.26-.16-.17s-.05-.05-.13-.16c-.08-.14.05.12-.21-.35-.64.57.23-2.32,1.11-2.34.44-.09.65-.09,1.05-.12,17.26-.7,34.58-.65,51.85-.32,1.88.09,6.39.15,8.24.3.42.06.85.02,1.34.19-.04.2.48-.44,1.15,1.53,0,.46-.12.73-.3,1.02-2.84,3.18-5.84,6.18-8.38,9.58-5.21,6.88-10.02,15.12-9.53,23.99.45,5.3,2.24,10.43,4.06,15.44,0,0-1.08-.96-1.08-.96,23.27,4.65,43.63,21.61,52.52,43.61,2.94,7.25,4.68,14.96,5.18,22.74,0,0-.25.03-.25.03h0Z"/>
      </g>
      <g>
        <path class="cls-11" d="m318.79,387.25c1.83.27,76.62-44.67,76.62-103.5,0-50.11-2.54-50.84-2.54-50.84,0,0-47.57,5.81-76.99,16.7-29.42,10.89-62.46,34.14-62.46,37.4s1.82,31.96,14.89,46.85c13.07,14.89,33.05,25.89,34.14,28.74,1.09,2.85,6.54,23.19,16.34,24.64Z"/>
        <path class="cls-18" d="m318.79,387.25c1.38-.74,3.37-2.45,4.68-3.4,10.58-8.23,21.57-16.07,31.47-25.13,11.17-10.41,20.73-22.71,27.9-36.16,7.16-13.37,11.9-28.07,11.58-43.52.12-3.86.12-7.72.11-11.57.07-10.55-1.06-21.1-2.71-31.5-.1-.68-.29-1.42-.48-1.97.02.02.08.14.14.2.03.03.06.07.09.1-.07-.05.48.42.77.44l.76.06c-11.39,1.64-22.78,3.6-34.11,5.72-7.03,1.28-14.16,2.88-21.16,4.34-4.24.83-8.5,1.64-12.66,2.8-5.69,1.18-10.56,4.58-15.9,6.6-18.12,8.44-35.97,18.14-51.78,30.42-.92.76-1.94,1.67-2.59,2.59.02-.07.04-.14.04-.22,0-.13,0,.1,0,.11.14,6.94,1.14,13.87,2.7,20.63,1.67,7.97,5.35,15.41,9.8,22.17,9.01,11.63,21.66,19.69,33.26,28.56,1.29,1.11,2.9,2.14,3.45,3.92,2.12,6.67,4.42,13.66,8.3,19.5,1.6,2.24,3.61,4.33,6.37,5.05l-.04.25h0Zm-.04.25c-9.97-1.28-14.9-15.74-17.73-23.96,0,0-.08-.22-.08-.22l-.04-.11s0,.02,0,.02c.04.06-.04-.04-.1-.11-.15-.17-.37-.38-.61-.59-4.98-3.98-10.47-7.47-15.62-11.48-8.03-6.36-16.28-13.04-21.76-21.89-2.34-3.78-3.94-8.03-5.14-12.29-3.02-9.73-5.23-19.75-5.75-29.95.13-1.29,1.08-2.19,1.83-3.04,11.28-10.51,24.74-18.32,38.19-25.65,5.17-2.71,10.46-5.19,15.88-7.39,2.71-1.09,5.42-2.22,8.34-2.76,2.91-.53,5.62-1.6,8.39-2.48,21.88-8.03,45.04-11.72,68.1-14.57,0,0,.15-.02.15-.02l.61.08c.68.24.96.58,1.23,1.01.28.57.48,1.16.58,1.72.7,3.43.79,6.93.83,10.4-.11,9.7-.16,19.35.19,29.03.34,9.66.84,19.68-1.56,29.18-5.37,23.2-21.45,41.84-38.06,58.07-11.02,10.79-23.45,21.7-37.86,27.01h0Z"/>
      </g>
      <g>
        <path class="cls-11" d="m392.87,232.91s-.36-63.19-61.37-56.29c-61.01,6.9-148.67,51.41-147.94,67.03.73,15.62,19.75,15.77,39,13.23,19.25-2.54,140.73-19.31,140.73-19.31l29.59-4.66Z"/>
        <path class="cls-18" d="m392.83,232.74c-6.66-34.91-19.81-58.55-59.44-54.45-20.96,2.53-41.74,7.21-61.74,14.04-7.12,2.37-13.96,5.47-20.67,8.81-8.97,4.35-18.04,8.45-26.84,13.13-8.77,4.66-17.47,9.52-25.54,15.17-4.7,3.58-10.06,6.94-13.2,11.99-.53.93-.78,1.93-.64,2.99.07,1.74.52,3.45,1.31,4.99,1.39,2.6,4.17,3.82,6.81,4.78,6.79,2.44,14.19,2.01,21.4,1.52,8.43-.71,21.09-2.65,29.69-3.65,17.24-2.25,42.69-4.61,59.51-7.99,28.69-3.9,60.6-9.02,89.36-11.34h0Zm0,.39c-19.22,4.95-39.39,7.68-59.12,10.32,0,0-29.77,3.97-29.77,3.97-4.97.58-10.01.72-14.94,1.56-16.6,2.37-42.8,6.59-59.4,8.96-12.16,1.56-36.56,6.24-44.25-5.81-2.1-3.06-3.53-7.12-2.7-10.76,2.35-6.6,8.36-11.18,13.62-15.17,16.44-11.71,34.7-20.73,53.54-27.86,6.86-2.4,14.5-4.88,21.32-7.47,16.49-5.93,33.27-11.84,50.63-14.74,14.95-2.69,31.27-2.78,44.84,4.9,18,10.07,28.51,31.75,26.23,52.1h0Z"/>
      </g>
      <path class="cls-1" d="m228.73,208.25c2.91-.36,18.52,1.42,21.42,16.31,2.16,11.08,0,28.57,0,28.57,0,0-41.14,6.03-45.54,6.03-1.06,0-20.29,1.72-22.11-13.23-1.98-16.24,46.22-37.68,46.22-37.68Z"/>
      <path class="cls-23" d="m338.58,148.8s-59.69-10.77-67.05,17.35c-4.15,15.85,13.44,20.89,13.44,20.89l39.44-18.98,14.17-13.01v-6.25Z"/>
      <g>
        <path class="cls-23" d="m316.83,386.69c-24.37.44-59.77,7.27-81.4-27.64-20.53-33.14-2.47-59.35,9.38-83.5,3.25-6.63,13.38-.61,11.02,3.94-12.87,24.69-23.26,44.54-9.87,69.81,10.63,20.04,31.51,27.3,60.54,24.3,0,0,2.54,4.99,4.17,7.52,2.79,4.35,7.16,5.55,6.17,5.57Z"/>
        <path class="cls-18" d="m316.83,386.69c-7.07,1.08-14.11,2-21.27,2.33-7.17.37-14.39-.57-21.46-1.9-14.23-2.54-27.55-10.55-35.93-22.4-10.93-14.58-15.5-33.24-11.5-51.13,2.36-10.53,7.08-20.46,11.86-30,0,0,4.92-9.63,4.92-9.63.6-1.01,1.55-1.92,2.67-2.49,4.18-2.05,9.49.68,11,4.87,1.09,3.07-1.84,5.57-2.73,8.27-1.23,3.35-2.81,6.52-4.24,9.74-8.29,18.48-12.72,35.8-2.85,54.66,1.83,3.4,4.04,6.71,6.68,9.52,9.53,9.64,23.39,13.22,36.62,13.92,4.94.28,10.98.11,15.9-.13.5-.02.93.27,1.13.7,2.26,4.71,3.99,10.06,8.73,12.86,0,0,.45.3.45.3.15.11.36.2.41.42.02.09,0,.19-.1.27-.21.11-.22.06-.29.07v-.25h0Zm0-.25s.1-.04-.03.03c-.08.07-.09.15-.08.22,0,.04.03.07.04.1,0,.01,0,0-.01,0l-.21-.11c-5.6-2.22-8.29-7.59-11.18-12.49,0,0,1.27.69,1.27.69-1.78.24-3.56.45-5.35.65-12.56,1.04-25.91-.03-37.18-6.06-7.18-3.98-13.29-9.95-17.68-16.87-12.77-20.41-10.06-39.24.75-59.66,2.21-4.86,5.56-9.17,7.7-14.03.45-1.06-.29-2.32-1.45-3.18-2.12-1.64-5.67-2.02-6.86.72-.15.26-.72,1.49-.89,1.8-.68,1.46-2.89,5.62-3.64,7.14-7.99,15.3-16.9,31.78-14.76,49.57,2.29,16.93,13.27,33.65,27.75,42.66,5.93,3.66,12.64,5.94,19.5,7.2,6.9,1.31,13.95.97,20.98,1.13l10.62.13c3.56.07,7.13.19,10.7.6v-.25h0Z"/>
      </g>
      <g>
        <path class="cls-20" d="m412.12,194.79c-5.09,12.7-21.1,24.12-21.1,24.12,0,0-21.85-42.65-47.59-39.38-25.74,3.27-50.86,12.12-58.46,7.51,0,0,.37-.4,1.07-1.12,1.37-1.4,3.99-4.04,7.58-7.34.27-.23.53-.48.82-.75,2.17-1.97,4.67-4.16,7.43-6.43.27-.23.53-.45.82-.68,2.59-2.1,5.38-4.29,8.33-6.44.32-.23.63-.47.97-.7,2.57-1.85,5.24-3.67,8.01-5.41.35-.22.7-.43,1.07-.65,2.65-1.64,5.38-3.19,8.15-4.59.4-.2.82-.42,1.22-.62,3-1.47,6.06-2.79,9.13-3.86h.02c.25-.1.48-.18.73-.27,3.27-1.12,6.54-1.95,9.8-2.45.15-.02.3-.05.45-.07.28-.03.55-.08.83-.1,3.32-.43,6.74-.55,10.18-.42.57.02,1.14.05,1.72.1,3,.17,6.04.53,9.01,1.05,19.2,3.27,36.69,12.54,39.81,17.61,2.45,4.01,5.07,18.16,0,30.88Z"/>
        <path class="cls-18" d="m412.12,194.79c-2.44,7.87-8.02,14.43-14.03,19.89-2.07,1.8-4.2,3.48-6.48,5.05-.45.33-1.09.22-1.41-.24-7.57-14.41-20.64-32.7-36.51-38.25-4.91-1.8-10.01-1.33-15.09-.47-7.69,1.16-15.29,2.78-22.83,4.72-5.05,1.2-10.12,2.35-15.28,3.25-5.33.73-11.14,2.12-16.26-.45-.8-.45-.96-1.58-.32-2.24.98-1.08,2-2.05,3.02-3.04l3.05-2.96c4.96-5.05,10.82-9.06,16.5-13.24,2.23-1.72,4.17-3.86,6.57-5.37,2.13-1.4,4.84-3.54,6.96-4.87,6.11-3.88,12.56-7.54,19.57-9.6,0,0-.54.1-.54.1l.79-.28c7.72-2.64,15.62-3.33,23.73-2.6,15.2,1.48,37.19,6.9,48.49,17.52,2.27,2.38,2.92,5.96,3.47,9.02,1.23,8.19.16,16.69-3.22,24.1l-.17-.07h0Zm-.17-.07c2.49-7.66,2.69-15.85,1.24-23.55-.64-2.74-1.12-5.61-3.05-7.66-3.47-3.38-7.88-5.68-12.28-7.85-14.2-6.87-30.52-11.15-46.3-8.83-3.56.49-7.35,1.52-10.8,2.73-.33.11-.85.37-1.2.35,0,0,.48-.08.48-.08-7.75,2.87-15.21,6.76-22.16,11.28-5.87,3.76-11.9,7.38-16.77,12.44-4.95,4.79-10.24,9.59-15.06,14.48,0,0-.32-2.24-.32-2.24,4.35,2.06,9.67.95,14.36.49,5.09-.71,10.18-1.72,15.28-2.62,7.18-1.17,15.91-2.87,23.05-3.98,2.57-.38,5.12-.84,7.81-.9,5.33-.06,10.54,1.78,15.07,4.46,13.53,8.29,22.73,21.77,30.6,35.22,0,0-1.48-.36-1.48-.36,6.16-5.04,12.17-10.42,17.21-16.62,1.65-2.1,3.17-4.3,4.47-6.68l-.17-.07h0Z"/>
      </g>
      <g>
        <path class="cls-17" d="m391.02,218.92l-31.37,19.15,35.14,11.12s-.51-9.54-.91-16.28c-.27-4.55-2.87-14-2.87-14Z"/>
        <path class="cls-18" d="m390.75,219.59c-4.44,2.68-10.94,7.44-15.28,10.43-2.41,1.91-5.06,2.6-7.7,4.06-2.6,1.48-4.97,3.49-7.26,5.38l-.36-2.96c6.14.99,11.68,3.83,17.42,6.05,5.68,2.43,11.67,3.85,17.64,5.35,0,0-1.75,1.36-1.75,1.36-.23-2.54-.5-5.08-.19-7.65.3-5.09-.09-10.11-1.23-15.09-.46-2.03-1.16-5.19-1.65-7.19,0,0-.03-.12-.03-.12,0,.07.22.37.41.37h0Zm.54-1.36c.38.2.49.61.58.95.08.28.33,1.09.4,1.39,1.15,4.36,2.28,8.75,2.47,13.29.14,2.55.23,5.1.74,7.63.74,3.16.6,6.44.69,9.65-6.36-2.36-12.63-5.03-19.3-6.44-5.97-1.48-12.13-2.35-17.73-5.07,0,0-3.43-1.6-3.43-1.6,3.83-1.75,8-3.31,11.49-5.55,2.58-1.71,5.15-4.22,7.99-5.51,4.69-2.51,11.58-5.97,16.08-8.73h0Z"/>
      </g>
      <g>
        <path class="cls-23" d="m395.28,265.7s-10.57,22.1-29.75,32.12c-19.18,10.02-31.82,1.42-31.82,1.42l7.29,19.82s6.56-15.35,24.53-16.46,25,7.48,25,7.48c0,0,4.91-16.35,4.88-26.33-.04-9.98-.13-18.05-.13-18.05Z"/>
        <path class="cls-18" d="m395.24,265.9c-1.39,6.45-5.67,11.74-9.96,16.54-6.41,7.34-13.61,14.78-22.95,18.35-6.22,2.34-13.01,3.07-19.56,2.11-3.35-.54-6.72-.94-9.79-2.57,0,0,1.98-1.54,1.98-1.54,1.37,3.25,2.62,6.54,3.88,9.83,1.26,3.29,2.45,6.6,3.61,9.92,0,0-2.84-.07-2.84-.07,2.1-4.77,6.14-7.98,10.13-11.02,1.79-1.97,3.8-3.18,6.24-4.22,9.97-3.97,23.64-2.6,32.39,3.72,1.03.75,1.97,1.52,2.88,2.57l-1.58.32c.6-1.76.97-3.6,1.22-5.44,1.1-5.42,2.44-10.87,2.93-16.37.41-3.58.2-6.99.49-10.52.21-3.73.86-7.64.93-11.59h0Zm.09-.25c.69,7.3,1.9,15.21,1.19,22.63-.68,5.68-1.72,11.24-3.37,16.68-.68,1.77-1.28,3.54-1.74,5.39-.17.67-1.07.88-1.53.37-4.06-4.16-10.09-5.84-15.74-6.47-3.44-.32-7.02-.34-10.45.12-4.65.46-8.84,2.46-13.03,4.35-2.92,2-4.8,5.09-6.65,8.01-.62.94-1.19,2.01-1.6,2.94-.35.78-1.26,1.13-2.03.78-.39-.17-.67-.49-.81-.85-1.27-3.28-2.51-6.58-3.68-9.9-1.18-3.32-2.35-6.64-3.41-10-.29-.71.06-1.54.81-1.76.41-.13.85-.03,1.16.22,1.8,1.31,3.98,2.44,6.15,3.12,10.18,2.69,20.48-2.17,28.97-7.46,5.38-3.36,10.35-7.56,14.27-12.57,4.01-5.16,7-10.73,11.49-15.6h0Z"/>
      </g>
      <g>
        <path class="cls-23" d="m414.84,174.75l-31.03,32.36s1.61,2.25,3.29,5.02,3.92,6.78,3.92,6.78c0,0,14.73-9.71,21.09-24.13,4.12-9.35,2.88-17.39,2.72-20.03Z"/>
        <path class="cls-18" d="m414.81,174.79c-4.68,6.25-10.09,11.24-15.31,16.9-5.06,5.29-10.45,10.35-14.88,16.2,0,0,.1-1.43.1-1.43,2.73,3.7,5.61,7.59,7.42,11.83,0,0-1.83-.45-1.83-.45,1.42-.67,3.12-1.28,4.07-2.64,1.81-2.02,3.82-3.88,5.65-5.86,3.66-3.91,7.63-7.73,10.13-12.56,2.84-6.41,3.82-13.4,4.37-20.34,0,0,.06-.83.06-.83.01-.13.01-.3.05-.35.06-.1.15-.3.18-.46h0Zm.14-.12c2.14,6.49,1.54,13.87-1.57,19.95,0,0-3.25,5.93-3.25,5.93-3.24,5.92-7.57,11.3-13.11,15.21-.83.76-2.05,1.02-2.84,1.82-1.08.96-2.12,2.16-3.25,3.16-2.7-2.93-4.22-6.69-6.3-10.02-.37-.62-1.87-3.22-2.21-3.79,1.53-1.56,3.25-2.95,4.88-4.35,5.37-5.23,10.51-11.21,15.87-16.51,3.72-3.74,7.53-8.38,11.79-11.38h0Z"/>
      </g>
      <g class="cls-12">
        <g>
          <circle class="cls-22" cx="259.19" cy="102.31" r="13.82"/>
          <path class="cls-18" d="m259.19,89.48c7.07,0,12.82,5.75,12.82,12.82s-5.75,12.82-12.82,12.82-12.82-5.75-12.82-12.82,5.75-12.82,12.82-12.82m0-2c-8.19,0-14.82,6.64-14.82,14.82s6.64,14.82,14.82,14.82,14.82-6.64,14.82-14.82-6.64-14.82-14.82-14.82h0Z"/>
        </g>
        <g>
          <circle class="cls-22" cx="259.19" cy="102.31" r="5.37"/>
          <path class="cls-18" d="m259.19,97.94c2.41,0,4.37,1.96,4.37,4.37s-1.96,4.37-4.37,4.37-4.37-1.96-4.37-4.37,1.96-4.37,4.37-4.37m0-2c-3.52,0-6.37,2.85-6.37,6.37s2.85,6.37,6.37,6.37,6.37-2.85,6.37-6.37-2.85-6.37-6.37-6.37h0Z"/>
        </g>
        <g>
          <circle class="cls-22" cx="240.08" cy="160.59" r="11.75"/>
          <path class="cls-18" d="m240.08,149.85c5.92,0,10.75,4.82,10.75,10.75s-4.82,10.75-10.75,10.75-10.75-4.82-10.75-10.75,4.82-10.75,10.75-10.75m0-2c-7.04,0-12.75,5.71-12.75,12.75s5.71,12.75,12.75,12.75,12.75-5.71,12.75-12.75-5.71-12.75-12.75-12.75h0Z"/>
        </g>
        <g>
          <path class="cls-22" d="m240.08,165.07c-2.47,0-4.47-2.01-4.47-4.47s2.01-4.47,4.47-4.47,4.47,2.01,4.47,4.47-2.01,4.47-4.47,4.47Z"/>
          <path class="cls-18" d="m240.08,157.12c1.92,0,3.47,1.56,3.47,3.47s-1.56,3.47-3.47,3.47-3.47-1.56-3.47-3.47,1.56-3.47,3.47-3.47m0-2c-3.02,0-5.47,2.45-5.47,5.47s2.45,5.47,5.47,5.47,5.47-2.45,5.47-5.47-2.45-5.47-5.47-5.47h0Z"/>
        </g>
        <g>
          <path class="cls-22" d="m193.76,200.93c-.83,0-1.64-.07-2.42-.22-1.13-.46-2.1-.93-2.97-1.43-4.48-2.61-7.48-8.3-8.47-16.01,1.55-6.42,7.22-10.89,13.86-10.89,7.87,0,14.27,6.4,14.27,14.27s-6.4,14.27-14.27,14.27Z"/>
          <path class="cls-18" d="m193.76,173.38c7.32,0,13.27,5.95,13.27,13.27s-5.95,13.27-13.27,13.27c-.73,0-1.45-.06-2.14-.18-1.04-.43-1.94-.87-2.75-1.33-4.17-2.43-6.99-7.78-7.96-15.09,1.49-5.78,6.83-9.95,12.84-9.95m0-2c-7.24,0-13.32,5.06-14.87,11.84,1,8.11,4.21,14.14,8.98,16.93.95.55,2,1.05,3.16,1.52.01.01.02.02.04.02,0,0,0,0,.01,0,.87.17,1.77.25,2.69.25,8.43,0,15.27-6.83,15.27-15.27s-6.84-15.27-15.27-15.27h0Z"/>
        </g>
        <g>
          <circle class="cls-22" cx="193.77" cy="186.66" r="5.56"/>
          <path class="cls-18" d="m193.77,182.1c2.51,0,4.56,2.05,4.56,4.56s-2.05,4.56-4.56,4.56-4.56-2.05-4.56-4.56,2.05-4.56,4.56-4.56m0-2c-3.62,0-6.56,2.94-6.56,6.56s2.94,6.56,6.56,6.56,6.56-2.94,6.56-6.56-2.94-6.56-6.56-6.56h0Z"/>
        </g>
        <g>
          <path class="cls-22" d="m205.62,142.17c-4.96,0-9.7-2.02-13.11-5.57,1.88-3.1,3.96-6.18,6.18-9.16,2.84-3.8,5.93-7.48,9.19-10.93.37-.4.76-.81,1.13-1.2,2.23-2.31,4.51-4.49,6.79-6.49,5.05,3.4,8.04,9,8.04,15.11,0,10.05-8.18,18.23-18.23,18.23Z"/>
          <path class="cls-18" d="m215.87,110.11c4.39,3.25,6.97,8.32,6.97,13.84,0,9.5-7.73,17.23-17.23,17.23-4.43,0-8.67-1.71-11.85-4.72,1.75-2.85,3.67-5.67,5.72-8.41,2.82-3.77,5.88-7.42,9.14-10.86.34-.37.72-.76,1.08-1.14l.04-.04c2.01-2.08,4.07-4.06,6.13-5.9m-.16-2.52c-2.57,2.22-5.04,4.57-7.41,7.03-.38.4-.78.82-1.15,1.22-3.44,3.64-6.51,7.33-9.26,11.02-2.47,3.31-4.67,6.61-6.63,9.88,3.51,3.96,8.65,6.44,14.36,6.44,10.62,0,19.23-8.61,19.23-19.23,0-6.91-3.66-12.97-9.13-16.36h0Z"/>
        </g>
        <g>
          <path class="cls-22" d="m205.62,131.21c-2.83,0-5.41-1.67-6.59-4.22,2.63-3.49,5.47-6.87,8.46-10.06,3.15.83,5.39,3.7,5.39,7.01,0,4-3.26,7.26-7.26,7.26Z"/>
          <path class="cls-18" d="m207.79,118.07c2.42.89,4.09,3.21,4.09,5.87,0,3.45-2.81,6.26-6.26,6.26-2.24,0-4.3-1.22-5.41-3.11,2.38-3.12,4.92-6.14,7.58-9.02m-.64-2.24c-3.44,3.64-6.51,7.33-9.26,11.02,1.17,3.12,4.19,5.36,7.73,5.36,4.56,0,8.26-3.71,8.26-8.26,0-4.02-2.89-7.39-6.73-8.11h0Z"/>
        </g>
        <g>
          <path class="cls-22" d="m350.88,138.51c-10.05,0-18.23-8.18-18.23-18.23s8.18-18.24,18.23-18.24,18.24,8.18,18.24,18.24-8.18,18.23-18.24,18.23Z"/>
          <path class="cls-18" d="m350.88,103.04c9.5,0,17.24,7.73,17.24,17.24s-7.73,17.24-17.24,17.24-17.23-7.73-17.23-17.24,7.73-17.24,17.23-17.24m0-2c-10.62,0-19.23,8.61-19.23,19.24s8.61,19.24,19.23,19.24,19.24-8.61,19.24-19.24-8.61-19.24-19.24-19.24h0Z"/>
        </g>
        <g>
          <path class="cls-22" d="m350.88,127.54c-4,0-7.26-3.26-7.26-7.26s3.26-7.26,7.26-7.26,7.26,3.26,7.26,7.26-3.26,7.26-7.26,7.26Z"/>
          <path class="cls-18" d="m350.88,114.02c3.45,0,6.26,2.81,6.26,6.26s-2.81,6.26-6.26,6.26-6.26-2.81-6.26-6.26,2.81-6.26,6.26-6.26m0-2c-4.56,0-8.26,3.7-8.26,8.26s3.7,8.26,8.26,8.26,8.26-3.7,8.26-8.26-3.7-8.26-8.26-8.26h0Z"/>
        </g>
        <g>
          <circle class="cls-22" cx="301.9" cy="121.42" r="13.65"/>
          <path class="cls-18" d="m301.9,108.77c6.97,0,12.65,5.67,12.65,12.65s-5.67,12.65-12.65,12.65-12.65-5.67-12.65-12.65,5.67-12.65,12.65-12.65m0-2c-8.09,0-14.65,6.56-14.65,14.65s6.56,14.65,14.65,14.65,14.65-6.56,14.65-14.65-6.56-14.65-14.65-14.65h0Z"/>
        </g>
        <g>
          <path class="cls-22" d="m301.9,126.71c-2.92,0-5.29-2.37-5.29-5.29s2.37-5.29,5.29-5.29,5.29,2.37,5.29,5.29-2.37,5.29-5.29,5.29Z"/>
          <path class="cls-18" d="m301.9,117.13c2.37,0,4.29,1.92,4.29,4.29s-1.92,4.29-4.29,4.29-4.29-1.92-4.29-4.29,1.92-4.29,4.29-4.29m0-2c-3.47,0-6.29,2.82-6.29,6.29s2.82,6.29,6.29,6.29,6.29-2.82,6.29-6.29-2.82-6.29-6.29-6.29h0Z"/>
        </g>
        <g>
          <path class="cls-22" d="m311.93,91.58c-6.6,0-11.97-5.36-11.97-11.95,0-.6.04-1.18.13-1.75,2.15.02,4.38.1,6.8.26,3.52.24,6.98.62,10.29,1.16,2.24.35,4.43.76,6.69,1.26-.47,6.15-5.67,11.03-11.94,11.03Z"/>
          <path class="cls-18" d="m300.99,78.88c1.85.03,3.78.11,5.84.25,3.49.23,6.92.62,10.21,1.15,1.92.3,3.81.65,5.74,1.06-.83,5.22-5.39,9.24-10.84,9.24-6.05,0-10.97-4.91-10.97-10.95,0-.25,0-.5.02-.74m-1.72-2.01c-.2.88-.3,1.8-.3,2.75,0,7.16,5.81,12.95,12.97,12.95s12.9-5.73,12.97-12.82c-2.5-.57-5.01-1.05-7.56-1.45-3.42-.55-6.89-.93-10.38-1.17-2.55-.17-5.12-.27-7.7-.27h0Z"/>
        </g>
        <g>
          <path class="cls-22" d="m311.93,84.18c-2.51,0-4.56-2.04-4.56-4.56,0-.49.08-.97.23-1.44,3.03.22,6.01.56,8.88,1,.01.14.02.29.02.44,0,2.51-2.05,4.56-4.58,4.56Z"/>
          <path class="cls-18" d="m308.39,79.25c2.41.19,4.78.46,7.09.8-.21,1.76-1.72,3.14-3.55,3.14-1.96,0-3.56-1.6-3.56-3.56,0-.13,0-.25.02-.38m-1.44-2.11c-.37.75-.58,1.59-.58,2.49,0,3.07,2.49,5.56,5.56,5.56s5.58-2.49,5.58-5.56c0-.45-.05-.9-.17-1.32-3.42-.55-6.89-.93-10.38-1.17h0Z"/>
        </g>
      </g>
      <g>
        <g>
          <path class="cls-19" d="m302.36,525.15c-8.07,0-14.63-6.62-14.63-14.76s6.57-14.76,14.63-14.76,14.64,6.62,14.64,14.76-6.57,14.76-14.64,14.76Z"/>
          <path class="cls-18" d="m302.36,497.13c7.25,0,13.13,5.94,13.13,13.26s-5.88,13.26-13.13,13.26-13.14-5.94-13.14-13.26,5.88-13.26,13.14-13.26m0-3c-8.9,0-16.14,7.29-16.14,16.26s7.24,16.26,16.14,16.26,16.13-7.29,16.13-16.26-7.24-16.26-16.13-16.26h0Z"/>
        </g>
        <g>
          <path class="cls-19" d="m276.09,527.63c-8.07,0-14.63-6.62-14.63-14.76s6.57-14.76,14.63-14.76,14.63,6.62,14.63,14.76-6.57,14.76-14.63,14.76Z"/>
          <path class="cls-18" d="m276.09,499.61c7.25,0,13.14,5.94,13.14,13.26s-5.88,13.26-13.14,13.26-13.14-5.94-13.14-13.26,5.88-13.26,13.14-13.26m0-3c-8.9,0-16.14,7.29-16.14,16.26s7.24,16.26,16.14,16.26,16.14-7.29,16.14-16.26-7.24-16.26-16.14-16.26h0Z"/>
        </g>
        <g>
          <ellipse class="cls-19" cx="351.47" cy="509.81" rx="14.63" ry="14.76"/>
          <path class="cls-18" d="m351.47,496.55c7.25,0,13.14,5.94,13.14,13.26s-5.88,13.26-13.14,13.26-13.14-5.94-13.14-13.26,5.88-13.26,13.14-13.26m0-3c-8.9,0-16.14,7.29-16.14,16.26s7.24,16.26,16.14,16.26,16.14-7.29,16.14-16.26-7.24-16.26-16.14-16.26h0Z"/>
        </g>
        <g>
          <ellipse class="cls-19" cx="325.88" cy="510.77" rx="14.63" ry="14.76"/>
          <path class="cls-18" d="m325.88,497.51c7.25,0,13.14,5.94,13.14,13.26s-5.88,13.26-13.14,13.26-13.14-5.94-13.14-13.26,5.88-13.26,13.14-13.26m0-3c-8.9,0-16.14,7.29-16.14,16.26s7.24,16.26,16.14,16.26,16.14-7.29,16.14-16.26-7.24-16.26-16.14-16.26h0Z"/>
        </g>
        <g>
          <path class="cls-7" d="m368.51,524.57c-10.22,0-18.54-8.39-18.54-18.7s8.32-18.7,18.54-18.7,18.54,8.39,18.54,18.7-8.32,18.7-18.54,18.7Z"/>
          <path class="cls-18" d="m368.51,488.67c9.41,0,17.04,7.7,17.04,17.2s-7.63,17.2-17.04,17.2-17.04-7.7-17.04-17.2,7.63-17.2,17.04-17.2m0-3c-11.05,0-20.04,9.06-20.04,20.2s8.99,20.2,20.04,20.2,20.04-9.06,20.04-20.2-8.99-20.2-20.04-20.2h0Z"/>
        </g>
      </g>
      <g>
        <g>
          <ellipse class="cls-7" cx="285.65" cy="499.01" rx="18.54" ry="18.7"/>
          <path class="cls-18" d="m285.65,481.8c9.41,0,17.04,7.7,17.04,17.2s-7.63,17.2-17.04,17.2-17.04-7.7-17.04-17.2,7.63-17.2,17.04-17.2m0-3c-11.05,0-20.04,9.06-20.04,20.2s8.99,20.2,20.04,20.2,20.04-9.06,20.04-20.2-8.99-20.2-20.04-20.2h0Z"/>
        </g>
        <g>
          <path class="cls-7" d="m314.71,514.37c-10.22,0-18.54-8.39-18.54-18.7s8.32-18.7,18.54-18.7,18.54,8.39,18.54,18.7-8.32,18.7-18.54,18.7Z"/>
          <path class="cls-18" d="m314.71,478.47c9.41,0,17.04,7.7,17.04,17.2s-7.63,17.2-17.04,17.2-17.04-7.7-17.04-17.2,7.63-17.2,17.04-17.2m0-3c-11.05,0-20.04,9.06-20.04,20.2s8.99,20.2,20.04,20.2,20.04-9.06,20.04-20.2-8.99-20.2-20.04-20.2h0Z"/>
        </g>
        <g>
          <path class="cls-7" d="m342.92,511.81c-10.22,0-18.54-8.39-18.54-18.7s8.32-18.7,18.54-18.7,18.54,8.39,18.54,18.7-8.32,18.7-18.54,18.7Z"/>
          <path class="cls-18" d="m342.92,475.91c9.41,0,17.04,7.7,17.04,17.2s-7.63,17.2-17.04,17.2-17.04-7.7-17.04-17.2,7.63-17.2,17.04-17.2m0-3c-11.05,0-20.04,9.06-20.04,20.2s8.99,20.2,20.04,20.2,20.04-9.06,20.04-20.2-8.99-20.2-20.04-20.2h0Z"/>
        </g>
      </g>
      <g>
        <g>
          <ellipse class="cls-7" cx="265.53" cy="504.62" rx="18.54" ry="18.7"/>
          <path class="cls-18" d="m265.53,487.42c9.41,0,17.04,7.7,17.04,17.2s-7.63,17.2-17.04,17.2-17.04-7.7-17.04-17.2,7.63-17.2,17.04-17.2m0-3c-11.05,0-20.04,9.06-20.04,20.2s8.99,20.2,20.04,20.2,20.04-9.06,20.04-20.2-8.99-20.2-20.04-20.2h0Z"/>
        </g>
        <g>
          <path class="cls-24" d="m291.67,494.61c-10.22,0-18.54-8.39-18.54-18.7s8.32-18.7,18.54-18.7,18.54,8.39,18.54,18.7-8.32,18.7-18.54,18.7Z"/>
          <path class="cls-18" d="m291.67,458.7c9.41,0,17.04,7.7,17.04,17.2s-7.63,17.2-17.04,17.2-17.04-7.7-17.04-17.2,7.63-17.2,17.04-17.2m0-3c-11.05,0-20.04,9.06-20.04,20.2s8.99,20.2,20.04,20.2,20.04-9.06,20.04-20.2-8.99-20.2-20.04-20.2h0Z"/>
        </g>
        <g>
          <path class="cls-24" d="m358.68,503.72c-10.22,0-18.54-8.39-18.54-18.7s8.32-18.7,18.54-18.7,18.54,8.39,18.54,18.7-8.32,18.7-18.54,18.7Z"/>
          <path class="cls-18" d="m358.68,467.81c9.41,0,17.04,7.7,17.04,17.2s-7.63,17.2-17.04,17.2-17.04-7.7-17.04-17.2,7.63-17.2,17.04-17.2m0-3c-11.05,0-20.04,9.06-20.04,20.2s8.99,20.2,20.04,20.2,20.04-9.06,20.04-20.2-8.99-20.2-20.04-20.2h0Z"/>
        </g>
        <g>
          <path class="cls-24" d="m325.68,494.61c-10.22,0-18.54-8.39-18.54-18.7s8.32-18.7,18.54-18.7,18.54,8.39,18.54,18.7-8.32,18.7-18.54,18.7Z"/>
          <path class="cls-18" d="m325.68,458.7c9.41,0,17.04,7.7,17.04,17.2s-7.63,17.2-17.04,17.2-17.04-7.7-17.04-17.2,7.63-17.2,17.04-17.2m0-3c-11.05,0-20.04,9.06-20.04,20.2s8.99,20.2,20.04,20.2,20.04-9.06,20.04-20.2-8.99-20.2-20.04-20.2h0Z"/>
        </g>
      </g>
      <g>
        <g>
          <path class="cls-24" d="m257.58,503.71c-3.54,0-6.97-1.01-9.91-2.91-.51-.33-.77-.93-.66-1.53.26-1.42.61-2.95,1.07-4.69,1.57-6.03,3.87-11.87,6.85-17.33,1.79-3.33,3.88-6.58,6.22-9.67.29-.38.73-.59,1.2-.59.14,0,.28.02.42.06,7.68,2.25,13.05,9.18,13.35,17.26.02.2.02.45.02.71,0,4.97-1.91,9.64-5.38,13.14-3.49,3.58-8.17,5.55-13.17,5.55Z"/>
          <path class="cls-18" d="m262.34,468.49c6.91,2.02,11.99,8.33,12.27,15.87.02.22.02.43.02.65,0,4.71-1.87,8.98-4.94,12.09-3.08,3.16-7.36,5.11-12.1,5.11-3.36,0-6.47-.97-9.09-2.67.28-1.54.64-3.07,1.04-4.57,1.55-5.99,3.82-11.68,6.71-16.99,1.79-3.32,3.84-6.49,6.1-9.48m0-3c-.92,0-1.81.43-2.39,1.19-2.39,3.15-4.52,6.47-6.35,9.87-3.03,5.55-5.38,11.5-6.98,17.66-.46,1.76-.82,3.33-1.09,4.79-.22,1.19.3,2.4,1.32,3.06,3.18,2.06,6.89,3.15,10.73,3.15,5.41,0,10.47-2.14,14.25-6.01,3.73-3.77,5.8-8.81,5.8-14.18,0-.23,0-.51-.02-.82-.35-8.7-6.14-16.17-14.42-18.59-.28-.08-.56-.12-.84-.12h0Z"/>
        </g>
        <g>
          <path class="cls-5" d="m382.92,511.81c-10.22,0-18.53-8.39-18.53-18.69,0-3.21.81-6.36,2.34-9.11,3.29-5.92,9.49-9.6,16.19-9.6.56,0,1.13.03,1.79.09.48.04.91.31,1.15.73.26.44.52.87.76,1.33,5.03,9.02,8.16,18.81,9.28,29.09.05.47-.12.94-.47,1.26-3.41,3.16-7.86,4.91-12.51,4.91Z"/>
          <path class="cls-18" d="m382.92,475.9c.56,0,1.11.03,1.65.08.25.42.5.83.73,1.27,4.8,8.6,7.99,18.26,9.11,28.54-3.03,2.8-7.06,4.51-11.49,4.51-9.41,0-17.03-7.7-17.03-17.19,0-3.05.78-5.91,2.15-8.38,2.93-5.27,8.48-8.83,14.88-8.83m0-3c-7.25,0-13.95,3.98-17.51,10.37-1.65,2.97-2.53,6.38-2.53,9.84,0,11.13,8.99,20.19,20.03,20.19,5.03,0,9.84-1.88,13.53-5.31.7-.65,1.05-1.58.94-2.53-1.15-10.47-4.33-20.45-9.46-29.66-.26-.49-.52-.93-.78-1.36-.49-.83-1.35-1.37-2.31-1.46-.71-.07-1.33-.1-1.93-.1h0Z"/>
        </g>
        <g>
          <path class="cls-5" d="m304.04,477.41c-10.22-.1-18.53-8.49-18.53-18.7s8.32-18.7,18.54-18.7c4.99,0,9.67,1.96,13.2,5.52,3.5,3.54,5.4,8.23,5.35,13.2-.12,10.48-8.19,18.69-18.37,18.69h-.18Z"/>
          <path class="cls-18" d="m304.06,441.5c9.41,0,17.15,7.7,17.04,17.2-.11,9.65-7.59,17.2-16.87,17.2-.06,0-.11,0-.17,0-9.41-.09-17.04-7.7-17.04-17.2s7.63-17.2,17.04-17.2m0-3c-11.05,0-20.04,9.06-20.04,20.2s8.98,20.09,20.01,20.2h.2c11.01,0,19.74-8.86,19.87-20.17.06-5.37-1.99-10.44-5.78-14.27-3.81-3.85-8.87-5.97-14.26-5.97h0Z"/>
        </g>
        <g>
          <path class="cls-5" d="m269.98,486.52c-5.91,0-11.5-2.87-14.96-7.67-.33-.47-.38-1.08-.1-1.59,1.79-3.33,3.89-6.59,6.23-9.68,4.57-6.08,10.06-11.46,16.31-15.98.26-.19.57-.28.88-.28.25,0,.51.06.74.2,5.82,3.31,9.44,9.56,9.44,16.29,0,8.36-5.55,15.76-13.5,18-1.58.47-3.29.71-5.04.71Z"/>
          <path class="cls-18" d="m278.33,452.82c5.19,2.95,8.68,8.56,8.68,14.99,0,7.88-5.24,14.54-12.4,16.56-1.47.43-3.03.65-4.63.65-5.66,0-10.67-2.77-13.74-7.04,1.79-3.32,3.84-6.49,6.1-9.48,4.51-6.01,9.92-11.28,15.99-15.67m0-3c-.62,0-1.24.19-1.76.57-6.37,4.61-11.97,10.09-16.63,16.3-2.38,3.14-4.51,6.46-6.35,9.86-.54,1.01-.46,2.24.21,3.17,3.74,5.19,9.78,8.29,16.18,8.29,1.9,0,3.74-.26,5.48-.77,8.55-2.41,14.55-10.41,14.55-19.44,0-7.28-3.91-14.02-10.2-17.6-.46-.26-.97-.39-1.48-.39h0Z"/>
        </g>
        <g>
          <path class="cls-5" d="m371.06,486.52c-1.1,0-2.21-.1-3.3-.31-8.83-1.59-15.25-9.33-15.25-18.4,0-7,3.83-13.36,10-16.59.22-.11.46-.17.7-.17.31,0,.61.09.87.28,8.81,6.26,16.35,14.53,21.79,23.91.25.42.51.86.75,1.31.26.48.23,1.07-.07,1.53-3.44,5.29-9.23,8.44-15.49,8.44Z"/>
          <path class="cls-18" d="m363.21,452.55c8.66,6.16,15.97,14.16,21.36,23.44.25.42.5.83.73,1.27-3.04,4.67-8.28,7.76-14.24,7.76-1.03,0-2.05-.1-3.03-.28-7.97-1.44-14.02-8.48-14.02-16.93,0-6.64,3.74-12.4,9.19-15.26m0-3c-.48,0-.95.11-1.39.34-6.66,3.49-10.8,10.35-10.8,17.92,0,9.8,6.94,18.16,16.49,19.88,1.16.22,2.36.33,3.56.33,6.77,0,13.03-3.41,16.75-9.13.6-.92.65-2.08.13-3.05-.26-.5-.53-.95-.8-1.39-5.54-9.53-13.22-17.96-22.21-24.35-.52-.37-1.13-.55-1.74-.55h0Z"/>
        </g>
        <g>
          <path class="cls-5" d="m338.07,477.41c-10.22,0-18.54-8.39-18.54-18.7s8.32-18.7,18.54-18.7,18.54,8.39,18.54,18.7-8.32,18.7-18.54,18.7Z"/>
          <path class="cls-18" d="m338.07,441.5c9.41,0,17.04,7.7,17.04,17.2s-7.63,17.2-17.04,17.2-17.04-7.7-17.04-17.2,7.63-17.2,17.04-17.2m0-3c-11.05,0-20.04,9.06-20.04,20.2s8.99,20.2,20.04,20.2,20.04-9.06,20.04-20.2-8.99-20.2-20.04-20.2h0Z"/>
        </g>
      </g>
      <g>
        <circle class="cls-3" cx="332.21" cy="175.15" r="4.49"/>
        <circle class="cls-3" cx="324.8" cy="177.11" r="4.49"/>
        <circle class="cls-3" cx="308.24" cy="180.09" r="4.94"/>
        <circle class="cls-3" cx="350.08" cy="171.42" r="4.94"/>
        <circle class="cls-3" cx="323.47" cy="174.55" r="4.94"/>
        <circle class="cls-3" cx="348.53" cy="167.23" r="4.94"/>
        <circle class="cls-3" cx="340.7" cy="171.41" r="4.94"/>
        <circle class="cls-3" cx="339.29" cy="166.47" r="4.94"/>
        <circle class="cls-3" cx="331.31" cy="171.41" r="4.94"/>
        <circle class="cls-3" cx="346.36" cy="162.29" r="4.94"/>
        <circle class="cls-3" cx="359.49" cy="168.96" r="4.94"/>
        <circle class="cls-3" cx="354.06" cy="162.29" r="4.94"/>
        <circle class="cls-3" cx="362.74" cy="161.34" r="4.94"/>
        <circle class="cls-3" cx="317.29" cy="178.12" r="4.94"/>
        <circle class="cls-3" cx="301.38" cy="181.31" r="4.94"/>
        <circle class="cls-3" cx="309.77" cy="175.81" r="4.94"/>
        <circle class="cls-3" cx="316.4" cy="171.41" r="4.94"/>
        <circle class="cls-3" cx="324.8" cy="167.23" r="4.94"/>
        <circle class="cls-3" cx="364.97" cy="154.96" r="4.94"/>
        <circle class="cls-3" cx="332.21" cy="162.29" r="4.94"/>
        <circle class="cls-3" cx="339.82" cy="159.07" r="4.94"/>
        <circle class="cls-3" cx="348.53" cy="156.23" r="4.94"/>
        <circle class="cls-3" cx="357.8" cy="154.96" r="4.94"/>
        <path class="cls-3" d="m359.95,148.45c0,2.73-2.21,4.94-4.94,4.94s-4.94-2.21-4.94-4.94c0-.39.05-.78.14-1.14,3.1-.41,6.29-.51,9.5-.39.16.48.23,1,.23,1.53Z"/>
        <path class="cls-3" d="m351.29,150.02c0,2.73-2.21,4.94-4.94,4.94-1.92,0-3.58-1.09-4.39-2.69v-.03c-.19-.33-.31-.67-.39-1.04l-.02-.02c-.09-.37-.14-.75-.14-1.15,0-.09,0-.17.02-.26,3.05-1.04,6.11-1.82,9.14-2.29.45.75.72,1.62.72,2.55Z"/>
        <path class="cls-3" d="m342.09,153.39c0,2.73-2.21,4.94-4.94,4.94s-4.83-2.1-4.94-4.72c2.8-1.37,5.65-2.6,8.52-3.6h.02c.33.34.61.73.81,1.17.17.33.31.69.4,1.06.08.37.12.75.12,1.15Z"/>
        <path class="cls-3" d="m299.05,181.31c0,2.73-2.21,4.94-4.95,4.94-1.28,0-2.43-.48-3.3-1.28,1.28-1.31,3.72-3.77,7.07-6.85.73.86,1.18,1.98,1.18,3.19Z"/>
        <path class="cls-3" d="m308.24,175.8c0,2.74-2.21,4.95-4.94,4.95-2.17,0-4-1.39-4.67-3.33,2.02-1.84,4.36-3.88,6.93-6,1.59.81,2.68,2.46,2.68,4.38Z"/>
        <path class="cls-3" d="m324.8,163.26c0,2.73-2.21,4.94-4.94,4.94-2.43,0-4.45-1.76-4.86-4.08,2.4-1.73,4.89-3.43,7.48-5.05.62.39,1.14.9,1.54,1.53.08.17.17.33.28.48.31.65.5,1.39.5,2.18Z"/>
        <path class="cls-3" d="m333.35,158.32c0,2.73-2.21,4.94-4.95,4.94-1.7,0-3.21-.86-4.1-2.18-.11-.16-.2-.31-.28-.48t-.02-.02c-.33-.64-.51-1.36-.53-2.12,2.48-1.53,5.02-2.98,7.6-4.28,1.37.87,2.27,2.4,2.27,4.14Z"/>
        <path class="cls-3" d="m315.48,168.2c0,2.74-2.23,4.95-4.95,4.95-1.78,0-3.35-.95-4.21-2.37,2.41-1.96,5.02-4,7.77-6.01.86.89,1.39,2.1,1.39,3.43Z"/>
        <path class="cls-3" d="m370.17,150.02c0,2.73-2.21,4.94-4.94,4.94s-4.94-2.21-4.94-4.94c0-1.14.39-2.18,1.03-3.01,2.8.16,5.64.5,8.41.98.28.62.44,1.31.44,2.02Z"/>
      </g>
      <circle class="cls-4" cx="349.13" cy="192.8" r="16.41"/>
      <ellipse class="cls-2" cx="349.43" cy="193.01" rx="8.42" ry="16.2"/>
      <circle class="cls-15" cx="349.13" cy="192.8" r="3.43"/>
      <g>
        <g>
          <path class="cls-11" d="m264.88,253.96c-1.89,0-3.43-1.54-3.43-3.43s1.54-3.43,3.43-3.43,3.43,1.54,3.43,3.43-1.54,3.43-3.43,3.43Z"/>
          <path class="cls-18" d="m264.88,247.61c1.62,0,2.93,1.31,2.93,2.93s-1.31,2.93-2.93,2.93-2.93-1.31-2.93-2.93,1.31-2.93,2.93-2.93m0-1c-2.16,0-3.93,1.76-3.93,3.93s1.76,3.93,3.93,3.93,3.93-1.76,3.93-3.93-1.76-3.93-3.93-3.93h0Z"/>
        </g>
        <g>
          <g>
            <path class="cls-11" d="m262.12,280.5c-1.89,0-3.43-1.54-3.43-3.43s1.54-3.43,3.43-3.43,3.43,1.54,3.43,3.43-1.54,3.43-3.43,3.43Z"/>
            <path class="cls-18" d="m262.12,274.15c1.62,0,2.93,1.31,2.93,2.93s-1.31,2.93-2.93,2.93-2.93-1.31-2.93-2.93,1.31-2.93,2.93-2.93m0-1c-2.16,0-3.93,1.76-3.93,3.93s1.76,3.93,3.93,3.93,3.93-1.76,3.93-3.93-1.76-3.93-3.93-3.93h0Z"/>
          </g>
          <g>
            <path class="cls-11" d="m267.98,277.58c-1.89,0-3.43-1.54-3.43-3.43s1.54-3.43,3.43-3.43,3.43,1.54,3.43,3.43-1.54,3.43-3.43,3.43Z"/>
            <path class="cls-18" d="m267.98,271.23c1.62,0,2.93,1.31,2.93,2.93s-1.31,2.93-2.93,2.93-2.93-1.31-2.93-2.93,1.31-2.93,2.93-2.93m0-1c-2.16,0-3.93,1.76-3.93,3.93s1.76,3.93,3.93,3.93,3.93-1.76,3.93-3.93-1.76-3.93-3.93-3.93h0Z"/>
          </g>
          <g>
            <path class="cls-11" d="m273.2,273.99c-1.89,0-3.43-1.54-3.43-3.43s1.54-3.43,3.43-3.43,3.43,1.54,3.43,3.43-1.54,3.43-3.43,3.43Z"/>
            <path class="cls-18" d="m273.2,267.64c1.62,0,2.93,1.31,2.93,2.93s-1.31,2.93-2.93,2.93-2.93-1.31-2.93-2.93,1.31-2.93,2.93-2.93m0-1c-2.16,0-3.93,1.76-3.93,3.93s1.76,3.93,3.93,3.93,3.93-1.76,3.93-3.93-1.76-3.93-3.93-3.93h0Z"/>
          </g>
          <g>
            <path class="cls-11" d="m279.05,271.06c-1.89,0-3.43-1.54-3.43-3.43s1.54-3.43,3.43-3.43,3.43,1.54,3.43,3.43-1.54,3.43-3.43,3.43Z"/>
            <path class="cls-18" d="m279.05,264.71c1.62,0,2.93,1.31,2.93,2.93s-1.31,2.93-2.93,2.93-2.93-1.31-2.93-2.93,1.31-2.93,2.93-2.93m0-1c-2.16,0-3.93,1.76-3.93,3.93s1.76,3.93,3.93,3.93,3.93-1.76,3.93-3.93-1.76-3.93-3.93-3.93h0Z"/>
          </g>
          <g>
            <circle class="cls-11" cx="284.21" cy="264.06" r="3.43"/>
            <path class="cls-18" d="m284.21,261.13c1.62,0,2.93,1.31,2.93,2.93s-1.31,2.93-2.93,2.93-2.93-1.31-2.93-2.93,1.31-2.93,2.93-2.93m0-1c-2.16,0-3.93,1.76-3.93,3.93s1.76,3.93,3.93,3.93,3.93-1.76,3.93-3.93-1.76-3.93-3.93-3.93h0Z"/>
          </g>
          <g>
            <path class="cls-11" d="m290.06,264.56c-1.89,0-3.43-1.54-3.43-3.43s1.54-3.43,3.43-3.43,3.43,1.54,3.43,3.43-1.54,3.43-3.43,3.43Z"/>
            <path class="cls-18" d="m290.06,258.2c1.62,0,2.93,1.31,2.93,2.93s-1.31,2.93-2.93,2.93-2.93-1.31-2.93-2.93,1.31-2.93,2.93-2.93m0-1c-2.16,0-3.93,1.76-3.93,3.93s1.76,3.93,3.93,3.93,3.93-1.76,3.93-3.93-1.76-3.93-3.93-3.93h0Z"/>
          </g>
          <g>
            <path class="cls-11" d="m295.91,261.63c-1.89,0-3.43-1.54-3.43-3.43s1.54-3.43,3.43-3.43,3.43,1.54,3.43,3.43-1.54,3.43-3.43,3.43Z"/>
            <path class="cls-18" d="m295.91,255.28c1.62,0,2.93,1.31,2.93,2.93s-1.31,2.93-2.93,2.93-2.93-1.31-2.93-2.93,1.31-2.93,2.93-2.93m0-1c-2.16,0-3.93,1.76-3.93,3.93s1.76,3.93,3.93,3.93,3.93-1.76,3.93-3.93-1.76-3.93-3.93-3.93h0Z"/>
          </g>
          <g>
            <path class="cls-11" d="m301.76,258.7c-1.89,0-3.43-1.54-3.43-3.43s1.54-3.43,3.43-3.43,3.43,1.54,3.43,3.43-1.54,3.43-3.43,3.43Z"/>
            <path class="cls-18" d="m301.76,252.35c1.62,0,2.93,1.31,2.93,2.93s-1.31,2.93-2.93,2.93-2.93-1.31-2.93-2.93,1.31-2.93,2.93-2.93m0-1c-2.16,0-3.93,1.76-3.93,3.93s1.76,3.93,3.93,3.93,3.93-1.76,3.93-3.93-1.76-3.93-3.93-3.93h0Z"/>
          </g>
          <g>
            <path class="cls-11" d="m307.67,255.78c-1.89,0-3.43-1.54-3.43-3.43s1.54-3.43,3.43-3.43,3.43,1.54,3.43,3.43-1.54,3.43-3.43,3.43Z"/>
            <path class="cls-18" d="m307.67,249.43c1.62,0,2.93,1.31,2.93,2.93s-1.31,2.93-2.93,2.93-2.93-1.31-2.93-2.93,1.31-2.93,2.93-2.93m0-1c-2.16,0-3.93,1.76-3.93,3.93s1.76,3.93,3.93,3.93,3.93-1.76,3.93-3.93-1.76-3.93-3.93-3.93h0Z"/>
          </g>
          <g>
            <path class="cls-11" d="m313.52,252.85c-1.89,0-3.43-1.54-3.43-3.43s1.54-3.43,3.43-3.43,3.43,1.54,3.43,3.43-1.54,3.43-3.43,3.43Z"/>
            <path class="cls-18" d="m313.52,246.5c1.62,0,2.93,1.31,2.93,2.93s-1.31,2.93-2.93,2.93-2.93-1.31-2.93-2.93,1.31-2.93,2.93-2.93m0-1c-2.16,0-3.93,1.76-3.93,3.93s1.76,3.93,3.93,3.93,3.93-1.76,3.93-3.93-1.76-3.93-3.93-3.93h0Z"/>
          </g>
          <g>
            <path class="cls-11" d="m320.11,251.7c-1.89,0-3.43-1.54-3.43-3.43s1.54-3.43,3.43-3.43,3.43,1.54,3.43,3.43-1.54,3.43-3.43,3.43Z"/>
            <path class="cls-18" d="m320.11,245.35c1.62,0,2.93,1.31,2.93,2.93s-1.31,2.93-2.93,2.93-2.93-1.31-2.93-2.93,1.31-2.93,2.93-2.93m0-1c-2.16,0-3.93,1.76-3.93,3.93s1.76,3.93,3.93,3.93,3.93-1.76,3.93-3.93-1.76-3.93-3.93-3.93h0Z"/>
          </g>
          <g>
            <path class="cls-11" d="m326.36,250.81c-1.89,0-3.43-1.54-3.43-3.43s1.54-3.43,3.43-3.43,3.43,1.54,3.43,3.43-1.54,3.43-3.43,3.43Z"/>
            <path class="cls-18" d="m326.36,244.46c1.62,0,2.93,1.31,2.93,2.93s-1.31,2.93-2.93,2.93-2.93-1.31-2.93-2.93,1.31-2.93,2.93-2.93m0-1c-2.16,0-3.93,1.76-3.93,3.93s1.76,3.93,3.93,3.93,3.93-1.76,3.93-3.93-1.76-3.93-3.93-3.93h0Z"/>
          </g>
          <g>
            <path class="cls-11" d="m253.21,255.55c-1.89,0-3.43-1.54-3.43-3.43s1.54-3.43,3.43-3.43,3.43,1.54,3.43,3.43-1.54,3.43-3.43,3.43Z"/>
            <path class="cls-18" d="m253.21,249.2c1.62,0,2.93,1.31,2.93,2.93s-1.31,2.93-2.93,2.93-2.93-1.31-2.93-2.93,1.31-2.93,2.93-2.93m0-1c-2.16,0-3.93,1.76-3.93,3.93s1.76,3.93,3.93,3.93,3.93-1.76,3.93-3.93-1.76-3.93-3.93-3.93h0Z"/>
          </g>
          <g>
            <path class="cls-11" d="m247.36,253.08c-1.89,0-3.43-1.54-3.43-3.43s1.54-3.43,3.43-3.43,3.43,1.54,3.43,3.43-1.54,3.43-3.43,3.43Z"/>
            <path class="cls-18" d="m247.36,246.73c1.62,0,2.93,1.31,2.93,2.93s-1.31,2.93-2.93,2.93-2.93-1.31-2.93-2.93,1.31-2.93,2.93-2.93m0-1c-2.16,0-3.93,1.76-3.93,3.93s1.76,3.93,3.93,3.93,3.93-1.76,3.93-3.93-1.76-3.93-3.93-3.93h0Z"/>
          </g>
          <g>
            <circle class="cls-11" cx="241.51" cy="247.87" r="3.43"/>
            <path class="cls-18" d="m241.51,244.95c1.62,0,2.93,1.31,2.93,2.93s-1.31,2.93-2.93,2.93-2.93-1.31-2.93-2.93,1.31-2.93,2.93-2.93m0-1c-2.16,0-3.93,1.76-3.93,3.93s1.76,3.93,3.93,3.93,3.93-1.76,3.93-3.93-1.76-3.93-3.93-3.93h0Z"/>
          </g>
          <g>
            <path class="cls-11" d="m235.65,248.82c-1.89,0-3.43-1.54-3.43-3.43s1.54-3.43,3.43-3.43,3.43,1.54,3.43,3.43-1.54,3.43-3.43,3.43Z"/>
            <path class="cls-18" d="m235.65,242.46c1.62,0,2.93,1.31,2.93,2.93s-1.31,2.93-2.93,2.93-2.93-1.31-2.93-2.93,1.31-2.93,2.93-2.93m0-1c-2.16,0-3.93,1.76-3.93,3.93s1.76,3.93,3.93,3.93,3.93-1.76,3.93-3.93-1.76-3.93-3.93-3.93h0Z"/>
          </g>
          <g>
            <path class="cls-11" d="m229.8,247c-1.89,0-3.43-1.54-3.43-3.43s1.54-3.43,3.43-3.43,3.43,1.54,3.43,3.43-1.54,3.43-3.43,3.43Z"/>
            <path class="cls-18" d="m229.8,240.65c1.62,0,2.93,1.31,2.93,2.93s-1.31,2.93-2.93,2.93-2.93-1.31-2.93-2.93,1.31-2.93,2.93-2.93m0-1c-2.16,0-3.93,1.76-3.93,3.93s1.76,3.93,3.93,3.93,3.93-1.76,3.93-3.93-1.76-3.93-3.93-3.93h0Z"/>
          </g>
          <g>
            <path class="cls-11" d="m223.95,244.74c-1.89,0-3.43-1.54-3.43-3.43s1.54-3.43,3.43-3.43,3.43,1.54,3.43,3.43-1.54,3.43-3.43,3.43Z"/>
            <path class="cls-18" d="m223.95,238.39c1.62,0,2.93,1.31,2.93,2.93s-1.31,2.93-2.93,2.93-2.93-1.31-2.93-2.93,1.31-2.93,2.93-2.93m0-1c-2.16,0-3.93,1.76-3.93,3.93s1.76,3.93,3.93,3.93,3.93-1.76,3.93-3.93-1.76-3.93-3.93-3.93h0Z"/>
          </g>
          <g>
            <path class="cls-11" d="m217.57,244.07c-1.89,0-3.43-1.54-3.43-3.43s1.54-3.43,3.43-3.43,3.43,1.54,3.43,3.43-1.54,3.43-3.43,3.43Z"/>
            <path class="cls-18" d="m217.57,237.72c1.62,0,2.93,1.31,2.93,2.93s-1.31,2.93-2.93,2.93-2.93-1.31-2.93-2.93,1.31-2.93,2.93-2.93m0-1c-2.16,0-3.93,1.76-3.93,3.93s1.76,3.93,3.93,3.93,3.93-1.76,3.93-3.93-1.76-3.93-3.93-3.93h0Z"/>
          </g>
          <g>
            <path class="cls-11" d="m205.47,241.82c-1.89,0-3.43-1.54-3.43-3.43s1.54-3.43,3.43-3.43,3.43,1.54,3.43,3.43-1.54,3.43-3.43,3.43Z"/>
            <path class="cls-18" d="m205.47,235.46c1.62,0,2.93,1.31,2.93,2.93s-1.31,2.93-2.93,2.93-2.93-1.31-2.93-2.93,1.31-2.93,2.93-2.93m0-1c-2.16,0-3.93,1.76-3.93,3.93s1.76,3.93,3.93,3.93,3.93-1.76,3.93-3.93-1.76-3.93-3.93-3.93h0Z"/>
          </g>
          <g>
            <path class="cls-11" d="m199.09,241.82c-1.89,0-3.43-1.54-3.43-3.43s1.54-3.43,3.43-3.43,3.43,1.54,3.43,3.43-1.54,3.43-3.43,3.43Z"/>
            <path class="cls-18" d="m199.09,235.46c1.62,0,2.93,1.31,2.93,2.93s-1.31,2.93-2.93,2.93-2.93-1.31-2.93-2.93,1.31-2.93,2.93-2.93m0-1c-2.16,0-3.93,1.76-3.93,3.93s1.76,3.93,3.93,3.93,3.93-1.76,3.93-3.93-1.76-3.93-3.93-3.93h0Z"/>
          </g>
          <g>
            <path class="cls-11" d="m192.71,243.41c-1.89,0-3.43-1.54-3.43-3.43s1.54-3.43,3.43-3.43,3.43,1.54,3.43,3.43-1.54,3.43-3.43,3.43Z"/>
            <path class="cls-18" d="m192.71,237.05c1.62,0,2.93,1.31,2.93,2.93s-1.31,2.93-2.93,2.93-2.93-1.31-2.93-2.93,1.31-2.93,2.93-2.93m0-1c-2.16,0-3.93,1.76-3.93,3.93s1.76,3.93,3.93,3.93,3.93-1.76,3.93-3.93-1.76-3.93-3.93-3.93h0Z"/>
          </g>
          <g>
            <path class="cls-11" d="m186.48,245.63c-1.89,0-3.43-1.54-3.43-3.43s1.54-3.43,3.43-3.43,3.43,1.54,3.43,3.43-1.54,3.43-3.43,3.43Z"/>
            <path class="cls-18" d="m186.48,239.27c1.62,0,2.93,1.31,2.93,2.93s-1.31,2.93-2.93,2.93-2.93-1.31-2.93-2.93,1.31-2.93,2.93-2.93m0-1c-2.16,0-3.93,1.76-3.93,3.93s1.76,3.93,3.93,3.93,3.93-1.76,3.93-3.93-1.76-3.93-3.93-3.93h0Z"/>
          </g>
          <g>
            <path class="cls-11" d="m211.52,242.7c-1.89,0-3.43-1.54-3.43-3.43s1.54-3.43,3.43-3.43,3.43,1.54,3.43,3.43-1.54,3.43-3.43,3.43Z"/>
            <path class="cls-18" d="m211.52,236.35c1.62,0,2.93,1.31,2.93,2.93s-1.31,2.93-2.93,2.93-2.93-1.31-2.93-2.93,1.31-2.93,2.93-2.93m0-1c-2.16,0-3.93,1.76-3.93,3.93s1.76,3.93,3.93,3.93,3.93-1.76,3.93-3.93-1.76-3.93-3.93-3.93h0Z"/>
          </g>
          <g>
            <path class="cls-11" d="m258.99,254.67c-1.89,0-3.43-1.54-3.43-3.43s1.54-3.43,3.43-3.43,3.43,1.54,3.43,3.43-1.54,3.43-3.43,3.43Z"/>
            <path class="cls-18" d="m258.99,248.32c1.62,0,2.93,1.31,2.93,2.93s-1.31,2.93-2.93,2.93-2.93-1.31-2.93-2.93,1.31-2.93,2.93-2.93m0-1c-2.16,0-3.93,1.76-3.93,3.93s1.76,3.93,3.93,3.93,3.93-1.76,3.93-3.93-1.76-3.93-3.93-3.93h0Z"/>
          </g>
          <g>
            <path class="cls-11" d="m270.65,253.08c-1.89,0-3.43-1.54-3.43-3.43s1.54-3.43,3.43-3.43,3.43,1.54,3.43,3.43-1.54,3.43-3.43,3.43Z"/>
            <path class="cls-18" d="m270.65,246.73c1.62,0,2.93,1.31,2.93,2.93s-1.31,2.93-2.93,2.93-2.93-1.31-2.93-2.93,1.31-2.93,2.93-2.93m0-1c-2.16,0-3.93,1.76-3.93,3.93s1.76,3.93,3.93,3.93,3.93-1.76,3.93-3.93-1.76-3.93-3.93-3.93h0Z"/>
          </g>
          <g>
            <path class="cls-11" d="m276.51,252.18c-1.89,0-3.43-1.54-3.43-3.43s1.54-3.43,3.43-3.43,3.43,1.54,3.43,3.43-1.54,3.43-3.43,3.43Z"/>
            <path class="cls-18" d="m276.51,245.83c1.62,0,2.93,1.31,2.93,2.93s-1.31,2.93-2.93,2.93-2.93-1.31-2.93-2.93,1.31-2.93,2.93-2.93m0-1c-2.16,0-3.93,1.76-3.93,3.93s1.76,3.93,3.93,3.93,3.93-1.76,3.93-3.93-1.76-3.93-3.93-3.93h0Z"/>
          </g>
          <g>
            <circle class="cls-11" cx="282.28" cy="247.87" r="3.43"/>
            <path class="cls-18" d="m282.28,244.95c1.62,0,2.93,1.31,2.93,2.93s-1.31,2.93-2.93,2.93-2.93-1.31-2.93-2.93,1.31-2.93,2.93-2.93m0-1c-2.16,0-3.93,1.76-3.93,3.93s1.76,3.93,3.93,3.93,3.93-1.76,3.93-3.93-1.76-3.93-3.93-3.93h0Z"/>
          </g>
          <g>
            <path class="cls-11" d="m288.14,251.04c-1.89,0-3.43-1.54-3.43-3.43s1.54-3.43,3.43-3.43,3.43,1.54,3.43,3.43-1.54,3.43-3.43,3.43Z"/>
            <path class="cls-18" d="m288.14,244.68c1.62,0,2.93,1.31,2.93,2.93s-1.31,2.93-2.93,2.93-2.93-1.31-2.93-2.93,1.31-2.93,2.93-2.93m0-1c-2.16,0-3.93,1.76-3.93,3.93s1.76,3.93,3.93,3.93,3.93-1.76,3.93-3.93-1.76-3.93-3.93-3.93h0Z"/>
          </g>
          <g>
            <path class="cls-11" d="m293.91,250.15c-1.89,0-3.43-1.54-3.43-3.43s1.54-3.43,3.43-3.43,3.43,1.54,3.43,3.43-1.54,3.43-3.43,3.43Z"/>
            <path class="cls-18" d="m293.91,243.8c1.62,0,2.93,1.31,2.93,2.93s-1.31,2.93-2.93,2.93-2.93-1.31-2.93-2.93,1.31-2.93,2.93-2.93m0-1c-2.16,0-3.93,1.76-3.93,3.93s1.76,3.93,3.93,3.93,3.93-1.76,3.93-3.93-1.76-3.93-3.93-3.93h0Z"/>
          </g>
          <g>
            <path class="cls-11" d="m300.1,248.55c-1.89,0-3.43-1.54-3.43-3.43s1.54-3.43,3.43-3.43,3.43,1.54,3.43,3.43-1.54,3.43-3.43,3.43Z"/>
            <path class="cls-18" d="m300.1,242.2c1.62,0,2.93,1.31,2.93,2.93s-1.31,2.93-2.93,2.93-2.93-1.31-2.93-2.93,1.31-2.93,2.93-2.93m0-1c-2.16,0-3.93,1.76-3.93,3.93s1.76,3.93,3.93,3.93,3.93-1.76,3.93-3.93-1.76-3.93-3.93-3.93h0Z"/>
          </g>
          <g>
            <path class="cls-11" d="m305.88,247.67c-1.89,0-3.43-1.54-3.43-3.43s1.54-3.43,3.43-3.43,3.43,1.54,3.43,3.43-1.54,3.43-3.43,3.43Z"/>
            <path class="cls-18" d="m305.88,241.32c1.62,0,2.93,1.31,2.93,2.93s-1.31,2.93-2.93,2.93-2.93-1.31-2.93-2.93,1.31-2.93,2.93-2.93m0-1c-2.16,0-3.93,1.76-3.93,3.93s1.76,3.93,3.93,3.93,3.93-1.76,3.93-3.93-1.76-3.93-3.93-3.93h0Z"/>
          </g>
          <g>
            <path class="cls-11" d="m311.51,246.33c-1.89,0-3.43-1.54-3.43-3.43s1.54-3.43,3.43-3.43,3.43,1.54,3.43,3.43-1.54,3.43-3.43,3.43Z"/>
            <path class="cls-18" d="m311.51,239.98c1.62,0,2.93,1.31,2.93,2.93s-1.31,2.93-2.93,2.93-2.93-1.31-2.93-2.93,1.31-2.93,2.93-2.93m0-1c-2.16,0-3.93,1.76-3.93,3.93s1.76,3.93,3.93,3.93,3.93-1.76,3.93-3.93-1.76-3.93-3.93-3.93h0Z"/>
          </g>
          <g>
            <path class="cls-11" d="m317.67,245.63c-1.89,0-3.43-1.54-3.43-3.43s1.54-3.43,3.43-3.43,3.43,1.54,3.43,3.43-1.54,3.43-3.43,3.43Z"/>
            <path class="cls-18" d="m317.67,239.27c1.62,0,2.93,1.31,2.93,2.93s-1.31,2.93-2.93,2.93-2.93-1.31-2.93-2.93,1.31-2.93,2.93-2.93m0-1c-2.16,0-3.93,1.76-3.93,3.93s1.76,3.93,3.93,3.93,3.93-1.76,3.93-3.93-1.76-3.93-3.93-3.93h0Z"/>
          </g>
          <g>
            <path class="cls-11" d="m323.99,244.3c-1.89,0-3.43-1.54-3.43-3.43s1.54-3.43,3.43-3.43,3.43,1.54,3.43,3.43-1.54,3.43-3.43,3.43Z"/>
            <path class="cls-18" d="m323.99,237.95c1.62,0,2.93,1.31,2.93,2.93s-1.31,2.93-2.93,2.93-2.93-1.31-2.93-2.93,1.31-2.93,2.93-2.93m0-1c-2.16,0-3.93,1.76-3.93,3.93s1.76,3.93,3.93,3.93,3.93-1.76,3.93-3.93-1.76-3.93-3.93-3.93h0Z"/>
          </g>
          <g>
            <path class="cls-11" d="m330.43,242.7c-1.89,0-3.43-1.54-3.43-3.43s1.54-3.43,3.43-3.43,3.43,1.54,3.43,3.43-1.54,3.43-3.43,3.43Z"/>
            <path class="cls-18" d="m330.43,236.35c1.62,0,2.93,1.31,2.93,2.93s-1.31,2.93-2.93,2.93-2.93-1.31-2.93-2.93,1.31-2.93,2.93-2.93m0-1c-2.16,0-3.93,1.76-3.93,3.93s1.76,3.93,3.93,3.93,3.93-1.76,3.93-3.93-1.76-3.93-3.93-3.93h0Z"/>
          </g>
          <g>
            <path class="cls-11" d="m332.71,248.78c-1.89,0-3.43-1.54-3.43-3.43s1.54-3.43,3.43-3.43,3.43,1.54,3.43,3.43-1.54,3.43-3.43,3.43Z"/>
            <path class="cls-18" d="m332.71,242.43c1.62,0,2.93,1.31,2.93,2.93s-1.31,2.93-2.93,2.93-2.93-1.31-2.93-2.93,1.31-2.93,2.93-2.93m0-1c-2.16,0-3.93,1.76-3.93,3.93s1.76,3.93,3.93,3.93,3.93-1.76,3.93-3.93-1.76-3.93-3.93-3.93h0Z"/>
          </g>
        </g>
      </g>
      <path class="cls-16" d="m284.82,511.52c.26-.88,2.01-.12,7.77-.75s7.31-7.12,7.41-4.9c.07,1.72-3.05,6.03-6.82,7-3.95,1.02-8.83.27-8.36-1.35Z"/>
      <path class="cls-10" d="m192.71,156.32c2.92,1.75,31.91-42.91,63.35-54.01,34.93-12.32,80.55-.82,81.95-6.37,1.39-5.54-47.95-17.42-84.59-3.36-35.5,13.63-72.31,56.81-60.71,63.74Z"/>
      <path class="cls-10" d="m198.69,229.73c1.02,1.41,32.72-14.44,31.57-16.74-1.15-2.3-33.56,13.99-31.57,16.74Z"/>
      <path class="cls-10" d="m194.73,233.8c-3.56-2.04-8.89,8.87-5.81,10.12,3.32,1.35,8.81-8.41,5.81-10.12Z"/>
      <path class="cls-13" d="m211.52,193.22c-.79,1.95,11.23,8.67,21.21,8.71,12.83.05,37.84-13.36,52.48-24.82,14.64-11.46,31.24-33.09,51.49-35.12s50.29,4.55,51.66,3.1c1.38-1.45-44.14-16.56-61.45-10.4-20.4,7.26-40.4,39.65-74.09,54.68-33.69,15.03-39.76,0-41.31,3.85Z"/>
      <path class="cls-14" d="m315.68,383.73c.02-3.48,18.19-15.92,33.45-29.63,15.82-14.22,25.33-31.51,28.1-29.77,2.19,1.38-14.78,23.27-31.3,37.95-11.63,10.33-30.27,23.71-30.25,21.45Z"/>
      <path class="cls-10" d="m251.65,277.82c1.62-.04-1.6,7.01-3.61,6.34s1.34-6.28,3.61-6.34Z"/>
      <path class="cls-9" d="m276.59,458.91c2.29.33-2.69,8.18-5.48,6.88s2.29-7.34,5.48-6.88Z"/>
      <path class="cls-9" d="m255.28,486.5c1.88-.6.86,7.81-1.76,7.81s-.87-6.97,1.76-7.81Z"/>
      <path class="cls-9" d="m303.81,448.14c2.1,1.57-5.27,5.92-7.55,3.2s4.61-5.39,7.55-3.2Z"/>
      <path class="cls-9" d="m339.75,448.14c2.1,1.57-5.27,5.92-7.55,3.2s4.61-5.39,7.55-3.2Z"/>
      <path class="cls-9" d="m368.42,460.78c2.1,1.57-5.27,5.92-7.55,3.2-2.28-2.73,4.61-5.39,7.55-3.2Z"/>
      <path class="cls-13" d="m232.73,348.4c-1.21.8,11.64,22.26,25.16,28.78,12.75,6.14,45.15,8.03,45.14,5.39,0-2.18-31.33.52-43.83-7.34-20.62-12.95-24.34-28.24-26.47-26.83Z"/>
      <path class="cls-10" d="m238.58,307.36c1.69-1.47-6.37,22.01-1.1,33.71s24.31,28.89,23.39,28.89-22.63-17.89-25.65-28.43c-3.02-10.55,1.24-32.33,3.35-34.17Z"/>
      <path class="cls-16" d="m268.64,521.88c.26-.88,2.91,2.44,8.67,1.81s8.3-6.2,8.4-3.98c.07,1.72-3.07,5.35-7.42,5.84-5.5.63-10.13-2.05-9.65-3.67Z"/>
      <path class="cls-9" d="m260.9,302.31c-1.58.74-3.87-13.15,0-15.59,3.87-2.45,27.71-19.26,30.16-17.73s-20.16,14.45-26.01,20.33c-4.93,4.95,1.08,10.56-4.15,12.99Z"/>
      <path class="cls-16" d="m291.12,466.99c.29-.88,6.52,4.46,12.92,3.88,7.51-.67,11.85-8.25,12.91-6.31.71,1.3-5.27,8.04-12.07,8.94-6.08.8-14.29-4.9-13.76-6.52Z"/>
      <path class="cls-16" d="m343.87,485.41c.76-.53,2.56,7.47,8.02,10.84,6.42,3.96,14.43.48,14.12,2.68-.21,1.47-9.04,3.29-15.02-.07-5.35-3-8.51-12.48-7.12-13.46Z"/>
      <path class="cls-16" d="m264.44,481.45c-.26-.89,7.9-.04,12.83-4.15,5.79-4.82,5.05-13.53,7.04-12.53,1.32.66.24,9.61-4.85,14.22-4.54,4.12-14.54,4.09-15.02,2.46Z"/>
      <path class="cls-16" d="m313.83,483.43c.29-.88,6.52,4.46,12.92,3.88,7.51-.67,11.85-8.25,12.91-6.31.71,1.3-5.27,8.04-12.07,8.94-6.08.8-14.29-4.9-13.76-6.52Z"/>
      <path class="cls-16" d="m279.66,484.55c.29-.88,6.52,4.46,12.92,3.88,7.51-.67,11.85-8.25,12.91-6.31.71,1.3-5.27,8.04-12.07,8.94-6.08.8-14.29-4.9-13.76-6.52Z"/>
      <path class="cls-16" d="m253.18,512.56c.29-.88,6.52,4.46,12.92,3.88,7.51-.67,11.85-8.25,12.91-6.31.71,1.3-5.27,8.04-12.07,8.94-6.08.8-14.29-4.9-13.76-6.52Z"/>
      <path class="cls-16" d="m301.77,503.94c.29-.88,6.53,4.51,12.92,3.88s9.93-3.9,10.99-1.96c.71,1.3-5.19,4.44-10.15,4.59-6.13.19-14.29-4.9-13.76-6.52Z"/>
      <path class="cls-16" d="m317.01,518.66c.29-.88,3.23,2.44,9.61,1.81s9.2-6.2,9.31-3.98c.08,1.72-3.41,5.35-8.22,5.84-6.1.63-11.23-2.05-10.7-3.67Z"/>
      <path class="cls-16" d="m341.52,514.6c.59-.71,1.06,2.07,6.87,4.79,3.58,1.67,7.45-.98,6.72,1.12-.56,1.62-3.93,1.75-6.85,1.06-6.63-1.55-7.84-5.67-6.74-6.98Z"/>
      <path class="cls-16" d="m293.21,518.62c.26-.88,2.91,2.44,8.67,1.81s8.3-6.2,8.4-3.98c.07,1.72-3.07,5.35-7.42,5.84-5.5.63-10.13-2.05-9.65-3.67Z"/>
      <path class="cls-16" d="m329.66,502.62c.29-.88,6.53,4.51,12.92,3.88s9.93-3.9,10.99-1.96c.71,1.3-5.19,4.44-10.15,4.59-6.13.19-14.29-4.9-13.76-6.52Z"/>
      <path class="cls-16" d="m356.18,513.99c.29-.88,6.53,4.51,12.92,3.88s9.93-3.9,10.99-1.96c.71,1.3-5.19,4.44-10.15,4.59-6.13.19-14.29-4.9-13.76-6.52Z"/>
      <path class="cls-16" d="m252.83,499.22c-.07-.7,5.89,1.14,10.17-1.19,5.03-2.73,5.77-9.32,7.09-8.28.89.69-1.25,7.19-5.71,9.87-3.99,2.39-11.43.89-11.55-.4Z"/>
      <path class="cls-9" d="m386.13,487.25c-1.88-.6-.86,7.81,1.76,7.81s.87-6.97-1.76-7.81Z"/>
      <path class="cls-16" d="m385.82,504.84c.16-.68-5.99.33-9.91-2.55-4.61-3.39-4.45-10.01-5.91-9.17-.97.56.26,7.29,4.33,10.55,3.63,2.91,11.2,2.43,11.49,1.17Z"/>
      <path class="cls-16" d="m326.08,467.59c.29-.88,6.52,4.46,12.92,3.88,7.51-.67,11.85-8.25,12.91-6.31.71,1.3-5.27,8.04-12.07,8.94-6.08.8-14.29-4.9-13.76-6.52Z"/>
      <path class="cls-16" d="m358.36,477.55c.26-.64,5.9,3.23,11.68,2.81,6.79-.49,10.72-5.98,11.68-4.57.64.94-4.77,5.83-10.92,6.48-5.5.58-12.92-3.55-12.44-4.72Z"/>
      <path class="cls-13" d="m348.08,176.81c1.64,1.26-1.6,7.53-1.73,15.99-.15,10.37,2.86,15.23,1.5,15.69-2.16.72-6.64-6.64-6.65-16.24,0-10.84,6.88-15.44,6.88-15.44Z"/>
      <path class="cls-10" d="m339.29,182c-.52-.11-4.99,5.43-4.94,11.55s5.16,12.23,5.48,11.46-2.73-4.97-2.76-11.48c-.03-5.77,2.96-11.38,2.23-11.54Z"/>
    </g>
  </g>
</svg>