<?xml version="1.0" encoding="UTF-8"?>
<svg xmlns="http://www.w3.org/2000/svg" xmlns:xlink="http://www.w3.org/1999/xlink" viewBox="0 0 600 600">
  <defs>
    <style>
      .cls-1 {
        opacity: .52;
      }

      .cls-1, .cls-2 {
        fill: #7f7f7f;
        mix-blend-mode: multiply;
      }

      .cls-3 {
        fill: #101010;
      }

      .cls-3, .cls-4, .cls-5, .cls-6, .cls-7, .cls-8, .cls-9 {
        stroke-miterlimit: 10;
      }

      .cls-3, .cls-4, .cls-5, .cls-6, .cls-8, .cls-9 {
        stroke: #231f20;
      }

      .cls-4 {
        fill: #f4eb15;
      }

      .cls-5 {
        fill: #fff;
      }

      .cls-10 {
        fill: #3f2313;
      }

      .cls-10, .cls-6, .cls-11, .cls-12 {
        stroke-linecap: round;
      }

      .cls-10, .cls-11, .cls-12 {
        stroke: #1f1311;
        stroke-linejoin: round;
        stroke-width: 2px;
      }

      .cls-13 {
        clip-path: url(#clippath-2);
      }

      .cls-14 {
        isolation: isolate;
      }

      .cls-6, .cls-7, .cls-15 {
        fill: none;
      }

      .cls-7 {
        stroke: #482b1f;
      }

      .cls-16 {
        clip-path: url(#clippath-1);
      }

      .cls-17 {
        fill: #1f1311;
      }

      .cls-18 {
        fill: #a3a3a3;
        mix-blend-mode: screen;
        opacity: .38;
      }

      .cls-19 {
        clip-path: url(#clippath);
      }

      .cls-20 {
        clip-path: url(#clippath-3);
      }

      .cls-8 {
        fill: #4a3c33;
      }

      .cls-11 {
        fill: #613417;
      }

      .cls-9, .cls-12 {
        fill: #84461e;
      }

      .cls-2 {
        opacity: .58;
      }
    </style>
    <clipPath id="clippath">
      <rect class="cls-15" x="243.19" y="242.3" width="113.63" height="31.08"/>
    </clipPath>
    <clipPath id="clippath-1">
      <rect class="cls-15" x="243.19" y="374.96" width="113.63" height="30.86"/>
    </clipPath>
    <clipPath id="clippath-2">
      <rect class="cls-15" x="243.19" y="30.91" width="114.9" height="33.05"/>
    </clipPath>
    <clipPath id="clippath-3">
      <rect class="cls-15" x="243.19" y="536.45" width="115.05" height="33.05"/>
    </clipPath>
  </defs>
  <g class="cls-14">
    <g id="Layer_1" data-name="Layer 1">
      <polygon class="cls-8" points="261.14 236.15 337.26 236.15 343.84 240.91 255.64 240.91 261.14 236.15"/>
      <path class="cls-8" d="m255.64,240.91l-.58-74.01h87.25s2.48,74.01,1.52,74.01-6.59-4.76-6.59-4.76l-7.88-40.12c0-11.72-9.54-21.31-21.19-21.31h-19.84c-11.65,0-21.19,9.58-21.19,21.31l-6.01,40.12c-1.03.61-5.5,4.76-5.5,4.76Z"/>
      <path class="cls-12" d="m246.06,30.4h107.87c4.75,0,8.61,3.86,8.61,8.61v25.46h-125.09v-25.46c0-4.75,3.86-8.61,8.61-8.61Z"/>
      <path class="cls-12" d="m246.06,240.81h107.87c4.75,0,8.61,3.86,8.61,8.61v18.19c0,4.01-3.26,7.27-7.27,7.27h-110.56c-4.01,0-7.27-3.26-7.27-7.27v-18.19c0-4.75,3.86-8.61,8.61-8.61Z"/>
      <path class="cls-12" d="m362.39,240.91h-18.55l-9.13-46.49c0-13.59-11.06-24.69-24.56-24.69h-22.99c-13.5,0-24.56,11.11-24.56,24.69l-6.97,46.49h-18.34s0-23.58-.08-44.54c-.07-18.37,13.1-36.06,13.1-43.67s-4.09-25.06-8.68-43.68c-5.35-21.66-4.34-44.54-4.34-44.54h125.08s-.37,23.86-6.09,46.3c-4.58,17.94-9.55,34.25-9.55,41.93,0,7.16,15.11,19.39,15.64,36.68.87,28.82,0,51.53,0,51.53Z"/>
      <rect class="cls-11" x="246.8" y="399.62" width="108.88" height="38.71"/>
      <rect class="cls-11" x="246.8" y="505.52" width="108.88" height="38.71"/>
      <path class="cls-4" d="m284,109.01c0,5.06-.85,9.77-2.3,13.68h0c-2.43,6.52-6.53,10.79-11.18,10.79-7.1,0-12.89-9.96-13.42-22.59-.03-.62-.04-1.24-.04-1.87,0-13.51,6.02-24.45,13.46-24.45s13.47,10.95,13.47,24.45Z"/>
      <path class="cls-5" d="m257.15,106.3c.75-12.23,6.44-21.75,13.38-21.75s12.64,9.52,13.39,21.75c-.75-6.33-6.45-11.26-13.39-11.26s-12.63,4.93-13.38,11.26Z"/>
      <path class="cls-4" d="m340.85,109.01c0,5.06-.85,9.77-2.3,13.68h0c-.14.4-.29.78-.45,1.13-2.47,5.87-6.36,9.65-10.73,9.65-6.97,0-12.68-9.6-13.38-21.92-.01-.22-.03-.45-.04-.67-.03-.62-.04-1.24-.04-1.87,0-13.51,6.02-24.45,13.46-24.45s13.47,10.95,13.47,24.45Z"/>
      <path class="cls-3" d="m338.24,121.57c0,.76-.04,1.52-.13,2.26-2.47,5.87-6.36,9.65-10.73,9.65-6.97,0-12.68-9.6-13.38-21.92,2.44-4.08,6.36-6.71,10.77-6.71,7.44,0,13.47,7.49,13.47,16.72Z"/>
      <path class="cls-3" d="m281.31,121.57c0,.76-.04,1.52-.13,2.26-2.47,5.87-6.36,9.65-10.73,9.65-6.97,0-12.68-9.6-13.38-21.92,2.44-4.08,6.36-6.71,10.77-6.71,7.44,0,13.47,7.49,13.47,16.72Z"/>
      <path class="cls-5" d="m314,106.3c.75-12.23,6.44-21.75,13.38-21.75s12.64,9.52,13.39,21.75c-.75-6.33-6.45-11.26-13.39-11.26s-12.63,4.93-13.38,11.26Z"/>
      <path class="cls-5" d="m257.07,107.7c0-.44.03-.87.07-1.29-.03.58-.05,1.15-.05,1.74-.01-.14-.01-.3-.01-.45Z"/>
      <path class="cls-5" d="m284,107.7c0,.15,0,.3-.01.45,0-.59-.03-1.16-.05-1.74.04.42.07.86.07,1.29Z"/>
      <path class="cls-17" d="m284,154.83c-.54-8,1.27-17.57,8.45-22.46,4.84-3.28,11.55-2.87,16.45.14,7.33,4.75,8.96,14.35,9.03,22.32-1.24-7.54-3.1-16.42-10.02-20.71-4.26-2.5-10.17-2.93-14.43-.17-6.8,4.42-8.81,13.22-9.48,20.87h0Z"/>
      <path class="cls-12" d="m246.06,373.16h107.87c4.75,0,8.61,3.86,8.61,8.61v18.19c0,4.01-3.26,7.27-7.27,7.27h-110.56c-4.01,0-7.27-3.26-7.27-7.27v-18.19c0-4.75,3.86-8.61,8.61-8.61Z"/>
      <path class="cls-12" d="m357.41,418.97h-114.82c-2.84,0-5.14,2.3-5.14,5.14v96.54c0,2.09,1.7,3.79,3.8,3.79h117.5c2.1,0,3.79-1.7,3.79-3.79v-96.54c0-2.84-2.29-5.14-5.13-5.14Zm-86.28,52.74l28.28-22.48,29.46,22.48-29.46,22.48-28.28-22.48Z"/>
      <path class="cls-12" d="m246.06,535.54h107.87c4.75,0,8.61,3.86,8.61,8.61v25.46h-125.09v-25.46c0-4.75,3.86-8.61,8.61-8.61Z"/>
      <path class="cls-10" d="m323.65,451.31c-6.17-8.34-7.6-20.85-4.21-32.34h-38.88c3.39,11.49,1.96,24-4.21,32.34-8.69,11.74-25.78,13.83-38.9,2.48v35.62c13.2-11.42,30.39-9.31,39.14,2.5,6.2,8.39,7.64,20.97,4.23,32.53h38.36c-3.41-11.56-1.97-24.14,4.23-32.53,8.75-11.81,25.94-13.92,39.13-2.5v-35.62c-13.11,11.35-30.2,9.26-38.89-2.48Zm-24.24,42.88l-28.28-22.48,28.28-22.48,29.46,22.48-29.46,22.48Z"/>
      <path class="cls-8" d="m298,290.43v50.81c0,1.85,1.54,5.94,3.24,6.65,6.17,2.57,45.12.6,45.12.6v10.28h-57.45v-68.35h9.09Z"/>
      <g class="cls-19">
        <g>
          <line class="cls-7" x1="243.84" y1="242.3" x2="243.84" y2="270.68"/>
          <line class="cls-7" x1="248.78" y1="242.3" x2="248.78" y2="270.68"/>
          <line class="cls-7" x1="253.71" y1="242.3" x2="253.71" y2="270.68"/>
          <line class="cls-7" x1="258.65" y1="242.3" x2="258.65" y2="270.68"/>
          <line class="cls-7" x1="263.58" y1="242.3" x2="263.58" y2="270.68"/>
          <line class="cls-7" x1="268.52" y1="242.3" x2="268.52" y2="270.68"/>
          <line class="cls-7" x1="273.45" y1="242.3" x2="273.45" y2="270.68"/>
          <line class="cls-7" x1="278.39" y1="242.3" x2="278.39" y2="270.68"/>
          <line class="cls-7" x1="283.32" y1="242.3" x2="283.32" y2="270.68"/>
          <line class="cls-7" x1="288.26" y1="242.3" x2="288.26" y2="270.68"/>
          <line class="cls-7" x1="293.19" y1="242.3" x2="293.19" y2="270.68"/>
          <line class="cls-7" x1="298.13" y1="242.3" x2="298.13" y2="270.68"/>
          <line class="cls-7" x1="303.06" y1="242.3" x2="303.06" y2="270.68"/>
          <line class="cls-7" x1="308" y1="242.3" x2="308" y2="270.68"/>
          <line class="cls-7" x1="312.93" y1="242.3" x2="312.93" y2="270.68"/>
          <line class="cls-7" x1="317.87" y1="242.3" x2="317.87" y2="270.68"/>
          <line class="cls-7" x1="322.8" y1="242.3" x2="322.8" y2="270.68"/>
          <line class="cls-7" x1="327.74" y1="242.3" x2="327.74" y2="270.68"/>
          <line class="cls-7" x1="332.68" y1="242.3" x2="332.68" y2="270.68"/>
          <line class="cls-7" x1="337.61" y1="242.3" x2="337.61" y2="270.68"/>
          <line class="cls-7" x1="342.55" y1="242.3" x2="342.55" y2="270.68"/>
          <line class="cls-7" x1="347.48" y1="242.3" x2="347.48" y2="270.68"/>
          <line class="cls-7" x1="352.42" y1="242.3" x2="352.42" y2="270.68"/>
          <line class="cls-7" x1="243.84" y1="270.68" x2="243.84" y2="299.07"/>
          <line class="cls-7" x1="248.78" y1="270.68" x2="248.78" y2="299.07"/>
          <line class="cls-7" x1="253.71" y1="270.68" x2="253.71" y2="299.07"/>
          <line class="cls-7" x1="258.65" y1="270.68" x2="258.65" y2="299.07"/>
          <line class="cls-7" x1="263.58" y1="270.68" x2="263.58" y2="299.07"/>
          <line class="cls-7" x1="268.52" y1="270.68" x2="268.52" y2="299.07"/>
          <line class="cls-7" x1="273.45" y1="270.68" x2="273.45" y2="299.07"/>
          <line class="cls-7" x1="278.39" y1="270.68" x2="278.39" y2="299.07"/>
          <line class="cls-7" x1="283.32" y1="270.68" x2="283.32" y2="299.07"/>
          <line class="cls-7" x1="288.26" y1="270.68" x2="288.26" y2="299.07"/>
          <line class="cls-7" x1="293.19" y1="270.68" x2="293.19" y2="299.07"/>
          <line class="cls-7" x1="298.13" y1="270.68" x2="298.13" y2="299.07"/>
          <line class="cls-7" x1="303.06" y1="270.68" x2="303.06" y2="299.07"/>
          <line class="cls-7" x1="308" y1="270.68" x2="308" y2="299.07"/>
          <line class="cls-7" x1="312.93" y1="270.68" x2="312.93" y2="299.07"/>
          <line class="cls-7" x1="317.87" y1="270.68" x2="317.87" y2="299.07"/>
          <line class="cls-7" x1="322.8" y1="270.68" x2="322.8" y2="299.07"/>
          <line class="cls-7" x1="327.74" y1="270.68" x2="327.74" y2="299.07"/>
          <line class="cls-7" x1="332.68" y1="270.68" x2="332.68" y2="299.07"/>
          <line class="cls-7" x1="337.61" y1="270.68" x2="337.61" y2="299.07"/>
          <line class="cls-7" x1="342.55" y1="270.68" x2="342.55" y2="299.07"/>
          <line class="cls-7" x1="347.48" y1="270.68" x2="347.48" y2="299.07"/>
          <line class="cls-7" x1="352.42" y1="270.68" x2="352.42" y2="299.07"/>
        </g>
      </g>
      <g class="cls-16">
        <g>
          <line class="cls-7" x1="243.84" y1="374.96" x2="243.84" y2="403.34"/>
          <line class="cls-7" x1="248.78" y1="374.96" x2="248.78" y2="403.34"/>
          <line class="cls-7" x1="253.71" y1="374.96" x2="253.71" y2="403.34"/>
          <line class="cls-7" x1="258.65" y1="374.96" x2="258.65" y2="403.34"/>
          <line class="cls-7" x1="263.58" y1="374.96" x2="263.58" y2="403.34"/>
          <line class="cls-7" x1="268.52" y1="374.96" x2="268.52" y2="403.34"/>
          <line class="cls-7" x1="273.45" y1="374.96" x2="273.45" y2="403.34"/>
          <line class="cls-7" x1="278.39" y1="374.96" x2="278.39" y2="403.34"/>
          <line class="cls-7" x1="283.32" y1="374.96" x2="283.32" y2="403.34"/>
          <line class="cls-7" x1="288.26" y1="374.96" x2="288.26" y2="403.34"/>
          <line class="cls-7" x1="293.19" y1="374.96" x2="293.19" y2="403.34"/>
          <line class="cls-7" x1="298.13" y1="374.96" x2="298.13" y2="403.34"/>
          <line class="cls-7" x1="303.06" y1="374.96" x2="303.06" y2="403.34"/>
          <line class="cls-7" x1="308" y1="374.96" x2="308" y2="403.34"/>
          <line class="cls-7" x1="312.93" y1="374.96" x2="312.93" y2="403.34"/>
          <line class="cls-7" x1="317.87" y1="374.96" x2="317.87" y2="403.34"/>
          <line class="cls-7" x1="322.8" y1="374.96" x2="322.8" y2="403.34"/>
          <line class="cls-7" x1="327.74" y1="374.96" x2="327.74" y2="403.34"/>
          <line class="cls-7" x1="332.67" y1="374.96" x2="332.67" y2="403.34"/>
          <line class="cls-7" x1="337.61" y1="374.96" x2="337.61" y2="403.34"/>
          <line class="cls-7" x1="342.54" y1="374.96" x2="342.54" y2="403.34"/>
          <line class="cls-7" x1="347.48" y1="374.96" x2="347.48" y2="403.34"/>
          <line class="cls-7" x1="352.42" y1="374.96" x2="352.42" y2="403.34"/>
          <line class="cls-7" x1="243.84" y1="403.34" x2="243.84" y2="431.73"/>
          <line class="cls-7" x1="248.78" y1="403.34" x2="248.78" y2="431.73"/>
          <line class="cls-7" x1="253.71" y1="403.34" x2="253.71" y2="431.73"/>
          <line class="cls-7" x1="258.65" y1="403.34" x2="258.65" y2="431.73"/>
          <line class="cls-7" x1="263.58" y1="403.34" x2="263.58" y2="431.73"/>
          <line class="cls-7" x1="268.52" y1="403.34" x2="268.52" y2="431.73"/>
          <line class="cls-7" x1="273.45" y1="403.34" x2="273.45" y2="431.73"/>
          <line class="cls-7" x1="278.39" y1="403.34" x2="278.39" y2="431.73"/>
          <line class="cls-7" x1="283.32" y1="403.34" x2="283.32" y2="431.73"/>
          <line class="cls-7" x1="288.26" y1="403.34" x2="288.26" y2="431.73"/>
          <line class="cls-7" x1="293.19" y1="403.34" x2="293.19" y2="431.73"/>
          <line class="cls-7" x1="298.13" y1="403.34" x2="298.13" y2="431.73"/>
          <line class="cls-7" x1="303.06" y1="403.34" x2="303.06" y2="431.73"/>
          <line class="cls-7" x1="308" y1="403.34" x2="308" y2="431.73"/>
          <line class="cls-7" x1="312.93" y1="403.34" x2="312.93" y2="431.73"/>
          <line class="cls-7" x1="317.87" y1="403.34" x2="317.87" y2="431.73"/>
          <line class="cls-7" x1="322.8" y1="403.34" x2="322.8" y2="431.73"/>
          <line class="cls-7" x1="327.74" y1="403.34" x2="327.74" y2="431.73"/>
          <line class="cls-7" x1="332.67" y1="403.34" x2="332.67" y2="431.73"/>
          <line class="cls-7" x1="337.61" y1="403.34" x2="337.61" y2="431.73"/>
          <line class="cls-7" x1="342.54" y1="403.34" x2="342.54" y2="431.73"/>
          <line class="cls-7" x1="347.48" y1="403.34" x2="347.48" y2="431.73"/>
          <line class="cls-7" x1="352.42" y1="403.34" x2="352.42" y2="431.73"/>
        </g>
      </g>
      <g class="cls-13">
        <g>
          <line class="cls-7" x1="243.84" y1="30.91" x2="243.84" y2="59.29"/>
          <line class="cls-7" x1="248.78" y1="30.91" x2="248.78" y2="59.29"/>
          <line class="cls-7" x1="253.71" y1="30.91" x2="253.71" y2="59.29"/>
          <line class="cls-7" x1="258.65" y1="30.91" x2="258.65" y2="59.29"/>
          <line class="cls-7" x1="263.58" y1="30.91" x2="263.58" y2="59.29"/>
          <line class="cls-7" x1="268.52" y1="30.91" x2="268.52" y2="59.29"/>
          <line class="cls-7" x1="273.45" y1="30.91" x2="273.45" y2="59.29"/>
          <line class="cls-7" x1="278.39" y1="30.91" x2="278.39" y2="59.29"/>
          <line class="cls-7" x1="283.32" y1="30.91" x2="283.32" y2="59.29"/>
          <line class="cls-7" x1="288.26" y1="30.91" x2="288.26" y2="59.29"/>
          <line class="cls-7" x1="293.19" y1="30.91" x2="293.19" y2="59.29"/>
          <line class="cls-7" x1="298.13" y1="30.91" x2="298.13" y2="59.29"/>
          <line class="cls-7" x1="303.06" y1="30.91" x2="303.06" y2="59.29"/>
          <line class="cls-7" x1="308" y1="30.91" x2="308" y2="59.29"/>
          <line class="cls-7" x1="312.93" y1="30.91" x2="312.93" y2="59.29"/>
          <line class="cls-7" x1="317.87" y1="30.91" x2="317.87" y2="59.29"/>
          <line class="cls-7" x1="322.8" y1="30.91" x2="322.8" y2="59.29"/>
          <line class="cls-7" x1="327.74" y1="30.91" x2="327.74" y2="59.29"/>
          <line class="cls-7" x1="332.67" y1="30.91" x2="332.67" y2="59.29"/>
          <line class="cls-7" x1="337.61" y1="30.91" x2="337.61" y2="59.29"/>
          <line class="cls-7" x1="342.54" y1="30.91" x2="342.54" y2="59.29"/>
          <line class="cls-7" x1="347.48" y1="30.91" x2="347.48" y2="59.29"/>
          <line class="cls-7" x1="352.42" y1="30.91" x2="352.42" y2="59.29"/>
          <line class="cls-7" x1="357.35" y1="30.91" x2="357.35" y2="59.29"/>
          <line class="cls-7" x1="243.84" y1="59.29" x2="243.84" y2="87.67"/>
          <line class="cls-7" x1="248.78" y1="59.29" x2="248.78" y2="87.67"/>
          <line class="cls-7" x1="253.71" y1="59.29" x2="253.71" y2="87.67"/>
          <line class="cls-7" x1="258.65" y1="59.29" x2="258.65" y2="87.67"/>
          <line class="cls-7" x1="263.58" y1="59.29" x2="263.58" y2="87.67"/>
          <line class="cls-7" x1="268.52" y1="59.29" x2="268.52" y2="87.67"/>
          <line class="cls-7" x1="273.45" y1="59.29" x2="273.45" y2="87.67"/>
          <line class="cls-7" x1="278.39" y1="59.29" x2="278.39" y2="87.67"/>
          <line class="cls-7" x1="283.32" y1="59.29" x2="283.32" y2="87.67"/>
          <line class="cls-7" x1="288.26" y1="59.29" x2="288.26" y2="87.67"/>
          <line class="cls-7" x1="293.19" y1="59.29" x2="293.19" y2="87.67"/>
          <line class="cls-7" x1="298.13" y1="59.29" x2="298.13" y2="87.67"/>
          <line class="cls-7" x1="303.06" y1="59.29" x2="303.06" y2="87.67"/>
          <line class="cls-7" x1="308" y1="59.29" x2="308" y2="87.67"/>
          <line class="cls-7" x1="312.93" y1="59.29" x2="312.93" y2="87.67"/>
          <line class="cls-7" x1="317.87" y1="59.29" x2="317.87" y2="87.67"/>
          <line class="cls-7" x1="322.8" y1="59.29" x2="322.8" y2="87.67"/>
          <line class="cls-7" x1="327.74" y1="59.29" x2="327.74" y2="87.67"/>
          <line class="cls-7" x1="332.67" y1="59.29" x2="332.67" y2="87.67"/>
          <line class="cls-7" x1="337.61" y1="59.29" x2="337.61" y2="87.67"/>
          <line class="cls-7" x1="342.54" y1="59.29" x2="342.54" y2="87.67"/>
          <line class="cls-7" x1="347.48" y1="59.29" x2="347.48" y2="87.67"/>
          <line class="cls-7" x1="352.42" y1="59.29" x2="352.42" y2="87.67"/>
          <line class="cls-7" x1="357.35" y1="59.29" x2="357.35" y2="87.67"/>
        </g>
      </g>
      <g class="cls-20">
        <g>
          <line class="cls-7" x1="243.84" y1="536.45" x2="243.84" y2="564.84"/>
          <line class="cls-7" x1="248.78" y1="536.45" x2="248.78" y2="564.84"/>
          <line class="cls-7" x1="253.71" y1="536.45" x2="253.71" y2="564.84"/>
          <line class="cls-7" x1="258.65" y1="536.45" x2="258.65" y2="564.84"/>
          <line class="cls-7" x1="263.58" y1="536.45" x2="263.58" y2="564.84"/>
          <line class="cls-7" x1="268.52" y1="536.45" x2="268.52" y2="564.84"/>
          <line class="cls-7" x1="273.45" y1="536.45" x2="273.45" y2="564.84"/>
          <line class="cls-7" x1="278.39" y1="536.45" x2="278.39" y2="564.84"/>
          <line class="cls-7" x1="283.32" y1="536.45" x2="283.32" y2="564.84"/>
          <line class="cls-7" x1="288.26" y1="536.45" x2="288.26" y2="564.84"/>
          <line class="cls-7" x1="293.19" y1="536.45" x2="293.19" y2="564.84"/>
          <line class="cls-7" x1="298.13" y1="536.45" x2="298.13" y2="564.84"/>
          <line class="cls-7" x1="303.06" y1="536.45" x2="303.06" y2="564.84"/>
          <line class="cls-7" x1="308" y1="536.45" x2="308" y2="564.84"/>
          <line class="cls-7" x1="312.93" y1="536.45" x2="312.93" y2="564.84"/>
          <line class="cls-7" x1="317.87" y1="536.45" x2="317.87" y2="564.84"/>
          <line class="cls-7" x1="322.8" y1="536.45" x2="322.8" y2="564.84"/>
          <line class="cls-7" x1="327.74" y1="536.45" x2="327.74" y2="564.84"/>
          <line class="cls-7" x1="332.67" y1="536.45" x2="332.67" y2="564.84"/>
          <line class="cls-7" x1="337.61" y1="536.45" x2="337.61" y2="564.84"/>
          <line class="cls-7" x1="342.54" y1="536.45" x2="342.54" y2="564.84"/>
          <line class="cls-7" x1="347.48" y1="536.45" x2="347.48" y2="564.84"/>
          <line class="cls-7" x1="352.42" y1="536.45" x2="352.42" y2="564.84"/>
          <line class="cls-7" x1="357.35" y1="536.45" x2="357.35" y2="564.84"/>
          <line class="cls-7" x1="243.84" y1="564.84" x2="243.84" y2="593.22"/>
          <line class="cls-7" x1="248.78" y1="564.84" x2="248.78" y2="593.22"/>
          <line class="cls-7" x1="253.71" y1="564.84" x2="253.71" y2="593.22"/>
          <line class="cls-7" x1="258.65" y1="564.84" x2="258.65" y2="593.22"/>
          <line class="cls-7" x1="263.58" y1="564.84" x2="263.58" y2="593.22"/>
          <line class="cls-7" x1="268.52" y1="564.84" x2="268.52" y2="593.22"/>
          <line class="cls-7" x1="273.45" y1="564.84" x2="273.45" y2="593.22"/>
          <line class="cls-7" x1="278.39" y1="564.84" x2="278.39" y2="593.22"/>
          <line class="cls-7" x1="283.32" y1="564.84" x2="283.32" y2="593.22"/>
          <line class="cls-7" x1="288.26" y1="564.84" x2="288.26" y2="593.22"/>
          <line class="cls-7" x1="293.19" y1="564.84" x2="293.19" y2="593.22"/>
          <line class="cls-7" x1="298.13" y1="564.84" x2="298.13" y2="593.22"/>
          <line class="cls-7" x1="303.06" y1="564.84" x2="303.06" y2="593.22"/>
          <line class="cls-7" x1="308" y1="564.84" x2="308" y2="593.22"/>
          <line class="cls-7" x1="312.93" y1="564.84" x2="312.93" y2="593.22"/>
          <line class="cls-7" x1="317.87" y1="564.84" x2="317.87" y2="593.22"/>
          <line class="cls-7" x1="322.8" y1="564.84" x2="322.8" y2="593.22"/>
          <line class="cls-7" x1="327.74" y1="564.84" x2="327.74" y2="593.22"/>
          <line class="cls-7" x1="332.67" y1="564.84" x2="332.67" y2="593.22"/>
          <line class="cls-7" x1="337.61" y1="564.84" x2="337.61" y2="593.22"/>
          <line class="cls-7" x1="342.54" y1="564.84" x2="342.54" y2="593.22"/>
          <line class="cls-7" x1="347.48" y1="564.84" x2="347.48" y2="593.22"/>
          <line class="cls-7" x1="352.42" y1="564.84" x2="352.42" y2="593.22"/>
          <line class="cls-7" x1="357.35" y1="564.84" x2="357.35" y2="593.22"/>
        </g>
      </g>
      <path class="cls-8" d="m274.61,220.57s12.53-23.25,23.39-23.34c22.29-.19,23.39,34.3,23.39,34.3,0,0-37.17,3.22-46.78-10.96Z"/>
      <path class="cls-9" d="m274.61,217.98s12.53-23.25,23.39-23.34c22.29-.19,23.39,34.3,23.39,34.3,0,0-37.17,3.22-46.78-10.96Z"/>
      <path class="cls-12" d="m352.52,275.16h-68.45c-5.25,0-9.51,4.28-9.51,9.56v78.6c0,5.28,4.26,9.56,9.51,9.56h68.45c5.25,0,9.51-4.28,9.51-9.56v-78.6c0-5.28-4.26-9.56-9.51-9.56Zm-8.94,68.68c0,4.66-3.76,8.43-8.39,8.43h-33.8c-4.63,0-8.39-3.78-8.39-8.43v-39.64c0-4.66,3.76-8.43,8.39-8.43h33.8c4.63,0,8.39,3.78,8.39,8.43v39.64Z"/>
      <path class="cls-12" d="m248.21,275.22l18.73.24v53.96h-18.73v-54.19Z"/>
      <path class="cls-12" d="m243.8,334.53s-1.15,10.03,0,11.8c1.15,1.77,4.6,2.36,3.74,4.13s-5.75,1.77-5.75,4.72,4.55,6.5,4.19,7.38-3.59,10.25,1.21,11.22c2.85.57,27.37-.05,27.37-1.23s-4.29-9.98-4.87-14.12c-.58-4.13,3.89-14.57,3.16-17.71-.87-3.74-3.43-10.35-15.27-10.34-5.76,0-13.61,2.42-13.78,4.15Z"/>
      <path class="cls-6" d="m243.47,345.28s11.94-3.12,15.27.09c3.33,3.2,5.07,9.37,3.53,11.49-2.03,2.78-4.09.2-4.09.2"/>
      <polygon class="cls-8" points="274.06 469.37 302.79 491.61 299.41 494.19 271.13 471.71 274.06 469.37"/>
      <path class="cls-18" d="m241.39,259.58c.68.1-.04-10.01,4.05-12.15,4.44-2.33,12.12-1.61,12.23-1.95s-9.98-1.76-14-.11c-2.26.92-3.89,13.99-2.28,14.22Z"/>
      <path class="cls-18" d="m358.6,259.14c-.68.1.04-10.01-4.05-12.15-4.44-2.33-12.12-1.61-12.23-1.95s9.98-1.76,14-.11c2.26.92,3.89,13.99,2.28,14.22Z"/>
      <path class="cls-1" d="m242.05,267.62c.92.46,45.59.91,53.91.79s61.65-.68,61.65-.68c0,0,.28,3.09-1.04,3.21s-56.36.49-60.72.57c-6.29.11-51.39-.11-52.18-.69s-1.62-3.2-1.62-3.2Z"/>
      <path class="cls-18" d="m241.39,392.13c.68.1-.04-10.01,4.05-12.15,4.44-2.33,12.12-1.61,12.23-1.95s-9.98-1.76-14-.11c-2.26.92-3.89,13.99-2.28,14.22Z"/>
      <path class="cls-18" d="m358.6,391.69c-.68.1.04-10.01-4.05-12.15-4.44-2.33-12.12-1.61-12.23-1.95s9.98-1.76,14-.11c2.26.92,3.89,13.99,2.28,14.22Z"/>
      <path class="cls-1" d="m242.05,400.17c.92.46,45.59.91,53.91.79,8.32-.11,61.65-.68,61.65-.68,0,0,.28,3.09-1.04,3.21-1.33.11-56.36.49-60.72.57-6.29.11-51.39-.11-52.18-.69s-1.62-3.2-1.62-3.2Z"/>
      <path class="cls-18" d="m241.39,554.72c.68.1-.04-10.01,4.05-12.15,4.44-2.33,12.12-1.61,12.23-1.95s-9.98-1.76-14-.11c-2.26.92-3.89,13.99-2.28,14.22Z"/>
      <path class="cls-18" d="m358.6,554.27c-.68.1.04-10.01-4.05-12.15-4.44-2.33-12.12-1.61-12.23-1.95s9.98-1.76,14-.11c2.26.92,3.89,13.99,2.28,14.22Z"/>
      <path class="cls-1" d="m242.05,562.75c.92.46,45.59.91,53.91.79,8.32-.11,61.65-.68,61.65-.68,0,0,.28,3.09-1.04,3.21s-56.36.49-60.72.57c-6.29.11-51.39-.11-52.18-.69s-1.62-3.2-1.62-3.2Z"/>
      <path class="cls-18" d="m343.68,281.99c1.32-3.36,10.52-.46,12.05,1.9s3.19,6.79,1.53,7.07-1.24-3.54-4.5-4.54-9.91-2.31-9.08-4.43Z"/>
      <path class="cls-1" d="m266.4,358.46c1.14-.62,4.19,10.17,3.2,10.93s-8.02,1.47-11.38,1.61c-2.29.1-9.56.19-9.22-.29s15.7-1.02,17.4-3.61c.69-1.06-.53-8.35,0-8.64Z"/>
      <path class="cls-18" d="m246.86,340.35c-.56.4-.35-4.2.49-4.89s3.52-1.83,4.89-1.99-2.86,1.53-3.3,2.45-1.66,4.13-2.08,4.43Z"/>
      <polygon class="cls-1" points="262.94 309.92 262.94 325.99 250.41 325.99 260.49 324.44 262.94 309.92"/>
      <polygon class="cls-18" points="250.41 293.76 250.41 277.69 262.94 277.69 252.85 279.23 250.41 293.76"/>
      <path class="cls-18" d="m240.82,40.94c-.23-.69-.92-6.88,24.76-6.42s90.17.46,91.63,1.15,3.88,3.67,1.94,3.67-102.74-.69-107.1-.46-11.24,2.06-11.24,2.06Z"/>
      <path class="cls-1" d="m240.11,56.68c.92.46,45.59.91,53.91.79s61.65-.68,61.65-.68c0,0,.28,3.09-1.04,3.21s-56.36.49-60.72.57c-6.29.11-51.39-.11-52.18-.69s-1.62-3.2-1.62-3.2Z"/>
      <path class="cls-1" d="m257.43,105.71s7.94-6.58,12.46-6.42c7.64.27,13.38,7.02,13.61,6.72s-2.4-11.44-12.97-10.97-13.1,9.3-13.1,10.67Z"/>
      <path class="cls-1" d="m314.34,105.71s7.94-6.58,12.46-6.42c7.64.27,13.38,7.02,13.61,6.72s-2.4-11.44-12.97-10.97-13.1,9.3-13.1,10.67Z"/>
      <path class="cls-2" d="m260.15,125.44s3.96,10.26,10.62,10.43,12.68-12.81,12.25-14.04-5.9,11.71-12.27,11.68c-6.36-.03-9.49-8.25-10.61-8.06Z"/>
      <path class="cls-2" d="m316.96,125.44s3.96,10.26,10.62,10.43,12.68-12.81,12.25-14.04-5.9,11.71-12.27,11.68c-6.36-.03-9.49-8.25-10.61-8.06Z"/>
      <path class="cls-1" d="m278.45,351.03c-.92,0-.84,10.45,1.45,17.72,1.3,4.12,63.72,1.76,63.71.31-.03-3.59-56.37,2.45-60.73-2.52-3.78-4.31-2.83-15.51-4.43-15.51Z"/>
      <path class="cls-18" d="m343.68,423.77c-.19-1.97,12.96-2.26,14.49.1,2.06,3.17,1.49,12.53-.19,12.54-1.72,0-.08-7.26-2.83-10.24-2.31-2.51-11.24.1-11.47-2.39Z"/>
      <path class="cls-18" d="m257.11,423.77c.19-1.97-12.96-2.26-14.49.1-2.06,3.17-1.49,12.53.19,12.54,1.72,0,.08-7.26,2.83-10.24,2.31-2.51,11.24.1,11.47-2.39Z"/>
      <path class="cls-1" d="m343.68,520.86c-.19,1.97,12.96,2.26,14.49-.1,2.06-3.17,1.49-12.53-.19-12.54s-.08,7.26-2.83,10.24c-2.31,2.51-11.24-.1-11.47,2.39Z"/>
      <path class="cls-1" d="m257.11,520.86c.19,1.97-12.96,2.26-14.49-.1-2.06-3.17-1.49-12.53.19-12.54s.08,7.26,2.83,10.24c2.31,2.51,11.24-.1,11.47,2.39Z"/>
    </g>
  </g>
</svg>