<?xml version="1.0" encoding="UTF-8"?>
<svg xmlns="http://www.w3.org/2000/svg" viewBox="0 0 600 600">
  <defs>
    <style>
      .cls-1 {
        fill: none;
      }

      .cls-1, .cls-2, .cls-3, .cls-4, .cls-5, .cls-6 {
        stroke: #231f20;
      }

      .cls-1, .cls-2, .cls-3, .cls-4, .cls-6, .cls-7, .cls-8 {
        stroke-miterlimit: 10;
      }

      .cls-9, .cls-10, .cls-6, .cls-8 {
        fill: #c33;
      }

      .cls-11 {
        opacity: .84;
      }

      .cls-11, .cls-12, .cls-13, .cls-14, .cls-15, .cls-16, .cls-17 {
        fill: #a3a3a3;
      }

      .cls-11, .cls-18, .cls-19, .cls-20, .cls-21, .cls-16 {
        mix-blend-mode: multiply;
      }

      .cls-2, .cls-3 {
        fill: #fff;
      }

      .cls-22 {
        isolation: isolate;
      }

      .cls-23 {
        fill: #3499cc;
      }

      .cls-24 {
        fill: #cb9831;
      }

      .cls-12 {
        opacity: .51;
      }

      .cls-12, .cls-13, .cls-14, .cls-15, .cls-17 {
        mix-blend-mode: screen;
      }

      .cls-13 {
        opacity: .52;
      }

      .cls-3 {
        stroke-width: .75px;
      }

      .cls-18 {
        opacity: .49;
      }

      .cls-18, .cls-21 {
        fill: #333;
      }

      .cls-19 {
        opacity: .31;
      }

      .cls-19, .cls-20, .cls-25 {
        fill: #050606;
      }

      .cls-4 {
        fill: #b1bac5;
      }

      .cls-14 {
        opacity: .72;
      }

      .cls-10, .cls-5 {
        stroke-linecap: round;
        stroke-linejoin: round;
      }

      .cls-10, .cls-5, .cls-7, .cls-8 {
        stroke-width: 4px;
      }

      .cls-10, .cls-7, .cls-8 {
        stroke: #4b1312;
      }

      .cls-26, .cls-5 {
        fill: #debc32;
      }

      .cls-27 {
        fill: #4b1312;
      }

      .cls-20 {
        opacity: .23;
      }

      .cls-25 {
        opacity: .43;
      }

      .cls-21 {
        opacity: .37;
      }

      .cls-28 {
        fill: #491615;
      }

      .cls-29 {
        fill: #cfa94f;
      }

      .cls-7, .cls-30 {
        fill: #231f20;
      }

      .cls-15 {
        opacity: .34;
      }

      .cls-31 {
        fill: #996632;
      }

      .cls-16 {
        opacity: .71;
      }

      .cls-17 {
        opacity: .41;
      }
    </style>
  </defs>
  <g class="cls-22">
    <g id="Layer_1" data-name="Layer 1">
      <ellipse class="cls-20" cx="297.27" cy="506.09" rx="114.33" ry="4.65"/>
      <g>
        <polygon class="cls-9" points="400.81 503.53 410.6 495.63 341.9 414.97 336.55 419.88 400.81 503.53"/>
        <path class="cls-27" d="m400.81,503.53c3.3-2.81,6.41-5.62,9.49-8.28l-.07.69c-5.95-6.53-11.86-13.1-17.73-19.7-16.3-18.25-36.15-41.28-52.12-59.99,0,0,2.86.18,2.86.18l-5.37,4.89.23-2.65c20.98,27.35,42.42,56.82,62.7,84.85h0Zm0,0c-21.91-26.79-44.75-55.06-65.82-82.45,0,0-1.1-1.42-1.1-1.42.85-.8,5.71-5.25,6.67-6.15,0,0,1.52-1.4,1.52-1.4l1.34,1.58c15.96,18.78,35.48,41.97,50.93,61,5.69,6.98,11.35,13.99,16.95,21.04,0,0-.39.29-.39.29l-10.1,7.52h0Z"/>
      </g>
      <g>
        <path class="cls-29" d="m393.06,503.51c2.29,3.97,7.28,5.6,12.35,4.49,1.54-.34,3.09-.93,4.57-1.78.29-.17.57-.34.84-.52,1.54-1.01,2.83-2.24,3.84-3.58,1-1.3,1.72-2.71,2.15-4.16.81-2.65.64-5.41-.72-7.75-1.67-2.9-4.78-4.55-8.32-4.79-1.37-.11-2.81.01-4.25.35-1.47.34-2.94.92-4.35,1.73-.31.18-.61.37-.9.56-1.57,1.05-2.89,2.32-3.9,3.71-2.71,3.66-3.37,8.17-1.31,11.74Z"/>
        <path class="cls-28" d="m393.19,503.44c5.31,8.66,19.1,3.68,22.22-4.47,3.29-8.07-3.79-13.74-11.49-11.68-6.74,1.47-14.46,8.85-10.73,16.15h0Zm-.26.15c-5.49-9.88,5.07-21.21,15.51-19.59,7.81.92,12.22,8.63,8.75,15.75-3.95,9.05-18.38,12.89-24.27,3.85h0Z"/>
      </g>
      <g>
        <polygon class="cls-9" points="192.8 503.53 183.01 495.63 251.71 414.97 257.06 419.88 192.8 503.53"/>
        <path class="cls-27" d="m192.8,503.53l-10.1-7.52-.39-.29c5.6-7.05,11.26-14.06,16.95-21.04,15.42-18.99,35-42.26,50.93-61,0,0,1.34-1.58,1.34-1.58l1.52,1.4c1.01.89,5.77,5.35,6.67,6.15,0,0-1.1,1.42-1.1,1.42-21.05,27.37-43.93,55.69-65.82,82.45h0Zm0,0c20.29-28.06,41.7-57.48,62.7-84.85,0,0,.23,2.65.23,2.65l-5.37-4.89,2.86-.18c-16,18.75-35.8,41.7-52.12,59.99-5.87,6.6-11.77,13.17-17.73,19.7l-.07-.69c3.08,2.65,6.19,5.46,9.49,8.28h0Z"/>
      </g>
      <g>
        <path class="cls-29" d="m200.55,503.51c-2.29,3.97-7.28,5.6-12.35,4.49-1.54-.34-3.09-.93-4.57-1.78-.29-.17-.57-.34-.84-.52-1.54-1.01-2.83-2.24-3.84-3.58-1-1.3-1.72-2.71-2.15-4.16-.81-2.65-.64-5.41.72-7.75,1.67-2.9,4.78-4.55,8.32-4.79,1.37-.11,2.81.01,4.25.35,1.47.34,2.94.92,4.35,1.73.31.18.61.37.9.56,1.57,1.05,2.89,2.32,3.9,3.71,2.71,3.66,3.37,8.17,1.31,11.74Z"/>
        <path class="cls-28" d="m200.68,503.58c-5.89,9.04-20.32,5.2-24.27-3.85-3.46-7.12.94-14.83,8.75-15.75,10.44-1.62,21,9.72,15.51,19.59h0Zm-.26-.15c3.73-7.31-3.99-14.68-10.73-16.15-7.69-2.06-14.78,3.6-11.49,11.68,3.12,8.15,16.91,13.13,22.22,4.47h0Z"/>
      </g>
      <ellipse class="cls-13" cx="181.76" cy="490.38" rx="4.44" ry="1.24" transform="translate(-220.84 156.58) rotate(-30)"/>
      <path class="cls-11" d="m201.3,502.96s-4.28,5.38-13.45,1.11c-8.49-3.95-11.06-8.56-11.06-8.56,0,0,.66,8.02,7.3,10.71,11.87,4.81,17.21-3.26,17.21-3.26Z"/>
      <path class="cls-12" d="m185.25,486.57s5.27.29,8.52,2.06c4.2,2.29,6.61,7.26,6.23,7.64s-3.67-1.22-8.41-4.24c-3.55-2.26-6.42-4.78-6.34-5.46Z"/>
      <polygon class="cls-25" points="359.16 435.35 351.44 439.57 338.93 422.71 345.12 418.81 359.16 435.35"/>
      <polygon class="cls-25" points="233.38 437.03 241.1 441.25 253.62 424.39 247.43 420.49 233.38 437.03"/>
      <g>
        <path class="cls-30" d="m190.09,485.77c-.36,2.99-1.12,6.68-2.68,9.09-1.98,3.05-5.38,5.52-8.46,7.26-1-1.3-1.72-2.71-2.15-4.16,2.47-1.54,5-3.43,6.4-5.41,1.5-2.11,2.26-4.79,2.64-7.13,1.37-.11,2.81.01,4.25.35Z"/>
        <path class="cls-30" d="m199.24,491.77c-.36,2.98-1.12,6.63-2.67,9.02-1.96,3.03-5.32,5.46-8.37,7.21-1.54-.34-3.09-.93-4.57-1.78-.29-.17-.57-.34-.84-.52,3.15-1.67,7.54-4.35,9.57-7.22,2.28-3.22,2.85-7.75,2.98-10.42,1.57,1.05,2.89,2.32,3.9,3.71Z"/>
        <path class="cls-30" d="m403.52,485.77c.36,2.99,1.12,6.68,2.68,9.09,1.98,3.05,5.38,5.52,8.46,7.26,1-1.3,1.72-2.71,2.15-4.16-2.47-1.54-5-3.43-6.4-5.41-1.5-2.11-2.26-4.79-2.64-7.13-1.37-.11-2.81.01-4.25.35Z"/>
        <path class="cls-30" d="m394.37,491.77c.36,2.98,1.12,6.63,2.67,9.02,1.96,3.03,5.32,5.46,8.37,7.21,1.54-.34,3.09-.93,4.57-1.78.29-.17.57-.34.84-.52-3.15-1.67-7.54-4.35-9.57-7.22-2.28-3.22-2.85-7.75-2.98-10.42-1.57,1.05-2.89,2.32-3.9,3.71Z"/>
      </g>
      <path class="cls-7" d="m437.68,301c0,62.75-36.49,115.43-100.62,130.35-1.57.37-3.16.71-4.76,1.03-.59.12-1.19.23-1.79.34-.82.16-1.66.31-2.5.45-.77.13-1.54.26-2.32.38-1.91.3-3.84.57-5.8.79-.65.08-1.31.16-1.98.23-1.99.21-4,.39-6.03.54-2.04.14-4.09.25-6.17.33-.43.02-.87.04-1.3.05-.58.02-1.16.03-1.75.04-1.28.03-2.57.05-3.87.05-1.18,0-2.35,0-3.52-.04-.57-.01-1.13-.03-1.69-.04-1.46-.04-2.9-.11-4.33-.2-.56-.03-1.11-.06-1.67-.1-.07,0-.14-.01-.2-.02-.54-.03-1.08-.07-1.62-.11-1.21-.1-2.41-.21-3.61-.34-.66-.07-1.33-.14-1.99-.22-.62-.07-1.25-.15-1.87-.23-.1-.01-.21-.02-.31-.04-.59-.07-1.17-.16-1.76-.24-.95-.14-1.89-.28-2.83-.43-.71-.12-1.42-.24-2.13-.37-.55-.09-1.1-.2-1.64-.3-.12-.02-.24-.04-.36-.07-.53-.09-1.06-.2-1.59-.31-.59-.12-1.19-.24-1.78-.37-.41-.09-.81-.17-1.21-.27-1.26-.28-2.5-.58-3.74-.89-60.84-15.41-100.62-67.79-100.62-129.99,0-20.94,2.6-37.13,7.84-53.27,4.26-13.13,10.27-26.24,18.06-41.87,2.2-4.41,2.68-7.63,2.01-10.01-.51-1.84-1.71-3.17-3.34-4.16-2.35-3.51-3.59-7.19-3.59-10.98s1.16-7.21,3.35-10.61c14.53-4.02,34.75-7.24,58.45-9.26,17.04-1.46,35.88-2.29,55.69-2.37,19.23-.08,38.42.8,56.14,2.41,24.4,2.22,45.99,5.85,60.99,10.34,1.75,3.06,2.67,6.23,2.67,9.49s-.97,6.63-2.83,9.77c-3.65,1.25-6.28,3.43-6.28,7.5,0,2.08.69,4.67,2.29,7.88,7.67,15.39,13.62,28.32,17.87,41.25,5.38,16.35,8.04,32.68,8.04,53.89Z"/>
      <path class="cls-23" d="m392.38,272.7c0,54.32-34.13,90.52-51,124.47-3.25,6.55-4.33,18.49-4.32,31.48-11.83,2.73-24.61,4.18-38.27,4.19-13.33,0-25.99-1.57-37.85-4.54-.01-12.85-1.1-24.62-4.32-31.12-16.87-33.95-51-70.16-51-124.47,0-45.78,14.73-86.42,37.48-111.88,17.04-1.45,35.88-2.27,55.69-2.35,19.23-.08,38.42.79,56.14,2.39,22.74,25.47,37.45,66.09,37.45,111.84Z"/>
      <polygon class="cls-5" points="299.3 252.91 270.02 337.13 331.47 337.13 299.3 252.91"/>
      <g>
        <polygon class="cls-31" points="299.78 314.2 286.94 293.47 312.62 293.47 299.78 314.2"/>
        <polygon class="cls-31" points="299.78 314.2 286.94 334.92 312.62 334.92 299.78 314.2"/>
      </g>
      <g>
        <path class="cls-26" d="m257.34,279.39c0,12.24-5.8,22.16-12.97,22.16s-12.97-9.92-12.97-22.16c0-1.93.14-3.8.42-5.58,2.51-.62,7.24-2.36,12.51-7.23,2.63-2.44,4.68-4.72,6.24-6.67,4.03,3.76,6.77,11.07,6.77,19.48Z"/>
        <path class="cls-30" d="m257.54,279.39c-.18,7.15-.29,15.47-5.81,20.84-14.89,11.89-23.19-15.53-21.59-26.69,0,0,.11-1.03.11-1.03,3.92-1.05,7.54-3.11,10.7-5.8,3.39-2.91,6.61-6.31,9.51-9.73,6.54,5.52,7.06,14.49,7.07,22.4h0Zm-.4,0c-.03-6.7-3.01-13.55-7.93-18.02,0,0,2.91-.21,2.91-.21-2.5,3.31-5.24,6.28-8.55,8.84-3.34,2.52-7.12,4.57-11.34,5.47l1.27-1.39c-1.46,7.04-1.55,15.52,2.96,21.63,5.2,6.88,11.8,4.88,16.17-2.12,2.77-4.08,4.55-9.17,4.5-14.2h0Z"/>
      </g>
      <circle class="cls-6" cx="244.37" cy="282.53" r="7.48"/>
      <g>
        <circle class="cls-2" cx="242.85" cy="284.79" r="2.46"/>
        <circle class="cls-2" cx="246.13" cy="280.36" r="2.46"/>
      </g>
      <g>
        <circle class="cls-3" cx="241.99" cy="281.1" r="1.23"/>
        <circle class="cls-3" cx="246.3" cy="284.34" r="1.23"/>
      </g>
      <polygon class="cls-10" points="336.37 382.11 265.12 382.11 278.49 363.15 324.35 363.15 336.37 382.11"/>
      <path class="cls-18" d="m357.79,307.92s-8.11,23.38.75,22.91,5.12-13.06,3.41-15.71c-1.71-2.65-3.31-7.57-4.16-7.19Z"/>
      <path class="cls-4" d="m357.53,305.92s-7.19,23.38.66,22.91,4.54-13.06,3.03-15.71c-1.51-2.65-2.93-7.57-3.69-7.19Z"/>
      <path class="cls-18" d="m244.94,299.76c-1.35-.72-2.63-3.45-4.02-4.11-1.02-.49-3.6.51-4.55-.1-1.37-.88-3.7-3.72-5.81-.78s2.3,3.84,3.38,4.89c1.9,1.85,2.11,6.46.85,10.18s-7.61,20.27,0,23.2,3.7-13.8,3.49-19.14-.51-9.25,0-9.55c.55-.32,1.57,1.21,2.22,1.27.57.05,1.65-.56,2.22-.49,1.18.14,3.03,2.03,4.23,2.05,1.35.03,3.76,0,3.81-3.52.04-2.84-4.55-3.23-5.81-3.91Z"/>
      <path class="cls-4" d="m244.37,297.76c-1.25-.72-2.43-3.45-3.72-4.11-.94-.49-3.34.51-4.21-.1-1.27-.88-3.43-3.72-5.38-.78s2.13,3.84,3.13,4.89c1.76,1.85,1.96,6.46.78,10.18s-7.05,20.27,0,23.2,3.43-13.8,3.23-19.14-.47-9.25,0-9.55c.51-.32,1.45,1.21,2.06,1.27.53.05,1.53-.56,2.06-.49,1.1.14,2.81,2.03,3.91,2.05,1.25.03,3.48,0,3.52-3.52.04-2.84-4.21-3.23-5.38-3.91Z"/>
      <path class="cls-30" d="m224.25,274.43c8.68-3.57,15.23-10.36,21.9-16.68,2.31-2.03,4.61-4.08,7.18-6.08l.33.22c-3.08,9.43-11.66,15.7-20.27,19.8-2.92,1.33-5.91,2.49-9.05,3.12l-.1-.39h0Z"/>
      <path class="cls-30" d="m258.54,247.72c2.52,1.81,2.72,5.38.58,7.61-.44-1.28-.44-2.59-.49-3.82-.11-1.09-.44-2.52-.09-3.78h0Z"/>
      <g>
        <path class="cls-26" d="m341.75,279.39c0,12.24,5.8,22.16,12.97,22.16s12.97-9.92,12.97-22.16c0-1.93-.14-3.8-.42-5.58-2.51-.62-7.24-2.36-12.51-7.23-2.63-2.44-4.68-4.72-6.24-6.67-4.03,3.76-6.77,11.07-6.77,19.48Z"/>
        <path class="cls-30" d="m341.95,279.39c-.05,5.03,1.74,10.12,4.5,14.2,4.37,6.99,10.97,9,16.17,2.12,4.51-6.11,4.42-14.59,2.96-21.63,0,0,1.27,1.39,1.27,1.39-4.23-.9-8.01-2.95-11.34-5.47-3.31-2.56-6.06-5.53-8.55-8.84,0,0,2.91.21,2.91.21-4.92,4.47-7.9,11.33-7.93,18.02h0Zm-.4,0c.01-7.91.54-16.89,7.07-22.4,5.32,6.06,11.18,12.71,19.06,15.17,0,0,1.16.36,1.16.36.78,5.71-.16,11.46-1.84,16.77-1.78,5.06-3.93,10.34-9.09,13.02-3.49,1.7-7.86.59-10.56-2.07-5.52-5.38-5.63-13.69-5.81-20.84h0Z"/>
      </g>
      <circle class="cls-6" cx="354.4" cy="282.53" r="7.48"/>
      <g>
        <circle class="cls-2" cx="355.92" cy="284.79" r="2.46"/>
        <circle class="cls-2" cx="352.64" cy="280.36" r="2.46"/>
      </g>
      <g>
        <circle class="cls-3" cx="356.78" cy="281.1" r="1.23"/>
        <circle class="cls-3" cx="352.47" cy="284.34" r="1.23"/>
      </g>
      <path class="cls-30" d="m343.12,245.07c-.81,1.26-1.74,2.33-2.13,3.66-.46,1.48-.85,2.81-1.58,4.27-1.81-3.03-.02-7.75,3.72-7.93h0Z"/>
      <path class="cls-30" d="m340.11,232.2c-.95.4-2.11.81-2.66,1.66-.52.94-.86,1.96-1.2,3.08-.62-2.64,1.01-5.08,3.86-4.74h0Z"/>
      <path class="cls-18" d="m354.69,298.75c1.17-.66,1.76-3.99,3.03-4.43,2.49-.86,3.85.53,4.97,0,.97-.46,2.18-2.64,3.24-2.81.87-.14,2.64,1.11,2.92,1.95.65,1.95-.52,4.06-1.62,4.76-.93.59-4.11.41-4.76,1.3-.79,1.07-1.44,3.07-2.49,3.89-.87.69-2.68.9-3.78.97-2.03.13-5.73,4.41-8.21.22-1.38-2.32.37-4.75,1.3-5.51,1.04-.86,4.23.34,5.4-.32Z"/>
      <path class="cls-6" d="m400.14,270.91c0,54.34-34.13,90.56-51,124.53-3.23,6.52-4.32,18.34-4.32,31.25-.14.03-.28.07-.42.1-1.57.37-3.16.7-4.76,1.02-.59.12-1.19.23-1.79.34-.2.04-.4.08-.61.11v-1.33c-.01-13,1.07-24.93,4.32-31.49,16.87-33.96,51-70.19,51-124.53,0-45.77-15.93-85.79-37.45-111.89h7.58c22.74,25.48,37.45,66.12,37.45,111.89Z"/>
      <path class="cls-6" d="m197.51,270.91c0,54.34,34.13,90.56,51,124.53,3.23,6.52,4.19,17.69,4.19,30.6.28.14.56.22.7.27,1.9.7,2.89,1.14,4.61,1.51.79.17,1.19.23,1.79.34.2.04.4.08.61.11v-1.33c.01-13-1.07-24.93-4.32-31.49-16.87-33.96-51-70.19-51-124.53,0-45.77,16.07-83.06,37.45-111.89h-7.58c-22.74,25.48-37.45,66.12-37.45,111.89Z"/>
      <g>
        <path class="cls-24" d="m399.48,232.14c-2.71-11.73,2.08-21.56,8.86-27.09.12.26.25.53.39.81,7.74,15.36,13.74,28.26,18.03,41.16.5,1.5.98,3,1.42,4.51-12.06-1.59-25.83-6.97-28.7-19.39Z"/>
        <path class="cls-24" d="m434.87,300.79c0,55.5-28.92,103.09-80.54,123.56-4.94-8.81-4.1-24.23,1.09-28.91,8.45-7.63,29.22,5.99,33.74-1.53,6.63-11.01-7.86-35.39,0-46.98,7.72-11.36,34.1-1.8,38.52-10.1,1.97-3.67,1.84-8.79-8.39-23.69-11.93-17.38-15.76-18.8-15.6-24.11.31-10.98,16.99-18.73,27.77-24.59,2.27,10.96,3.4,22.62,3.4,36.34Z"/>
      </g>
      <g>
        <path class="cls-1" d="m432.57,270.33c-9.54,4.88-21.42,8.22-21.69,17.67-.15,4.79,4.58,7.84,15.36,23.55,2.95,4.29,5.29,8.04,7.03,11.4"/>
        <path class="cls-1" d="m433.24,274.73c-7.85,3.62-15.35,7.26-15.57,14.76-.15,4.79,4.58,7.84,15.36,23.55.41.6.82,1.2,1.2,1.78"/>
        <path class="cls-1" d="m434.71,307.76c-7.41-10.03-10.71-12.82-10.58-16.83.16-5.55,4.31-8.98,9.64-11.86"/>
        <path class="cls-1" d="m358.11,422.78c-3.23-7.78-1.95-17.91,2.33-21.78,7.64-6.89,24.52,5.15,32.34-1.95,9.55-8.65-5.34-38.28,1.98-48.61,4.06-5.74,21.85-2.58,32.87-3.56"/>
        <path class="cls-1" d="m361.89,421.08c-.52-5.99,1.01-11.89,4.05-14.64,4.65-4.2,12.74-1.37,20.13-.13"/>
        <path class="cls-1" d="m401.53,391.97h0c-.68-12.32-6.37-28.9-1.27-36.09,3.22-4.56,15.09-3.5,25.36-3.36"/>
        <path class="cls-1" d="m381.65,409.59h-.01c-4.24-.63-8.13-.58-10.85,1.88-1.68,1.53-2.91,4.02-3.57,6.96"/>
        <path class="cls-1" d="m405.25,387.66h0c-1.65-10.35-4.04-21.26-.15-26.75,2.52-3.56,10.34-3.7,18.54-3.52"/>
        <path class="cls-1" d="m409.52,208.75c-4.73,2.39-7.76,12.07-5.22,21.76,2.82,10.79,14.24,16.71,22.12,15.51"/>
        <path class="cls-1" d="m413.45,215.37c-4.73,2.39-6.2,6.8-4.4,13.4,2.21,8.1,7.2,12.06,15.08,10.87"/>
        <path class="cls-1" d="m416.21,221.18s-4.28.46-2.77,6.79c1.52,6.33,8.76,6.81,8.76,6.81"/>
      </g>
      <g>
        <path class="cls-24" d="m196.42,231.79c2.61-11.58-2-21.29-8.53-26.74-.12.26-.24.52-.38.8-7.45,15.16-13.23,27.9-17.36,40.63-.49,1.48-.94,2.96-1.37,4.45,11.62-1.57,24.88-6.88,27.64-19.14Z"/>
        <path class="cls-24" d="m162.81,299.08c0,54.79,27.86,101.77,77.58,121.99,4.76-8.7,3.95-23.92-1.05-28.54-8.14-7.54-28.15,5.91-32.5-1.51-6.38-10.86,7.57-34.94,0-46.39-7.43-11.22-32.85-1.78-37.11-9.97-1.89-3.62-1.77-8.68,8.08-23.39,11.5-17.16,15.18-18.56,15.02-23.8-.3-10.84-16.36-18.49-26.75-24.28-2.19,10.82-3.27,22.33-3.27,35.88Z"/>
      </g>
      <g>
        <path class="cls-1" d="m164.35,320.97c1.68-3.32,3.94-7.02,6.77-11.26,10.39-15.5,14.94-18.52,14.8-23.25-.26-9.33-11.7-12.63-20.89-17.45"/>
        <path class="cls-1" d="m163.42,312.93c.37-.57.76-1.16,1.16-1.75,10.39-15.5,14.94-18.52,14.8-23.25-.2-7.4-7.43-10.99-14.99-14.57"/>
        <path class="cls-1" d="m163.87,277.64c5.14,2.85,9.13,6.24,9.29,11.71.13,3.96-3.05,6.72-10.19,16.62"/>
        <path class="cls-1" d="m169.79,344.59c10.61.97,27.75-2.15,31.66,3.52,7.04,10.2-7.3,39.45,1.9,47.99,7.53,7,23.8-4.89,31.15,1.92,4.12,3.82,5.35,13.82,2.24,21.5"/>
        <path class="cls-1" d="m209.82,403.26c7.11-1.22,14.91-4.02,19.39.13,2.92,2.71,4.4,8.54,3.9,14.45"/>
        <path class="cls-1" d="m171.72,350.16c9.89-.14,21.33-1.18,24.43,3.32,4.91,7.1-.57,23.46-1.22,35.62h0"/>
        <path class="cls-1" d="m227.98,415.23c-.64-2.91-1.82-5.37-3.44-6.88-2.62-2.42-6.37-2.47-10.46-1.85h0"/>
        <path class="cls-1" d="m173.63,354.96c7.9-.18,15.43-.04,17.86,3.48,3.74,5.42,1.45,16.19-.15,26.4h0"/>
        <path class="cls-1" d="m186.75,208.7c4.55,2.36,7.47,11.92,5.03,21.48-2.72,10.65-13.72,16.49-21.31,15.31"/>
        <path class="cls-1" d="m182.97,215.24c4.55,2.36,5.97,6.72,4.24,13.23-2.13,8-6.93,11.91-14.52,10.73"/>
        <path class="cls-1" d="m180.3,220.97s4.13.46,2.67,6.71c-1.46,6.25-8.44,6.72-8.44,6.72"/>
      </g>
      <path class="cls-14" d="m233.16,292.67s3.26,1.67,3.26,3.22-3.19-1-3.26-1.61-.65-1.98,0-1.61Z"/>
      <path class="cls-14" d="m233.7,318.04s-1.4,4.05-.96,5.11l.45,1.05s-.18,3.73.98,3.4-.14-9.08-.47-9.56Z"/>
      <path class="cls-19" d="m197.51,188.43l-14.5,23.97s38.21,31.29,115.99,31.29,116.8-30.03,116.8-30.03l-11.46-23.96-206.83-1.27Z"/>
      <path class="cls-14" d="m356.65,317.89s-1.07,8.34,0,8.47l1.07.12s-.13-9.09-1.07-8.59Z"/>
      <path class="cls-19" d="m171.71,347.01c-3.96,2.02,41.76,81.88,127.7,81.88s126.76-74.43,123.49-76.14c-3.61-1.89-46.07,63.9-124.13,63.9s-122.41-72.01-127.06-69.64Z"/>
      <path class="cls-8" d="m418.59,180.71c0,3.36-.97,6.63-2.83,9.77-1.51,2.59-3.63,5.1-6.28,7.5-6.13,5.56-15.14,10.55-26.31,14.71-21.41,7.97-50.8,12.89-83.22,12.89s-63.36-5.18-84.91-13.53c-11.78-4.56-21.01-10.07-26.81-16.2-1.29-1.36-2.41-2.74-3.34-4.16-2.35-3.51-3.59-7.19-3.59-10.98s1.16-7.21,3.35-10.61c12.6-19.66,59.44-34.26,115.3-34.26s104.46,15.16,115.97,35.38c1.75,3.06,2.67,6.23,2.67,9.49Z"/>
      <path class="cls-17" d="m189.48,178.16c-.41,3.95,46.17-24.38,109.51-23.64,60.36.71,110.31,25.47,110.31,22.42s-39.18-36.66-116.18-36.38c-53.46.19-102.73,28.74-103.64,37.61Z"/>
      <path class="cls-16" d="m344.68,265.35s4.27,4.37,9.72,7.24,13.21,4.34,13.21,4.34l-.34-3.13s-4.04-1.38-9.74-4.91-8.45-9.55-9.01-8.99-4.57,5.78-3.84,5.45Z"/>
      <path class="cls-16" d="m254.27,265.35s-4.27,4.37-9.72,7.24-13.21,4.34-13.21,4.34l.34-3.13s4.04-1.38,9.74-4.91,8.45-9.55,9.01-8.99,4.57,5.78,3.84,5.45Z"/>
      <path class="cls-30" d="m373.33,274.52c-11.65-2.67-25.67-10.75-29.69-22.62,0,0,.33-.22.33-.22,2.61,1.96,4.93,4,7.28,6,4.59,4.1,8.8,8.57,13.99,11.98,2.56,1.74,5.29,3.3,8.19,4.48l-.1.39h0Z"/>
      <path class="cls-4" d="m353.96,297.69c1.17-.66,1.76-3.99,3.03-4.43,2.49-.86,3.85.53,4.97,0,.97-.46,2.18-2.64,3.24-2.81.87-.14,2.64,1.11,2.92,1.95.65,1.95-.52,4.06-1.62,4.76-.93.59-4.11.41-4.76,1.3-.79,1.07-1.44,3.07-2.49,3.89-.87.69-2.68.9-3.78.97-2.03.13-5.73,4.41-8.21.22-1.38-2.32.37-4.75,1.3-5.51,1.04-.86,4.23.34,5.4-.32Z"/>
      <path class="cls-14" d="m347.93,300.88c.44-.99,3.1-2.59,3.3-1.83s-1.09,3.11-1.65,2.79-2.17.21-1.65-.96Z"/>
      <path class="cls-14" d="m359.44,294.09c.39-.48,1.95,1.01,3.16.4s1.86-2.72,2.33-2.83,1.02,1.41.56,2.02-1.77,1.92-2.42,1.92-4.28-.71-3.63-1.51Z"/>
      <polygon class="cls-21" points="276.85 368.95 325.69 368.95 323.22 365.17 279.44 365.18 276.85 368.95"/>
      <path class="cls-15" d="m197.44,482.43s36.44-41.91,37.03-41.63l.59.29s-36.54,43.63-37.62,41.34Z"/>
      <path class="cls-15" d="m395.1,480.75s-36.44-41.91-37.03-41.63l-.59.29s36.54,43.63,37.62,41.34Z"/>
      <path class="cls-11" d="m392.7,502.96s4.28,5.38,13.45,1.11c8.49-3.95,11.06-8.56,11.06-8.56,0,0-.66,8.02-7.3,10.71-11.87,4.81-17.21-3.26-17.21-3.26Z"/>
      <path class="cls-12" d="m408.76,486.57s-5.27.29-8.52,2.06c-4.2,2.29-6.61,7.26-6.23,7.64s3.67-1.22,8.41-4.24c3.55-2.26,6.42-4.78,6.34-5.46Z"/>
    </g>
  </g>
</svg>