<?xml version="1.0" encoding="UTF-8"?>
<svg xmlns="http://www.w3.org/2000/svg" xmlns:xlink="http://www.w3.org/1999/xlink" viewBox="0 0 600 600">
  <defs>
    <style>
      .cls-1 {
        fill: #c33;
      }

      .cls-2, .cls-3 {
        fill: #fdb716;
      }

      .cls-4 {
        stroke-width: 2.56px;
      }

      .cls-4, .cls-5, .cls-6, .cls-7, .cls-8, .cls-9, .cls-10, .cls-11, .cls-12, .cls-13, .cls-14 {
        fill: none;
      }

      .cls-4, .cls-5, .cls-6, .cls-7, .cls-8, .cls-9, .cls-10, .cls-11, .cls-13, .cls-14 {
        stroke: #402c12;
        stroke-dasharray: 0 0 0 6.5;
      }

      .cls-4, .cls-5, .cls-6, .cls-7, .cls-8, .cls-9, .cls-10, .cls-11, .cls-13, .cls-14, .cls-3 {
        stroke-linecap: round;
      }

      .cls-5 {
        stroke-width: 4.39px;
      }

      .cls-15 {
        fill: #331a1a;
      }

      .cls-16 {
        fill: #fff;
      }

      .cls-16, .cls-17, .cls-18, .cls-19 {
        stroke: #231f20;
        stroke-miterlimit: 10;
      }

      .cls-20 {
        isolation: isolate;
      }

      .cls-6 {
        stroke-width: 3.17px;
      }

      .cls-7 {
        stroke-width: 4.08px;
      }

      .cls-8 {
        stroke-width: 3.47px;
      }

      .cls-9 {
        stroke-width: 5px;
      }

      .cls-21 {
        fill: #231f20;
        mix-blend-mode: darken;
        opacity: .35;
      }

      .cls-17 {
        fill: #46c8f5;
      }

      .cls-10 {
        stroke-width: 4.69px;
      }

      .cls-18 {
        fill: #171717;
      }

      .cls-11 {
        stroke-width: 2.25px;
      }

      .cls-22 {
        fill: #7ad2f1;
      }

      .cls-23 {
        fill: #ec9622;
      }

      .cls-24 {
        fill: #1f9748;
      }

      .cls-25 {
        fill: #ababab;
        mix-blend-mode: screen;
        opacity: .53;
      }

      .cls-19 {
        fill: #f6ec1d;
      }

      .cls-13 {
        stroke-width: 2.86px;
      }

      .cls-26 {
        fill: url(#Dots_brown);
        opacity: .63;
      }

      .cls-14 {
        stroke-width: 3.78px;
      }

      .cls-3 {
        stroke: #331a1a;
        stroke-linejoin: round;
        stroke-width: 3px;
      }
    </style>
    <pattern id="Dots_brown" data-name="Dots brown" x="0" y="0" width="83" height="65" patternTransform="translate(-930)" patternUnits="userSpaceOnUse" viewBox="0 0 83 65">
      <g>
        <rect class="cls-12" width="83" height="65"/>
        <line class="cls-9" x1="83" y1="65" x2="83" y2="130.5"/>
        <g>
          <line class="cls-9" y1="65" y2="130.5"/>
          <line class="cls-10" x1="4.61" y1="61.75" x2="4.61" y2="130.5"/>
          <line class="cls-5" x1="9.22" y1="65" x2="9.22" y2="130.5"/>
          <line class="cls-7" x1="13.83" y1="61.75" x2="13.83" y2="130.5"/>
          <line class="cls-14" x1="18.44" y1="65" x2="18.44" y2="130.5"/>
          <line class="cls-8" x1="23.06" y1="61.75" x2="23.06" y2="130.5"/>
          <line class="cls-6" x1="27.67" y1="65" x2="27.67" y2="130.5"/>
          <line class="cls-13" x1="32.28" y1="61.75" x2="32.28" y2="130.5"/>
          <line class="cls-4" x1="36.89" y1="65" x2="36.89" y2="130.5"/>
          <line class="cls-11" x1="41.5" y1="61.75" x2="41.5" y2="130.5"/>
          <line class="cls-9" x1="83" y1="65" x2="83" y2="130.5"/>
          <line class="cls-10" x1="78.39" y1="61.75" x2="78.39" y2="130.5"/>
          <line class="cls-5" x1="73.78" y1="65" x2="73.78" y2="130.5"/>
          <line class="cls-7" x1="69.17" y1="61.75" x2="69.17" y2="130.5"/>
          <line class="cls-14" x1="64.56" y1="65" x2="64.56" y2="130.5"/>
          <line class="cls-8" x1="59.94" y1="61.75" x2="59.94" y2="130.5"/>
          <line class="cls-6" x1="55.33" y1="65" x2="55.33" y2="130.5"/>
          <line class="cls-13" x1="50.72" y1="61.75" x2="50.72" y2="130.5"/>
          <line class="cls-4" x1="46.11" y1="65" x2="46.11" y2="130.5"/>
        </g>
        <line class="cls-9" y1="65" y2="130.5"/>
        <line class="cls-9" x1="83" x2="83" y2="65.5"/>
        <g>
          <line class="cls-9" y2="65.5"/>
          <line class="cls-10" x1="4.61" y1="-3.25" x2="4.61" y2="65.5"/>
          <line class="cls-5" x1="9.22" x2="9.22" y2="65.5"/>
          <line class="cls-7" x1="13.83" y1="-3.25" x2="13.83" y2="65.5"/>
          <line class="cls-14" x1="18.44" x2="18.44" y2="65.5"/>
          <line class="cls-8" x1="23.06" y1="-3.25" x2="23.06" y2="65.5"/>
          <line class="cls-6" x1="27.67" x2="27.67" y2="65.5"/>
          <line class="cls-13" x1="32.28" y1="-3.25" x2="32.28" y2="65.5"/>
          <line class="cls-4" x1="36.89" x2="36.89" y2="65.5"/>
          <line class="cls-11" x1="41.5" y1="-3.25" x2="41.5" y2="65.5"/>
          <line class="cls-9" x1="83" x2="83" y2="65.5"/>
          <line class="cls-10" x1="78.39" y1="-3.25" x2="78.39" y2="65.5"/>
          <line class="cls-5" x1="73.78" x2="73.78" y2="65.5"/>
          <line class="cls-7" x1="69.17" y1="-3.25" x2="69.17" y2="65.5"/>
          <line class="cls-14" x1="64.56" x2="64.56" y2="65.5"/>
          <line class="cls-8" x1="59.94" y1="-3.25" x2="59.94" y2="65.5"/>
          <line class="cls-6" x1="55.33" x2="55.33" y2="65.5"/>
          <line class="cls-13" x1="50.72" y1="-3.25" x2="50.72" y2="65.5"/>
          <line class="cls-4" x1="46.11" x2="46.11" y2="65.5"/>
        </g>
        <line class="cls-9" y2="65.5"/>
        <line class="cls-9" x1="83" y1="-65" x2="83" y2=".5"/>
        <g>
          <line class="cls-9" y1="-65" y2=".5"/>
          <line class="cls-10" x1="4.61" y1="-68.25" x2="4.61" y2=".5"/>
          <line class="cls-5" x1="9.22" y1="-65" x2="9.22" y2=".5"/>
          <line class="cls-7" x1="13.83" y1="-68.25" x2="13.83" y2=".5"/>
          <line class="cls-14" x1="18.44" y1="-65" x2="18.44" y2=".5"/>
          <line class="cls-8" x1="23.06" y1="-68.25" x2="23.06" y2=".5"/>
          <line class="cls-6" x1="27.67" y1="-65" x2="27.67" y2=".5"/>
          <line class="cls-13" x1="32.28" y1="-68.25" x2="32.28" y2=".5"/>
          <line class="cls-4" x1="36.89" y1="-65" x2="36.89" y2=".5"/>
          <line class="cls-11" x1="41.5" y1="-68.25" x2="41.5" y2=".5"/>
          <line class="cls-9" x1="83" y1="-65" x2="83" y2=".5"/>
          <line class="cls-10" x1="78.39" y1="-68.25" x2="78.39" y2=".5"/>
          <line class="cls-5" x1="73.78" y1="-65" x2="73.78" y2=".5"/>
          <line class="cls-7" x1="69.17" y1="-68.25" x2="69.17" y2=".5"/>
          <line class="cls-14" x1="64.56" y1="-65" x2="64.56" y2=".5"/>
          <line class="cls-8" x1="59.94" y1="-68.25" x2="59.94" y2=".5"/>
          <line class="cls-6" x1="55.33" y1="-65" x2="55.33" y2=".5"/>
          <line class="cls-13" x1="50.72" y1="-68.25" x2="50.72" y2=".5"/>
          <line class="cls-4" x1="46.11" y1="-65" x2="46.11" y2=".5"/>
        </g>
        <line class="cls-9" y1="-65" y2=".5"/>
      </g>
    </pattern>
  </defs>
  <g class="cls-20">
    <g id="Layer_1" data-name="Layer 1">
      <g>
        <path class="cls-23" d="m430.73,284.53c5.55,1.39,35.85,17.55,47.82,27.59,11.98,10.04,28.76,26.63,20.26,38.81-8.5,12.17-22.86,10.39-35.52,4.93-12.67-5.45-55.78-44.91-55.78-44.91,0,0,19.98-27.23,23.22-26.42Z"/>
        <path class="cls-15" d="m430.73,284.53c9.2.53,16.76,6.51,24.48,10.89,11.59,6.58,24.05,12.91,32.85,23.37,4.54,5.06,8.69,10.48,11.86,16.52,3.26,5.49,4.31,11.89.08,17.32-2.42,3.52-5.91,6.33-9.91,7.91-3.95,1.5-8.34,1.78-12.47,1.3-3.51-.43-6.7-1.83-9.92-3.11-2.6-1.38-5.67-1.33-8.22-2.8,0,0-1.48-.87-1.48-.87-11.56-6.99-21.41-16.35-31.36-25.38-2.9-2.61-6.97-6.54-10.21-8.66-3.2-2.32-7.1-6.18-10.14-8.76,0,0-1.2-1.07-1.2-1.07l.96-1.31c3.51-4.8,7.1-9.51,10.95-14.05,3.68-4.23,7.29-8.87,12.45-11.39.38-.13.8-.3,1.32-.16l-.06.24h0Zm-.06.24c-1.22.46-2.06,1.84-2.91,2.82,0,0-2.65,3.49-2.65,3.49-5.14,6.29-11.21,14.42-16.15,20.93,0,0-.23-2.38-.23-2.38,1.69,1.57,5.75,5.27,7.38,6.75,2.5,2.22,4.5,4.96,7.17,7,8.46,7.19,17.36,13.89,26.12,20.69,3.08,2.27,7.47,5.73,10.61,7.79,0,0,1.34.91,1.34.91,1.46.72,2.57,1.93,3.99,2.75,1.97.97,4.14,1.46,6.29,1.79,4.32.5,8.53,1.06,12.58.43,4.54-.67,8.64-2.88,11.63-6.3,1.62-1.83,3-3.88,3.38-6.31,2.33-12.4-9.88-21.39-18.19-28.58-8.45-7.04-17.37-13.62-26.97-19.09-5.83-3.21-12.01-5.72-17.7-9.2-1.91-1.15-3.71-2.42-5.61-3.74l-.06.24h0Z"/>
      </g>
      <path class="cls-26" d="m430.73,284.53c5.55,1.39,35.85,17.55,47.82,27.59,11.98,10.04,28.76,26.63,20.26,38.81-8.5,12.17-22.86,10.39-35.52,4.93-12.67-5.45-55.78-44.91-55.78-44.91,0,0,19.98-27.23,23.22-26.42Z"/>
      <g>
        <path class="cls-2" d="m127.13,339.59s-19.61,83.67,8.86,87.88c28.47,4.22,27.49-29.16,26.54-46.68-.95-17.51-4.71-55.48-4.71-55.48l-30.69,14.27Z"/>
        <path class="cls-15" d="m127.32,339.74c.08-.09.03.06.04.11v.21s-.03.42-.03.42l-.05.84-.1,1.68c-.24,5.53-1.35,11.08-2.02,16.56-1.61,10.95-2.59,22.01-3.41,33.02.27,9.74,1.46,22.97,8.61,30.04,2.97,2.8,7.14,3.17,11.05,3.25,1.49,0,3.12-.17,4.58-.4,1.56-.03,3.23-.2,4.52-1.15,8.88-6.56,10.02-22,10.42-32.34-.02-4.43.37-8.87.56-13.31-.06-8.92-1.78-17.73-2.9-26.58-1.17-8.85-1.46-17.77-2.03-26.67,0,0,1.79,1.02,1.79,1.02-7.75,3.13-14.72,7.56-22.52,10.6-2.66,1.01-5.45,1.9-8.7,2.52l.19.16h0Zm-.63.25c6.24-5.85,15.07-8.7,22.82-12.14,2.62-1.17,5.2-2.41,7.76-3.69.61-.31,1.36-.06,1.67.56.08.15.11.31.13.47l1.78,13.28c1.87,13.3.98,26.79,2.45,40.11.74,4.44,1.54,8.9,1.5,13.43.13,6.81-.3,13.85-2.43,20.44-1.4,4.51-3.84,8.96-7.81,11.73,0,0-1.47,1.02-1.47,1.02-1,.64-2.05,1.18-3.09,1.75-1.53.93-3.08,2.08-4.91,2.33-1.02.3-2.52.34-3.58.47-21.03,1.82-22.29-21.79-22.16-37.14-.72-8.97.15-18,1.32-26.91,1.3-8.7,2.56-17.53,6.01-25.69h0Z"/>
      </g>
      <g>
        <path class="cls-24" d="m196.72,239.7s-11.39,28.86-11.07,47.19c.32,18.32,6.64,52.38,33.53,52.7,26.89.32,48.4-40.21,51.88-48.65,3.48-8.43,10.12-51.24,10.12-51.24h-84.46Z"/>
        <path class="cls-15" d="m196.69,239.89c-2.1,14.99-9.54,28.96-9.7,44.23-.05,4.97.57,10.03,1.39,14.94,1.78,9.74,4.23,19.59,9.63,27.98,9.92,14.81,24.87,13.99,38.59,4.86,8.18-5.59,14.88-13.2,20.8-21.15,2.98-4.03,6.35-7.89,8.8-12.33,1.33-2.16,1.64-4.85,2.69-7.07,2.56-7.05,3.48-14.53,5.12-21.88,1.61-8.81,4.25-21.28,5.78-29.98,0,0,1.38,1.62,1.38,1.62-5.22-.1-10.48-.26-15.7-.18-3.47.24-6.89.55-10.38.47-19.43-.09-39.03.52-58.41-1.5h0Zm.19-.42c13.69-1.65,27.72-1.34,41.54-1.48,8.35.14,18.53-.3,26.79.49,5.86.07,11.71-.08,17.57-.23,0,0-.22,1.67-.22,1.67-1.34,10.14-2.73,20.25-4.56,30.31-1.51,7.56-2.66,15.47-5.79,22.61-1.04,2.43-3.09,4.26-4.21,6.57-2.47,4.49-4.53,9.28-7.43,13.58-7.36,10.68-16.6,20.95-28.89,25.92-4.96,2-10.55,2.22-15.77,1.31-7.87-1.07-15.07-5.39-19.95-11.65-6.57-8.26-9.77-18.68-11-28.99-1.41-10.27-.43-20.79,1.63-30.89,1.94-10.19,4.41-20.46,10.28-29.21h0Z"/>
      </g>
      <g>
        <path class="cls-2" d="m294.49,354.5s2.67,30.2,15.27,53.19c11.03,20.1,23.84,27.42,34.75,21.4,6.7-3.7-1.91-27.89-8.4-42.48-6.49-14.59-16.26-32.11-16.26-32.11h-25.36Z"/>
        <path class="cls-15" d="m294.55,354.51l.13.16c.07.09.15.11.17.15l.11.34c.48,1.57,1,3.24,1.44,4.81,1,3.58,1.57,7.43,2.49,11.02,2.05,9.16,4.67,18.21,7.61,27.09,1.85,4.23,4.21,8.43,6.74,12.28,5.07,7.36,10.92,14.86,19.32,18.38.77.38,1.53,1.05,2.42,1.18,2.19.43,4.43-.25,6.33-1.24.78-.34,1.46-.88,2.23-1.26.24-.14.3-.3.49-.47,1.42-2.33.73-6.57.27-9.46-.6-3.63-1.5-7.25-2.5-10.82-1.09-3.57-1.46-7.44-2.73-11.01-2.61-7.12-6.72-13.55-10.25-20.22-3.61-6.64-6.45-13.7-10.01-20.38l1.04.61c-4.04-.14-8.03.25-12.04.26-4.54-.03-8.45-.48-13.26-1.45h0Zm-.31.08c5.78-1.95,12.85-1.59,19.02-1.36,2.22.09,4.41.12,6.59.07.44-.01.82.22,1.02.58,3.79,6.62,8.02,13,11.19,19.96,3.23,6.91,5.53,14.25,8.43,21.28,1.48,3.5,3.7,6.77,4.88,10.44,1.91,5.59,3.62,11.25,3.64,17.26-.09,2.59-.49,5.55-2.74,7.41-3.36,2.22-7.75,2.19-11.57,1.77-1.02,0-2.07.09-3.14,0-2.99-.6-5.78-2.23-8.23-4-10.29-7.87-15.33-20.17-20.19-31.62-2.39-4.1-3.64-8.96-5.02-13.48-2.43-9.19-4.88-18.73-3.89-28.3h0Z"/>
      </g>
      <g>
        <path class="cls-24" d="m357.63,291.1s22.78-9.08,33.22-10.38c10.44-1.3,33.85-.32,35.11,14.59,1.27,14.92-13.92,19.78-25.31,21.73-11.39,1.95-43.02-4.05-43.02-4.05v-21.9Z"/>
        <path class="cls-15" d="m357.21,290.99c.37-.34.96-.53,1.41-.75.68-.3,2.65-1.22,3.37-1.53,4.41-1.9,9.24-3.91,13.73-5.55,6.23-2.28,12.76-4.53,19.5-4.55,8.36-.14,17.1,1.11,24.52,5.3,1.5.87,2.92,1.96,4.07,3.33,1.21,1.36,1.66,3.17,2.35,4.75.92,2.47,1.64,5.15,1.35,7.82-.24,2.72-1.37,5.36-2.9,7.62-4.84,6.53-12.82,8.98-20.28,10.77-9.04,2.14-18.46.95-27.54-.11-6.97-.93-13.86-2.24-20.69-3.94.33-7.69,1.04-15.48,1.11-23.15h0Zm.84.35c-.03,6.18.75,15.4,1.06,21.65,0,0-1.2-1.45-1.2-1.45l19.41,2.43c7.15.78,14.43,1.86,21.59,1.38,5.4-.62,11-2.03,15.81-4.51,4.03-2.12,7.46-5.13,8.87-9.43.74-2.82,1.6-5.96.92-8.87-.34-1.53-1.57-2.6-2.52-3.71-2-2.2-4.69-3.94-7.7-4.89-2.99-.99-6.15-1.54-9.34-1.77-9.65-.88-19.13.9-28.4,3.56-6.08,1.67-12.47,3.69-18.5,5.6h0Z"/>
      </g>
      <g>
        <g>
          <path class="cls-15" d="m230.64,248.95c-1.47,5.1-5.91,9.03-10.62,11.22-4.57,2.09-9.65,3.37-13.39,6.83-2.34,2.21-4.2,5.27-3.92,8.77-.56-1.65-.49-3.53.07-5.23,2.33-7.21,10.22-9.65,16.5-12.1,4.6-1.91,8.86-5.1,11.37-9.49h0Z"/>
          <path class="cls-15" d="m225.71,301.6c-1.05,4.9-4.82,8.79-8.5,11.97-3.67,3.1-7.39,6.17-8.57,11.04-.52-5.17,3.63-9.51,7.26-12.56,3.7-3.11,7.3-6.28,9.8-10.45h0Z"/>
          <path class="cls-15" d="m229.42,286.91c-1.01,2.78-3.03,5.09-5.21,7.07-4.52,3.73-9.85,5.73-13.45,10.42-1.79,2.16-3.23,4.61-4.42,7.27.75-5.89,4.57-11.26,9.54-14.45,4.92-2.98,10.04-5.54,13.52-10.31h0Z"/>
          <path class="cls-15" d="m232.55,271.18c-.89,3.37-2.99,6.31-5.24,8.94-1.15,1.32-2.56,2.6-4.1,3.47-7.26,3.92-16.26,6.81-18.84,15.55.24-5.35,4.35-9.83,8.75-12.54,2.95-1.81,6.17-3.05,9.17-4.66,1.51-.74,2.68-1.78,3.9-2.9,2.4-2.36,4.72-4.87,6.36-7.86h0Z"/>
          <path class="cls-15" d="m232.55,259.41c-2.73,13.45-19.89,14.53-26.56,25.08,4.46-12.41,21.38-13.17,26.56-25.08h0Z"/>
          <path class="cls-15" d="m221.92,241.95c-2.75,6.02-10.93,4.71-15.31,8.64-1.46,1.21-2.68,2.73-3.66,4.54.33-4.27,3.99-7.92,8.03-9.01,3.9-1.21,7.89-1.21,10.94-4.18h0Z"/>
        </g>
        <path class="cls-15" d="m230.24,247.8c9.42,18.07-1.17,39.34-4.82,57.63-1.37,6.34-2.17,12.87-1.52,19.37l-.2.02c-1.83-13.1,2.11-26.11,5.09-38.72,2.59-12.53,5.55-25.75,1.27-38.22,0,0,.18-.08.18-.08h0Z"/>
        <g>
          <path class="cls-15" d="m225.39,304.95c.57,8.53,12.2,13.5,9.48,22.67-.19-8.67-11.76-13.52-9.48-22.67h0Z"/>
          <path class="cls-15" d="m228.5,290.46c1.65,5.61,5.83,9.47,9.15,14.12,3.25,4.57,6.5,10.52,4.84,16.28-.04-5.8-3.23-10.56-6.46-15.11-3.18-4.53-7.52-9.38-7.53-15.29h0Z"/>
          <path class="cls-15" d="m231.86,278.24c3.14,10.95,17.46,17.22,15.83,29.73-1.21-11.85-15.33-17.68-15.83-29.73h0Z"/>
          <path class="cls-15" d="m233.03,264.36c1.35,12.39,18.47,14.18,21.05,26.12.35,1.68.31,3.45-.28,5.01.58-11.02-12.04-14.34-17.69-21.75-2.07-2.58-3.82-5.99-3.07-9.37h0Z"/>
          <path class="cls-15" d="m232.55,255.08c5.46,4.98,12.77,6.09,18.58,10.71,5.68,4.63,9.14,12.2,8.29,19.49-.97-8.73-6.03-16.73-13.85-20.79-4.6-2.62-9.89-4.89-13.02-9.41h0Z"/>
          <path class="cls-15" d="m240.38,248.95c4.76,5.24,11.8,5.61,18.1,8.06,6.79,2.29,11.92,9.09,10.35,16.34-1.53-19.12-21.46-12.37-28.45-24.4h0Z"/>
        </g>
      </g>
      <path class="cls-21" d="m124.91,342.11s-1.24,9.23,9.29,10.81c10.52,1.58,23.85-5.66,23.85-5.66v-11.16l-33.13,6.01Z"/>
      <path class="cls-21" d="m294.49,362.32s1.8,7.96,11.12,9.36,19.74-4.68,19.74-4.68l-3.39-7.35-27.48,2.66Z"/>
      <g>
        <path class="cls-22" d="m169.52,242.62c-23.41-.63-46.5,20.3-57.6,46.04-13.93,32.29-.92,50.6,12.99,55.79,17.6,6.56,53.15-7.13,72.76-45.08,13.26-25.66,16.49-55.55-28.15-56.75Z"/>
        <path class="cls-15" d="m169.52,242.62c-21.93,4.71-34.73,11.89-47.2,30.97-5.24,8.07-9.84,16.91-12.96,26.05-2.42,7.63-3.84,16.13-1.19,23.87,2.67,7.19,7.49,14.06,14.45,17.59,8.18,4.57,18.53,2.73,27.38.55,3.13-.79,6.25-1.85,9.07-3.48,2.56-2,5.17-3.94,7.86-5.77,13.06-9.63,23.71-22.31,31.1-36.77,2.93-5.79,5.37-11.94,5.94-18.42,1.07-6.12,1.03-12.7-1.71-18.31-3.44-7.11-10.96-11.07-18.37-13-4.76-1.19-9.48-2.22-14.38-3.02,0,0,0-.25,0-.25h0Zm0-.25c17.33-2.15,37.64,5.14,38.51,25.16.21,3.48-.08,6.94-.74,10.28-.72,3.35-2.15,6.44-3.11,9.65-4.43,12.65-10.94,24.68-19.85,34.76-4.51,5.03-9.57,9.59-15.21,13.32-2.8,1.95-5.8,3.52-9.06,4.52-6.03,2.95-12.06,6.47-18.85,7.43-5.55.93-11.53.93-16.94-1.02-8.18-3.16-15.07-10.11-17.37-18.66-.12-.3-.27-.93-.32-1.25-.71-3.23-1.15-6.78-1.27-10.09-.24-1.43-.02-3.57-.03-5.03,0,0,.02-1.26.02-1.26l.13-1.25c1.11-13.38,6.08-26.5,14.02-37.33,7-9.46,15.8-17.59,25.75-23.83,5.02-3.09,10.8-5.42,16.73-5.79,2.56-.2,5.11.05,7.59.64,0,0,0-.25,0-.25h0Z"/>
      </g>
      <path class="cls-15" d="m155.55,249.67c-7.98,4.65-15.28,10.48-21.58,17.23-6.48,6.93-11.94,14.83-16.06,23.38-2.26,4.7-4.17,9.6-5.51,14.65s-2,9.89-1.19,14.86c.78,4.72,3.18,9.13,6.86,12.22s7.85,4.52,12.37,4.96c9.65.95,18.68-3.45,26.29-8.97,8.16-5.92,15.66-12.88,22.46-20.32,3.43-3.75,6.68-7.67,9.74-11.73,2.97-3.94,5.69-8.15,7.38-12.81,1.59-4.39,2.09-9.24.7-13.75-1.2-3.91-3.68-7.39-6.81-9.99-3.33-2.77-7.34-4.6-11.62-5.29-4.85-.78-9.83-.26-14.49,1.25-9.24,2.98-16.73,9.58-22.82,16.95-6.35,7.69-11.63,16.28-15.62,25.42-1.01,2.3-1.94,4.64-2.79,7-.88,2.45-1.74,4.93-2.16,7.5-.74,4.51.05,9.61,3.93,12.52,3.61,2.71,8.64,2.15,12.65.76,4.43-1.54,8.53-4.04,12.24-6.86,3.78-2.88,7.23-6.14,10.56-9.52,3.68-3.75,7.26-7.6,10.87-11.42,1.94-2.05,3.89-4.1,5.83-6.15,1.74-1.84,3.49-3.66,5-5.7,2.85-3.85,4.66-8.99,2.64-13.63-1.82-4.19-6.23-6.55-10.61-6.99-4.73-.47-9.6,1.04-13.71,3.32-8.36,4.63-14.04,12.72-18.03,21.19-1.1,2.33-2.1,4.71-3.05,7.11-.88,2.23-1.89,4.49-2.51,6.8-.52,1.93-.69,4.18.66,5.81,1.51,1.83,3.96,1.63,5.91.73,2.24-1.02,4.06-2.87,5.91-4.44,2.15-1.82,4.3-3.64,6.46-5.47s4.3-3.64,6.46-5.47c2.02-1.71,4.11-3.36,6.04-5.16,1.57-1.47,3.12-3.28,3.55-5.45.41-2.12-.26-4.19-1.77-5.72-1.45-1.45-3.51-2.33-5.57-2.32-2.21.02-4.3.94-6.02,2.28-3.75,2.93-5.26,7.6-6.6,11.98-.13.43.09.9.46,1.13,3.27,2.08,8.2.03,8.99-3.77.26-1.26-1.67-1.79-1.93-.53-.54,2.57-3.82,3.99-6.05,2.58l.46,1.13c1.26-4.13,2.66-8.78,6.43-11.34,1.55-1.05,3.5-1.75,5.38-1.35,1.68.36,3.31,1.43,4.03,3.04,1.8,4.06-3.48,7.59-6.05,9.76-4.05,3.43-8.1,6.86-12.15,10.29-2.03,1.71-4.05,3.43-6.08,5.14-1.31,1.11-3.38,2.79-5.24,2.33s-1.81-2.56-1.49-4.04c.46-2.14,1.41-4.21,2.21-6.25,3.33-8.57,7.36-17.19,14.19-23.56,3.04-2.84,6.6-5.2,10.54-6.57,4.15-1.44,9.07-2.02,13.08.15,1.7.92,3.17,2.27,4.08,4,1.01,1.91,1.11,4.16.63,6.23-1.06,4.63-4.58,8.09-7.74,11.42-3.66,3.86-7.31,7.72-10.97,11.58-3.18,3.35-6.34,6.72-9.71,9.89s-6.72,5.93-10.54,8.28c-3.55,2.19-7.6,4.26-11.81,4.63-1.93.17-3.95-.01-5.67-.97s-2.92-2.58-3.55-4.43c-1.54-4.53.12-9.33,1.65-13.63,3.16-8.89,7.53-17.35,12.91-25.1s11.23-14.58,18.96-19.38c7.58-4.72,17.25-7.06,25.87-3.92,7.21,2.62,13.13,9.3,13.41,17.17.16,4.57-1.42,8.99-3.58,12.96-2.24,4.12-5.11,7.87-8.04,11.51-6.03,7.47-12.73,14.4-19.99,20.68-6.93,5.99-14.53,12.07-23.51,14.58-8.03,2.24-17.51,1.09-23.26-5.45-6.49-7.39-4.9-17.78-2.16-26.38,2.86-8.98,7.28-17.45,12.81-25.07,5.1-7.04,11.23-13.34,18.06-18.7,3.29-2.58,6.78-4.92,10.39-7.03,1.11-.65.11-2.38-1.01-1.73h0Z"/>
      <g>
        <path class="cls-22" d="m259.04,239.7s18.35,17.84,11.7,41.84c-6.64,24-19.93,82.05,31,83.02s63.27-53.83,64.53-75.89-2.85-48.97-2.85-48.97h-104.39Z"/>
        <path class="cls-15" d="m259.16,239.79c11.46,8.56,16.39,24.17,13.66,37.98-2.97,11.75-5.84,23.58-6.54,35.69-1.14,16.47.07,37.41,16.43,46.08.73.34,2.51,1.18,3.24,1.47.74.26,2.63.87,3.39,1.13,5.39,1.49,11.09,1.44,16.62.85,12.57-1.16,24.62-5.82,33.75-14.64,4.55-4.28,8.4-9.33,11.67-14.75,3.35-5.36,6.59-11,8.45-17.16,1.39-7.86,3.31-15.66,4.05-23.63,1.09-11.18.61-22.43-.02-33.64-.4-6.43-.96-12.89-1.76-19.27l1.34,1.15c-7.62-.16-18.23-.29-25.65.27-25.97.02-52.61-.43-78.62-1.53h0Zm-.18-.19c25.71-1.23,52.17-1.51,77.92-1.52,8.32.58,19.34.4,27.7.25,3.46,22.85,6.59,46.78.67,69.5-.66,3.25-2.14,6.25-3.42,9.27-1.92,5.5-4.39,13.33-7.16,18.4-12.3,22.9-35.28,34.68-60.89,29.15-3.18-.56-6.54-1.4-9.53-2.65-12.26-4.63-19.48-16.41-21.22-29.03-2.78-18.05,2.52-35.99,6.91-53.3,3.26-14.28-3.32-28.31-10.97-40.07h0Z"/>
      </g>
      <g>
        <path class="cls-15" d="m273.43,246c3.01,8.22,4.56,16.94,4.55,25.7,0,4.37-.38,8.73-1.16,13.03-.8,4.42-2.06,8.74-3.18,13.09-1.13,4.35-2.12,8.76-2.37,13.26-.23,3.98.18,7.99,1.16,11.85,1.95,7.7,6.2,14.89,12.23,20.09,6.22,5.37,14.19,8.1,22.4,7.88s16.25-3.52,22.89-8.51c5.98-4.49,10.94-10.19,14.83-16.56,3.93-6.45,6.78-13.55,8.68-20.85,2.19-8.42,3.06-17.15,3.15-25.83.1-9.35-.71-18.68-1.8-27.95-.27-2.26-.55-4.52-.84-6.77-.07-.54-.41-1-1-1-.49,0-1.07.46-1,1,1.17,9.11,2.22,18.25,2.54,27.44.32,8.93-.03,17.94-1.68,26.74-1.36,7.22-3.59,14.32-6.86,20.91-3.24,6.55-7.5,12.61-12.84,17.62-5.76,5.39-12.83,9.67-20.64,11.18-7.61,1.47-15.8.29-22.44-3.79-6.66-4.09-11.7-10.73-14.41-18.01-1.35-3.61-2.17-7.41-2.38-11.26-.23-4.24.34-8.44,1.26-12.58.96-4.33,2.24-8.57,3.27-12.88,1-4.19,1.69-8.44,2-12.74.62-8.59-.24-17.31-2.51-25.61-.55-2.02-1.19-4.02-1.91-5.98-.44-1.2-2.37-.68-1.93.53h0Z"/>
        <path class="cls-15" d="m283.74,245.81c2.04,7.27,3.22,14.77,3.5,22.32s-.48,15.04-1.75,22.5c-1.23,7.22-2.63,14.54-2.13,21.9.44,6.52,2.33,13.05,6.62,18.11,4.17,4.91,10.3,8,16.71,8.48,6.78.51,13.39-1.95,18.43-6.45,4.93-4.41,8.39-10.35,11.28-16.23,3.17-6.46,5.6-13.31,7.06-20.36,3.13-15.13,1.78-30.67-.05-45.87-.22-1.84-.45-3.68-.68-5.52-.07-.54-.41-1-1-1-.49,0-1.07.46-1,1,1.86,14.88,3.75,30.02,1.79,44.99-.92,7.07-2.81,14.01-5.52,20.61-1.32,3.21-2.85,6.34-4.54,9.37-1.55,2.78-3.25,5.49-5.27,7.95-4.09,4.97-9.52,8.66-16.03,9.42s-12.54-1.19-17.28-5.3-7.34-10.14-8.22-16.36c-.99-6.95.04-13.98,1.2-20.85.64-3.76,1.31-7.51,1.77-11.29s.66-7.22.69-10.84c.05-7.33-.73-14.67-2.32-21.83-.39-1.77-.83-3.52-1.32-5.27-.35-1.24-2.28-.71-1.93.53h0Z"/>
        <path class="cls-15" d="m296.21,245.81c1.35,13.4.75,26.84-1.53,40.11-1.07,6.24-2.25,12.6-1.56,18.95.6,5.53,2.55,11.17,6.72,15.02,3.82,3.53,9.32,5.54,14.47,4.14s9.03-5.92,11.84-10.37c5.91-9.35,9.37-20.15,10.39-31.14,1.02-11.03-.47-22.36-4.56-32.67-.5-1.27-1.04-2.52-1.62-3.75-.23-.49-.93-.61-1.37-.36-.5.29-.59.88-.36,1.37,4.48,9.65,6.51,20.37,6.18,30.99s-3.04,21.19-8.06,30.56c-2.38,4.44-5.27,9.26-9.66,11.98-2.11,1.31-4.5,1.97-6.99,1.82s-4.67-1.02-6.66-2.29c-4.54-2.91-7.02-7.92-8-13.09-1.11-5.89-.31-11.92.67-17.77,1.08-6.42,2.08-12.82,2.51-19.33.43-6.46.42-12.96-.02-19.42-.11-1.59-.24-3.17-.4-4.75-.05-.54-.42-1-1-1-.5,0-1.05.46-1,1h0Z"/>
        <path class="cls-15" d="m305.39,247.39c2.79,8.61.79,17.7-1.02,26.29-.95,4.47-1.86,8.98-2.14,13.56-.23,3.86-.12,7.97,1.52,11.55,1.47,3.2,4.52,5.45,8.12,5.29s6.88-2.19,9.12-4.85c5-5.94,5.79-14.2,5.19-21.65-.72-8.87-3.52-17.58-2.86-26.54.08-1.1.22-2.2.42-3.28.23-1.26-1.69-1.8-1.93-.53-1.64,8.87.67,17.69,1.93,26.45,1,6.99,1.24,14.82-2.22,21.22-1.61,2.98-4.05,5.62-7.33,6.72-1.49.5-3.09.66-4.6.18s-2.64-1.5-3.45-2.78c-1.91-3.02-2.07-6.87-1.97-10.33.12-4.44.95-8.82,1.86-13.16,1.74-8.36,3.82-17,2.11-25.54-.21-1.05-.48-2.08-.81-3.1-.39-1.22-2.33-.7-1.93.53h0Z"/>
      </g>
      <polygon class="cls-21" points="156.18 238.13 149.26 248.54 140.14 252.64 364.6 262.36 363.43 240.95 156.18 238.13"/>
      <g>
        <path class="cls-1" d="m287.79,247.82c-129.19,0-188.92.44-188.92-30.4,0-21.73,9.37-42.18,45.23-45.8,34.58-3.49,60.54-13.04,142.4-13.04s110.61,9.11,144.92,14.32c25.25,3.83,42.71,17.89,42.71,39.94,0,20.53-25.75,34.05-51.24,34.47-43.27.71-108.08.51-135.11.51Z"/>
        <path class="cls-15" d="m287.79,247.82c-34.05,2.99-69.57.97-103.74.28-17.34-.61-34.7-1.14-51.88-4.09-14.46-2.55-35.07-8.25-35.02-26.25-.05-22.36,10.79-38.57,32.79-44.33,8.4-2.39,17.13-2.68,25.7-4.01,3.59-.48,9.1-1.57,12.75-2.25,37.97-8.21,77.48-10.77,116.28-10.56,17.33-.18,34.6,1.51,51.9,2.33,8.67-.03,17.34.36,25.97,1.33,21.43,1.93,42.97,6.21,64.15,9.91,8.63,1.33,17.5,3.05,25.36,7.09,14.73,7,24.52,20.99,23.32,37.65-1.23,13.96-13.71,23.31-25.61,28.62-8.11,3.55-16.98,5.15-25.8,5.48-3.87.18-27.98.34-32.44.44-25.93.17-51.87.21-77.79-.3-6.47-.22-19.46-.73-25.93-1.08,0,0,0-.25,0-.25h0Zm0-.25c29.96-1.68,73.31-1.44,103.69-1.72,0,0,25.91-.22,25.91-.22,8.5.07,17.01-.56,25.18-3.03,6.06-1.74,12.08-4.01,17.28-7.63,7.59-5.21,13.65-13.84,12.9-23.37-.18-9.41-4.65-18.38-11.73-24.5-7.11-6.12-16.26-9.63-25.46-11.56-7.4-1.3-14.94-2.33-22.33-3.68-17-3.04-33.97-5.83-51.12-7.79-8.58-.91-17.14-1.85-25.7-3-17.22-1.28-34.51-.34-51.76-.5-34.51.04-68.91,2.31-103.08,7.11-10.39,1.39-31.59,3.96-41.81,5.31-2.53.27-5.38,1.06-7.85,1.6,0,0-1.53.48-1.53.48l-3.05.96c-10.97,3.8-20.42,11.88-24.09,23.1-2.19,6.36-2.9,13.35-2.52,20.06.77,10.23,10.84,15.54,19.7,18.31,3.87,1.23,8.35,2.29,12.35,3.08,50.71,9.21,104.3,3.43,154.98,6.99h0Z"/>
      </g>
      <path class="cls-3" d="m404.13,184.14c0,20.53-21.07,30.38-41.08,34.47-37.01,7.57-83.97,7.83-105.64,7.83-97.21,0-147.74-6.06-153.6-32.29,5.94-11.52,18-20.27,40.3-22.53,34.58-3.5,60.53-13.04,142.39-13.04,56.41,0,88.44,4.58,114.55,9.11,1.99,4.84,3.07,10.33,3.07,16.44Z"/>
      <path class="cls-17" d="m440.73,225.32c13.32.63,14.07-21.09.75-21.71-16.49-.78-27.83,10.37-27.88,11.33-.05,1,10.64,9.61,27.13,10.39Z"/>
      <g>
        <path class="cls-19" d="m450.53,204.64c-.34-5.42-7.85-5.74-14.44-4.91-13.42,1.67-25.22,15.17-24.65,15.7.3.27,5.42-5.68,12.64-8.72,5.8-2.44,13.08-3.51,16.41-3.14,7.49.83,10.09,2.05,10.03,1.08Z"/>
        <path class="cls-19" d="m413.58,216.29c.54-.43,10.95,8.95,27.33,9.04,0,0,1.3,1.05,1.24,2.42-.05,1.07-.64,2.05-1.62,2.36-3.42,1.09-10.14-.96-14.85-3.9-6.21-3.87-12.8-9.35-12.09-9.92Z"/>
      </g>
      <ellipse class="cls-18" cx="442.09" cy="214.46" rx="9.01" ry="9.56"/>
      <ellipse class="cls-16" cx="446.3" cy="214.46" rx="3.55" ry="3.76"/>
      <g>
        <path class="cls-15" d="m112.48,183.24c13.21,11.27,25.52,23.57,36.79,36.78-13.21-11.26-25.52-23.58-36.79-36.78h0Z"/>
        <path class="cls-15" d="m138.58,173.16c17.81,15.88,34.72,32.77,50.59,50.59-17.82-15.87-34.71-32.77-50.59-50.59h0Z"/>
        <path class="cls-15" d="m224.58,226.16c-20.17-18.23-39.42-37.47-57.65-57.65,20.18,18.22,39.41,37.48,57.65,57.65h0Z"/>
        <path class="cls-15" d="m257.86,226.44c-21.74-19.81-42.56-40.62-62.35-62.37,21.75,19.8,42.55,40.63,62.35,62.37h0Z"/>
        <path class="cls-15" d="m293.61,225.85c-22.71-20.78-44.5-42.55-65.27-65.27,22.72,20.77,44.5,42.56,65.27,65.27h0Z"/>
        <path class="cls-15" d="m324.7,223.94c-22.62-20.68-44.32-42.36-64.99-64.99,22.63,20.67,44.31,42.37,64.99,64.99h0Z"/>
        <path class="cls-15" d="m355.2,220.08c-21.44-19.51-41.97-40.02-61.47-61.47,21.45,19.5,41.96,40.02,61.47,61.47h0Z"/>
        <path class="cls-15" d="m381.18,213.04c-18.8-16.86-36.69-34.74-53.55-53.55,18.81,16.86,36.68,34.75,53.55,53.55h0Z"/>
        <path class="cls-15" d="m399.83,198.7c-13.08-11.15-25.28-23.33-36.42-36.42,13.09,11.14,25.27,23.33,36.42,36.42h0Z"/>
      </g>
      <g>
        <path class="cls-15" d="m403.87,179.19c-12.02,13.96-25.07,27.03-39.04,39.04,12.01-13.97,25.08-27.02,39.04-39.04h0Z"/>
        <path class="cls-15" d="m382.21,164.68c-18.71,20.64-38.42,40.37-59.07,59.07,18.7-20.65,38.43-40.36,59.07-59.07h0Z"/>
        <path class="cls-15" d="m287.74,226.16c20.67-22.6,42.33-44.29,64.95-64.95-20.66,22.61-42.34,44.28-64.95,64.95h0Z"/>
        <path class="cls-15" d="m321.64,159.25c-21.41,23.35-43.82,45.79-67.18,67.2,21.41-23.36,43.83-45.78,67.18-67.2h0Z"/>
        <path class="cls-15" d="m285.97,158.58c-21.44,23.38-43.88,45.83-67.27,67.27,21.43-23.39,43.89-45.83,67.27-67.27h0Z"/>
        <path class="cls-15" d="m252.6,158.95c-20.68,22.62-42.36,44.32-64.99,64.99,20.67-22.63,42.37-44.31,64.99-64.99h0Z"/>
        <path class="cls-15" d="m215.49,161.69c-19,20.94-39,40.96-59.94,59.96,18.99-20.95,39.01-40.95,59.94-59.96h0Z"/>
        <path class="cls-15" d="m177.34,166.83c-15.28,17.21-31.57,33.52-48.79,48.79,15.27-17.22,31.58-33.51,48.79-48.79h0Z"/>
        <path class="cls-15" d="m138.88,172.3c-9.26,11.2-19.57,21.52-30.78,30.78,9.25-11.21,19.58-21.52,30.78-30.78h0Z"/>
      </g>
      <path class="cls-25" d="m136.03,180.49s79.75-12.49,118.6-13.66c38.85-1.18,102.03-2.48,103,1.69s-74.85,4.78-101.75,6.31c-26.9,1.53-118.62,14.09-119.85,5.67Z"/>
      <path class="cls-25" d="m413.6,179.19c-.41,3.21,10.03,1.96,17.38,4.18,7.35,2.23,14.59,5.41,15.33,2.9s-6.4-5.03-15.33-8.24c-8.93-3.21-16.88-2.73-17.38,1.16Z"/>
      <path class="cls-25" d="m454.32,189.34c-3.6,2.37,2.81,10.33,6.02,7.99,3.21-2.34-1.95-10.67-6.02-7.99Z"/>
      <path class="cls-21" d="m104.92,210.7c.15-.41,4.7,12.69,8.84,15.75,7.56,5.59,25.06,7.21,25.12,9.14s-20.14.86-29.2-6.13c-7.19-5.55-6.18-14.95-4.76-18.76Z"/>
      <path class="cls-25" d="m382.41,288.21s9.7-4.35,18.71-3.7c7.93.57,19.7,4.07,18.67,6.92s-11.96-2.04-18.67-2.65c-8.34-.76-18.6,2.29-18.71-.57Z"/>
      <path class="cls-21" d="m371.98,309.24s11.09,3.95,20.1,3.31c7.93-.57,17.2-1.67,17.34-4.7.06-1.38-11.86,1.45-18.56,2.06-8.34.76-18.76-3.54-18.88-.67Z"/>
      <path class="cls-25" d="m435.96,291.43c.65-3.05,24.46,11.99,32.71,18.62,8.25,6.63,28.1,21.29,25.07,24.06-2.08,1.9-28.15-17.29-33.63-21-5.79-3.92-25.2-16.75-24.15-21.68Z"/>
      <path class="cls-21" d="m431.22,323.75s26.48,24.88,36.8,28.78,21.1,2.41,20.87,1.83-9.86-1.15-19.72-6.08c-9.86-4.93-36.69-27.06-37.95-24.54Z"/>
      <path class="cls-25" d="m331.55,386.39s2.79,6.11,4.3,12.99c1.51,6.88,4.42,16.51,2.73,17.27s-6.27-12.08-7.03-15.75-1.68-13.61,0-14.52Z"/>
      <path class="cls-25" d="m154.34,357.8c2.16-.95,4.24,33.11,1.03,35.02-3.21,1.9-5.72-32.95-1.03-35.02Z"/>
      <path class="cls-21" d="m414.25,215.43c1.14.41,11.62-4.69,17.5-5.07s18.62.06,18.09-.77-3.5-5.56-7.09-5.76-11.16.18-14.92,1.52c-3.76,1.34-14.58,9.72-13.59,10.08Z"/>
      <path class="cls-21" d="m152.62,238.28c-.28,2.06,212.25,6.5,212.85,4.11s-212.57-6.18-212.85-4.11Z"/>
    </g>
  </g>
</svg>